<?xml version="1.0" standalone="no"?>
<!DOCTYPE svg PUBLIC "-//W3C//DTD SVG 1.1//EN" "http://www.w3.org/Graphics/SVG/1.1/DTD/svg11.dtd" >
<svg xmlns="http://www.w3.org/2000/svg" xmlns:xlink="http://www.w3.org/1999/xlink" version="1.1">
<metadata>
Created by FontForge 20170731 at Mon May 31 06:30:32 2021
 By Aleksey,,,
Copyright 2020 Spoqa (http://www.spoqa-han-sans.com)
</metadata>
<defs>
<font id="SpoqaHanSansNeo-Light" horiz-adv-x="920" >
  <font-face 
    font-family="Spoqa Han Sans Neo Light"
    font-weight="300"
    font-stretch="normal"
    units-per-em="1000"
    panose-1="2 11 3 0 0 0 0 0 0 0"
    ascent="800"
    descent="-200"
    x-height="533"
    cap-height="729"
    bbox="-38 -255.375 1000 948"
    underline-thickness="50"
    underline-position="-200"
    unicode-range="U+0020-FFE6"
  />
<missing-glyph horiz-adv-x="1000" 
d="M622 258h-220v220h220v-220z" />
    <glyph glyph-name=".notdef" horiz-adv-x="1000" 
d="M622 258h-220v220h220v-220z" />
    <glyph glyph-name=".null" horiz-adv-x="0" 
 />
    <glyph glyph-name="nonmarkingreturn" horiz-adv-x="333" 
 />
    <glyph glyph-name="space" unicode=" " horiz-adv-x="222" 
 />
    <glyph glyph-name="exclam" unicode="!" horiz-adv-x="275" 
d="M116 168l-9 574h60l-8 -574h-43zM108 -13v64h58v-64h-58z" />
    <glyph glyph-name="quotedbl" unicode="&#x22;" horiz-adv-x="415" 
d="M104 517l-12 168l-1 82h66l-1 -82l-11 -168h-41zM269 517l-12 168l-1 82h66l-1 -82l-12 -168h-40z" />
    <glyph glyph-name="numbersign" unicode="#" horiz-adv-x="535" 
d="M101 0l28 234h-90v47h96q5 45 11.5 90t11.5 90h-97v48h101l28 211h45l-27 -211h158l28 211h45l-28 -211h90v-48h-94l-22 -180h94v-47h-101l-27 -234h-45l27 234h-158l-29 -234h-45zM180 281h159q5 45 11.5 90t11.5 90h-159q-5 -45 -11.5 -90t-11.5 -90z" />
    <glyph glyph-name="dollar" unicode="$" horiz-adv-x="600" 
d="M290 -70v84q-75 3 -130.5 31t-97.5 76l34 33q38 -42 87.5 -67.5t106.5 -28.5v295q-67 30 -92 43q-44 23 -71 57.5t-28 86.5q0 35 15.5 64.5t41.5 51.5t60.5 35t73.5 15v94h47v-95q52 -5 96 -28.5t75 -55.5l-33 -31q-24 26 -59.5 46.5t-78.5 25.5v-277q5 -2 15.5 -6
t24.5 -10q30 -12 58 -25.5t49.5 -33t34 -47t12.5 -67.5q0 -36 -14 -67t-39.5 -55t-61 -39.5t-79.5 -19.5v-85h-47zM148 544q0 -29 13 -52t33 -37q20 -13 40.5 -24.5t55.5 -27.5v260q-30 -2 -56 -12t-45 -26t-30 -36.5t-11 -44.5zM353 330l-16 6v-276q67 8 107 45.5t40 87.5
q0 26 -8 52q-9 21 -29 38t-94 47z" />
    <glyph glyph-name="percent" unicode="%" horiz-adv-x="897" 
d="M201 305q-73 0 -115.5 54.5t-42.5 166.5q0 109 42.5 163t115.5 54q75 0 116.5 -54t41.5 -163q0 -112 -41.5 -166.5t-116.5 -54.5zM220 -12l406 755h49l-406 -755h-49zM201 345q51 0 80.5 43.5t29.5 137.5q0 91 -29.5 134t-80.5 43t-80 -43t-29 -134q0 -94 29 -137.5
t80 -43.5zM696 -12q-75 0 -117 54t-42 166t42 165t117 53q72 0 115 -53t43 -165t-43 -166t-115 -54zM696 28q49 0 79 43t30 137t-30 136t-79 42q-51 0 -80.5 -42t-29.5 -136t29.5 -137t80.5 -43z" />
    <glyph glyph-name="ampersand" unicode="&#x26;" horiz-adv-x="645" 
d="M521 137l117 -130h-65l-79 94q-43 -46 -101 -72t-133 -29q-100 0 -155 48t-61 133q-4 75 38.5 133t120.5 89l-14 16q-27 31 -49.5 67.5t-24.5 82.5q-2 75 38 115t116 43h6q63 0 103.5 -38t42.5 -101q1 -37 -12.5 -67.5t-35.5 -54.5t-48.5 -42.5t-50.5 -31.5l216 -222
q17 24 34 68t32 104h49q-15 -72 -37 -122.5t-47 -82.5zM163 609q-6 -25 5.5 -68t54.5 -95l26 -23q24 13 46.5 29t40 36t28 44t9.5 53q-3 45 -28 73t-70 28h-5q-53 -5 -75 -28q-25 -25 -32 -49zM461 132l-230 238q-60 -29 -98 -74t-38 -115q0 -29 12.5 -53.5t34.5 -42
t52.5 -27.5t66.5 -10q125 5 200 84z" />
    <glyph glyph-name="quotesingle" unicode="'" horiz-adv-x="250" 
d="M104 517l-12 168l-1 82h66l-1 -82l-11 -168h-41z" />
    <glyph glyph-name="parenleft" unicode="(" horiz-adv-x="315" 
d="M278 -115l-36 -18q-69 111 -107.5 232.5t-38.5 268.5t38.5 269t107.5 233l36 -19q-66 -106 -99 -228t-33 -255t33 -255t99 -228z" />
    <glyph glyph-name="parenright" unicode=")" horiz-adv-x="315" 
d="M73 -133l-36 18q66 106 99 228t33 255t-33 255t-99 228l36 19q69 -111 107.5 -233t38.5 -269t-38.5 -268.5t-107.5 -232.5z" />
    <glyph glyph-name="asterisk" unicode="*" horiz-adv-x="443" 
d="M148 502l-33 23l61 100l-102 40l12 38l107 -29l9 115h40l7 -114l107 28l12 -38l-102 -40l62 -100l-33 -23l-73 92z" />
    <glyph glyph-name="plus" unicode="+" horiz-adv-x="535" 
d="M242 120v222h-205v47h205v222h51v-222h204v-47h-204v-222h-51z" />
    <glyph glyph-name="comma" unicode="," horiz-adv-x="182" 
d="M20 -70l42 197h58l-58 -197h-42z" />
    <glyph glyph-name="hyphen" unicode="-" horiz-adv-x="400" 
d="M45 338v49h313v-49h-313z" />
    <glyph glyph-name="period" unicode="." horiz-adv-x="187" 
d="M43 -13v64h58v-64h-58z" />
    <glyph glyph-name="slash" unicode="/" horiz-adv-x="394" 
d="M10 -131l329 963h48l-330 -963h-47z" />
    <glyph glyph-name="zero" unicode="0" horiz-adv-x="589" 
d="M560 364q0 -97 -21 -168.5t-57 -118t-84.5 -69.5t-103.5 -23t-103 23t-84 69.5t-56.5 118t-20.5 168.5t20.5 168.5t56.5 118t84 69.5t103 23t103.5 -23t84.5 -69.5t57 -118t21 -168.5zM506 364q0 89 -17 152t-46 103t-67.5 58.5t-81.5 18.5q-42 0 -80.5 -18.5
t-67.5 -58.5t-46.5 -103t-17.5 -152q0 -90 17.5 -153t46.5 -103t67.5 -58t80.5 -18q43 0 81.5 18t67.5 58t46 103t17 153z" />
    <glyph glyph-name="one" unicode="1" horiz-adv-x="589" 
d="M359 48h155v-48h-375v48h166v579q0 8 0.5 17.5t1.5 19.5l-148 -133l-31 36l188 166h43v-685z" />
    <glyph glyph-name="two" unicode="2" horiz-adv-x="589" 
d="M192 51h325v-51h-471v31l259 263q31 31 57.5 60.5t45.5 59.5t29.5 61.5t10.5 66.5q0 40 -13 68.5t-34.5 47t-50.5 27.5t-61 9q-69 0 -113 -39t-58 -99l-3 -23l-52 8q14 97 75.5 149t152.5 52q42 0 81 -12.5t68 -37.5t46.5 -62t17.5 -87q0 -41 -13.5 -77.5t-35.5 -70
t-51 -65.5t-60 -65l-216 -221q25 7 64 7z" />
    <glyph glyph-name="three" unicode="3" horiz-adv-x="589" 
d="M117 535l-53 7q9 46 29 83.5t50 64.5t68.5 41.5t83.5 14.5q42 0 80 -12t66.5 -36t45.5 -59t17 -82q0 -69 -38.5 -112.5t-96.5 -60.5v-2q78 -17 116 -64.5t38 -117.5q0 -46 -18.5 -85t-51 -67.5t-76 -44.5t-94.5 -16q-62 0 -104 18t-69.5 46t-43.5 62.5t-26 67.5q9 4 19 7
l15 4q10 3 19 7l2 -10q5 -19 15 -45.5t31 -51t55 -41.5t87 -17q47 0 81.5 15t58 39t35 53.5t11.5 57.5q0 33 -12.5 61t-39 49t-68 33.5t-98.5 13.5v42q94 3 147 43.5t53 109.5q0 39 -13 67t-34.5 46t-50 26.5t-60.5 8.5q-34 0 -63 -11t-51 -30t-37 -45t-21 -56z" />
    <glyph glyph-name="four" unicode="4" horiz-adv-x="589" 
d="M440 253h130v-45h-130v-208h-49v208h-365v39l365 482h49v-476zM88 253h303v373l1 31z" />
    <glyph glyph-name="five" unicode="5" horiz-adv-x="589" 
d="M208 680l-44 -239q35 9 64.5 12.5t57.5 3.5q58 0 102 -16.5t73.5 -46.5t44.5 -71t15 -89q0 -58 -20 -104.5t-55 -78.5t-81.5 -49.5t-99.5 -17.5q-60 0 -109.5 20.5t-83.5 47.5l31 40q18 -12 30.5 -20t23.5 -13.5t22 -10t26 -9.5q24 -7 63 -7q42 0 78 13.5t63 39t42.5 63
t15.5 85.5q0 78 -47 128t-143 50q-29 0 -62 -4.5t-71 -15.5l-34 10l58 328h334v-49h-294z" />
    <glyph glyph-name="six" unicode="6" horiz-adv-x="589" 
d="M433 746l-222 -290q-17 -21 -30.5 -38.5t-23.5 -34.5q30 29 72.5 47t90.5 18q49 0 90 -16.5t70.5 -46.5t46 -72t16.5 -94q0 -51 -18 -94t-51 -74.5t-78.5 -49t-101.5 -17.5q-53 0 -96.5 17t-75 49t-48.5 78.5t-17 104.5q0 45 22 100t74 125l214 288h66zM293 29
q45 0 82 14t62.5 39t39.5 59.5t14 74.5q0 43 -13.5 77.5t-38 59t-58 37.5t-74.5 13q-46 0 -83 -16t-62.5 -42t-39 -58.5t-13.5 -66.5q0 -41 13 -76t37 -60.5t58 -40t76 -14.5z" />
    <glyph glyph-name="seven" unicode="7" horiz-adv-x="589" 
d="M55 732h478v-36l-350 -696h-60l338 660q4 8 8 13.5t8 10.5h-422v48z" />
    <glyph glyph-name="eight" unicode="8" horiz-adv-x="589" 
d="M510 553q0 -63 -33.5 -107.5t-93.5 -63.5q67 -17 110.5 -64t43.5 -127q0 -46 -18 -84t-50 -64.5t-76.5 -41t-97.5 -14.5t-97 14.5t-76 41t-49.5 64.5t-17.5 84q0 81 42 127.5t111 63.5q-60 20 -93.5 65.5t-33.5 105.5q0 39 15 74t42.5 60.5t67.5 40.5t89 15
q50 0 89.5 -15t67.5 -40.5t43 -60.5t15 -74zM133 553q0 -30 9.5 -57t29 -47.5t50.5 -33t73 -12.5t73 12.5t50.5 33t29 47.5t9.5 57q0 31 -10.5 58t-31.5 46.5t-51 31t-69 11.5t-69 -11.5t-50.5 -31t-31.5 -46.5t-11 -58zM295 31q42 0 76 11t59 32t38.5 51t13.5 67
q0 48 -17.5 79.5t-45 50t-60.5 26.5t-64 8q-30 0 -63 -8t-60.5 -26.5t-45 -50t-17.5 -79.5q0 -75 51 -118t135 -43z" />
    <glyph glyph-name="nine" unicode="9" horiz-adv-x="589" 
d="M167 -13l222 290q17 21 30.5 38.5t23.5 34.5q-30 -29 -72.5 -47t-90.5 -18q-49 0 -90 16.5t-70.5 46.5t-46 72t-16.5 94q0 51 18 94t51 74.5t79 49t101 17.5q53 0 96.5 -17t75 -49t48.5 -78t17 -105q0 -45 -22 -100t-74 -125l-214 -288h-66zM307 704q-45 0 -82 -14
t-62.5 -39t-39.5 -59t-14 -75q0 -43 13.5 -77.5t38 -59t58.5 -37.5t74 -13q47 0 83.5 16t62 42t39 58.5t13.5 66.5q0 41 -13 76t-37 60.5t-58 40t-76 14.5z" />
    <glyph glyph-name="colon" unicode=":" horiz-adv-x="206" 
d="M74 497v64h58v-64h-58zM74 57v64h58v-64h-58z" />
    <glyph glyph-name="semicolon" unicode=";" horiz-adv-x="206" 
d="M74 497v64h58v-64h-58zM32 -76l42 197h58l-58 -197h-42z" />
    <glyph glyph-name="less" unicode="&#x3c;" horiz-adv-x="471" 
d="M36 379l358 255v-61l-306 -216l306 -211v-59l-358 251v41z" />
    <glyph glyph-name="equal" unicode="=" horiz-adv-x="535" 
d="M37 456v47h460v-47h-460zM37 228v46h460v-46h-460z" />
    <glyph glyph-name="greater" unicode="&#x3e;" horiz-adv-x="478" 
d="M440 341l-358 -255v61l306 216l-306 211v59l358 -251v-41z" />
    <glyph glyph-name="question" unicode="?" horiz-adv-x="451" 
d="M250 148h-53q-5 50 1 91t19 73.5t29.5 56t32.5 38.5l31 31q15 15 26 31.5t18.5 36.5t8.5 45q0 24 -6 51t-21 48.5t-39.5 35.5t-61.5 13q-21 -1 -45 -8t-45.5 -25t-38.5 -50.5t-24 -84.5h-52q4 60 24.5 102.5t50 69t65.5 37.5t70 9q78 -5 125.5 -51.5t47.5 -142.5
q0 -46 -13.5 -76t-34 -54t-43 -46t-41 -52t-28 -72.5t-3.5 -106.5zM196 -13v64h58v-64h-58z" />
    <glyph glyph-name="at" unicode="@" horiz-adv-x="910" 
d="M433 -163q-81 0 -149.5 25.5t-119 75t-79 121.5t-28.5 165q0 110 36.5 198.5t97.5 151.5t142 97t169 34q81 0 146 -25.5t110.5 -72.5t70 -112t24.5 -145q0 -71 -19.5 -125.5t-49.5 -91t-67 -55t-72 -18.5q-45 0 -74.5 20.5t-33.5 63.5h-2q-29 -32 -63.5 -54.5
t-72.5 -22.5q-26 0 -49.5 9.5t-41 29t-27.5 48t-10 66.5q0 41 14 85t41 81t65.5 60.5t87.5 23.5q60 0 91 -54h2l11 45h42l-40 -211q-18 -75 -2 -110t67 -35q27 0 54.5 16t50 47t37 76t14.5 102q0 71 -21 129t-60.5 99t-96.5 63.5t-130 22.5q-75 0 -146 -31t-126 -87.5
t-88 -136.5t-33 -178q0 -81 24.5 -145t68 -109t105 -68.5t134.5 -23.5q54 0 100 14.5t84 38.5l20 -39q-94 -58 -208 -58zM408 112q26 0 55 17t61 55l34 188q-19 30 -37 41.5t-43 11.5q-36 0 -65.5 -18.5t-49.5 -48t-31 -65t-11 -70.5q0 -61 25.5 -86t61.5 -25z" />
    <glyph glyph-name="A" unicode="A" horiz-adv-x="587" 
d="M516 0l-81 245h-284l-83 -245h-60l255 729h62l255 -729h-64zM167 293h252l-44 132q-23 64 -41.5 124t-38.5 126h-4q-19 -66 -38 -126t-41 -124z" />
    <glyph glyph-name="B" unicode="B" horiz-adv-x="642" 
d="M106 0v729h201q55 0 100 -10.5t76.5 -32t49 -55t17.5 -79.5q0 -57 -28.5 -99.5t-83.5 -59.5v-5q72 -12 114 -56t42 -119q0 -53 -19.5 -93t-55 -66.5t-85.5 -40t-112 -13.5h-216zM166 411h122q108 0 155 36t47 98q0 75 -49.5 105t-146.5 30h-128v-269zM166 50h142
q106 0 166.5 39t60.5 124q0 78 -59 114t-168 36h-142v-313z" />
    <glyph glyph-name="C" unicode="C" horiz-adv-x="627" 
d="M368 -13q-67 0 -124 26.5t-97.5 75.5t-63.5 119t-23 157t23 157t64.5 119t99.5 75t127 26q66 0 114.5 -26.5t77.5 -61.5l-34 -39q-29 33 -68 53t-90 20q-58 0 -104.5 -22.5t-79 -64t-50 -101t-17.5 -133.5q0 -75 17 -135t49.5 -102.5t78.5 -65.5t103 -23t99.5 22.5
t81.5 65.5l34 -38q-42 -49 -94 -76.5t-124 -27.5z" />
    <glyph glyph-name="D" unicode="D" horiz-adv-x="672" 
d="M106 0v729h172q84 0 146.5 -25t104.5 -72t62.5 -114t20.5 -151t-20.5 -151.5t-62 -115.5t-104 -74t-146.5 -26h-173zM166 51h106q72 0 124.5 23t86 64.5t50 100t16.5 128.5q0 71 -16.5 128.5t-50 98.5t-86 63t-124.5 22h-106v-628z" />
    <glyph glyph-name="E" unicode="E" horiz-adv-x="573" 
d="M106 0v729h403v-51h-343v-266h289v-51h-289v-309h354v-52h-414z" />
    <glyph glyph-name="F" unicode="F" horiz-adv-x="532" 
d="M106 0v729h402v-51h-342v-281h289v-51h-289v-346h-60z" />
    <glyph glyph-name="G" unicode="G" horiz-adv-x="673" 
d="M376 -13q-70 0 -128.5 26.5t-100 75.5t-64.5 119t-23 157t24 157t66.5 119t102.5 75t132 26q37 0 67.5 -8t55.5 -20.5t44.5 -28t34.5 -31.5l-35 -39q-28 30 -67 51.5t-99 21.5q-61 0 -109.5 -22.5t-82.5 -64t-52.5 -101t-18.5 -133.5q0 -75 17.5 -135t50.5 -102.5
t81.5 -65.5t109.5 -23q48 0 89 13.5t66 38.5v219h-169v51h227v-293q-35 -37 -90.5 -60t-128.5 -23z" />
    <glyph glyph-name="H" unicode="H" horiz-adv-x="710" 
d="M106 0v729h60v-316h379v316h59v-729h-59v361h-379v-361h-60z" />
    <glyph glyph-name="I" unicode="I" horiz-adv-x="272" 
d="M106 0v729h60v-729h-60z" />
    <glyph glyph-name="J" unicode="J" horiz-adv-x="517" 
d="M227 -13q-127 0 -185 109l45 30q27 -46 60 -65.5t78 -19.5q66 0 97 39.5t31 127.5v521h60v-527q0 -45 -10 -84t-32.5 -68.5t-57.5 -46t-86 -16.5z" />
    <glyph glyph-name="K" unicode="K" horiz-adv-x="623" 
d="M106 0v729h60v-396h2l342 396h71l-232 -271l265 -458h-69l-236 411l-143 -165v-246h-60z" />
    <glyph glyph-name="L" unicode="L" horiz-adv-x="522" 
d="M106 0v729h60v-677h332v-52h-392z" />
    <glyph glyph-name="M" unicode="M" horiz-adv-x="787" 
d="M106 0v729h80l207 -579h4q14 40 27 80t27 80l150 419h80v-729h-57v462q0 45 2.5 100t4.5 101h-4l-57 -163l-153 -422h-48l-154 422l-57 163h-4q2 -46 4.5 -101t2.5 -100v-462h-55z" />
    <glyph glyph-name="N" unicode="N" horiz-adv-x="707" 
d="M106 0v729h62l298 -501l81 -147h5q-3 54 -5.5 108t-2.5 108v432h57v-729h-62l-297 502l-82 146h-5q2 -54 5 -105t3 -106v-437h-57z" />
    <glyph glyph-name="O" unicode="O" horiz-adv-x="726" 
d="M362 -13q-66 0 -121.5 26.5t-95.5 76t-62.5 120t-22.5 157.5t22.5 156t62.5 118t95.5 75t121.5 26q67 0 122.5 -26t95.5 -75t62.5 -118t22.5 -156t-22.5 -157.5t-62.5 -120t-95.5 -76t-122.5 -26.5zM362 41q54 0 98.5 23t76 65.5t49 103t17.5 134.5t-17.5 133.5t-49 101
t-76 64t-98.5 22.5t-98 -22.5t-75.5 -64t-48.5 -101t-17 -133.5t17 -134.5t48.5 -103t75.5 -65.5t98 -23z" />
    <glyph glyph-name="P" unicode="P" horiz-adv-x="612" 
d="M106 0v729h189q62 0 111 -11t83.5 -35t53 -63t18.5 -96q0 -110 -70 -163t-192 -53h-133v-308h-60zM166 358h121q109 0 161 39t52 127q0 89 -54 122t-163 33h-117v-321z" />
    <glyph glyph-name="Q" unicode="Q" horiz-adv-x="726" 
d="M586 -128l-111 137q-53 -22 -113 -22q-66 0 -121.5 26.5t-95.5 76t-62.5 120t-22.5 157.5t22.5 156t62.5 118t95.5 75t121.5 26q67 0 122.5 -26t95.5 -75t62.5 -118t22.5 -156q0 -115 -38.5 -200t-104.5 -131l140 -164h-76zM362 41q54 0 98.5 23t76 65.5t49 103
t17.5 134.5t-17.5 133.5t-49 101t-76 64t-98.5 22.5t-98 -22.5t-75.5 -64t-48.5 -101t-17 -133.5t17 -134.5t48.5 -103t75.5 -65.5t98 -23z" />
    <glyph glyph-name="R" unicode="R" horiz-adv-x="608" 
d="M577 0h-68l-194 329h-149v-329h-60v729h213q54 0 99 -10.5t77 -34t49.5 -60.5t17.5 -90q0 -88 -48.5 -137.5t-133.5 -62.5zM166 679v-300h139q97 0 146.5 38t49.5 117q0 80 -50.5 112.5t-145.5 32.5h-139z" />
    <glyph glyph-name="S" unicode="S" horiz-adv-x="580" 
d="M299 -13q-81 0 -142 30t-106 79l37 42q40 -45 94 -71t117 -26q81 0 128 38.5t47 101.5q0 33 -10 55.5t-27.5 39t-41 29t-50.5 24.5l-109 48q-24 11 -50.5 26t-48 36t-35.5 50.5t-14 69.5q0 41 16.5 74.5t45 57.5t68.5 37.5t86 13.5q66 0 118.5 -25t87.5 -63l-34 -39
q-32 33 -75 53t-97 20q-70 0 -112.5 -33.5t-42.5 -90.5q0 -31 12 -53t30 -37.5t40 -26.5t42 -20l109 -48q32 -14 59.5 -30.5t48.5 -39t33 -52.5t12 -72t-17 -78t-47.5 -63t-74 -42t-97.5 -15z" />
    <glyph glyph-name="T" unicode="T" horiz-adv-x="584" 
d="M261 0v678h-229v51h520v-51h-230v-678h-61z" />
    <glyph glyph-name="U" unicode="U" horiz-adv-x="705" 
d="M352 -13q-49 0 -94 14t-79.5 48.5t-55 92t-20.5 143.5v444h60v-441q0 -71 15.5 -118.5t41.5 -76t60.5 -40.5t71.5 -12q39 0 74 12t61.5 40.5t42 76t15.5 118.5v441h57v-444q0 -86 -20.5 -143.5t-55 -92t-79.5 -48.5t-95 -14z" />
    <glyph glyph-name="V" unicode="V" horiz-adv-x="550" 
d="M243 0l-239 729h64l131 -419q20 -66 36.5 -122t38.5 -122h4q22 66 38.5 122.5t38.5 121.5l130 419h61l-237 -729h-66z" />
    <glyph glyph-name="W" unicode="W" horiz-adv-x="857" 
d="M193 0l-163 729h62l88 -422q13 -60 25 -119t24 -119h4q14 60 28 119t28 119l111 422h59l112 -422q14 -60 28 -119t28 -119h5q11 60 22.5 119t23.5 119l88 422h59l-160 -729h-68l-129 487q-9 45 -18.5 83.5t-19.5 80.5h-4q-9 -42 -19.5 -80.5t-20.5 -83.5l-125 -487h-68z
" />
    <glyph glyph-name="X" unicode="X" horiz-adv-x="541" 
d="M19 0l217 377l-203 352h66l115 -208q15 -25 28 -48t31 -53h4q17 30 28.5 53t25.5 48l115 208h62l-203 -355l218 -374h-65l-123 218q-15 26 -31 54.5t-36 61.5h-4q-17 -33 -32 -61.5t-29 -54.5l-122 -218h-62z" />
    <glyph glyph-name="Y" unicode="Y" horiz-adv-x="502" 
d="M221 0v293l-219 436h64l107 -223q20 -40 38 -78t38 -80h4q21 42 41 80t37 78l107 223h62l-219 -436v-293h-60z" />
    <glyph glyph-name="Z" unicode="Z" horiz-adv-x="597" 
d="M54 0v35l412 643h-375v51h449v-35l-411 -642h416v-52h-491z" />
    <glyph glyph-name="bracketleft" unicode="[" horiz-adv-x="315" 
d="M108 -108v952h181v-36h-136v-880h136v-36h-181z" />
    <glyph glyph-name="backslash" unicode="\" horiz-adv-x="394" 
d="M337 -130l-329 963h47l329 -963h-47z" />
    <glyph glyph-name="bracketright" unicode="]" horiz-adv-x="315" 
d="M26 -108v36h136v880h-136v36h181v-952h-181z" />
    <glyph glyph-name="asciicircum" unicode="^" horiz-adv-x="450" 
d="M204 727h48l150 -256h-56l-121 208l-114 -208h-59z" />
    <glyph glyph-name="underscore" unicode="_" horiz-adv-x="554" 
d="M13 -47v47h528v-47h-528z" />
    <glyph glyph-name="grave" unicode="`" horiz-adv-x="594" 
d="M325 635l-162 168l43 38l151 -176z" />
    <glyph glyph-name="a" unicode="a" horiz-adv-x="547" 
d="M218 -7q-32 0 -60.5 8.5t-49.5 26.5t-33 45.5t-12 64.5q1 85 69 139q67 52 271 63q1 28 -3.5 57.5t-19.5 54.5q-16 24 -39 35t-60 12q-55 -1 -97.5 -19t-71.5 -40l-25 46q15 10 36.5 21t47.5 21q50 19 118 19q48 0 80.5 -16t53 -44t29.5 -66.5t9 -82.5v-338h-49l-6 70h-2
q-42 -34 -88.5 -55.5t-97.5 -21.5zM230 42q45 1 85 18t88 59v178q-79 -4 -133 -14.5t-87 -33.5q-34 -23 -48 -50.5t-14 -58.5q0 -55 32 -76.5t77 -21.5z" />
    <glyph glyph-name="b" unicode="b" horiz-adv-x="603" 
d="M314 -13q-38 0 -79.5 18t-78.5 49h-2l-7 -54h-47v795h58v-228l-3 -102q40 34 86 58t94 24q53 0 93 -19.5t67 -55t40.5 -85.5t13.5 -112q0 -68 -19 -121.5t-51.5 -90.5t-75 -56.5t-89.5 -19.5zM309 38q39 0 71.5 17t56.5 48t37 74.5t13 97.5q0 48 -8.5 88.5t-28 70
t-50.5 46t-76 16.5q-75 0 -166 -85v-308q42 -36 82 -50.5t69 -14.5z" />
    <glyph glyph-name="c" unicode="c" horiz-adv-x="499" 
d="M300 -13q-52 0 -96.5 18.5t-77.5 54.5t-51.5 88t-18.5 118q0 67 20 119t54 88t79 55t94 19q54 0 91 -20t65 -45l-33 -40q-25 23 -54.5 38.5t-67.5 15.5q-40 0 -74 -17t-59 -47t-39.5 -72.5t-14.5 -93.5t13.5 -93t37.5 -72.5t58.5 -47t76.5 -16.5t77 17.5t62 41.5l28 -40
q-35 -30 -77 -49.5t-93 -19.5z" />
    <glyph glyph-name="d" unicode="d" horiz-adv-x="605" 
d="M277 -13q-103 0 -162 71t-59 208q0 65 19 116.5t51.5 88.5t75.5 56.5t90 19.5q48 0 84 -17t75 -48l-4 96v217h58v-795h-48l-7 67h-2q-32 -32 -75.5 -56t-95.5 -24zM287 38q43 0 81.5 21t78.5 63v308q-42 36 -76.5 51t-72.5 15t-71 -17.5t-57 -48.5t-38 -73t-14 -91
q0 -105 44 -166.5t125 -61.5z" />
    <glyph glyph-name="e" unicode="e" horiz-adv-x="538" 
d="M304 -13q-51 0 -96.5 19t-79 55t-53 87.5t-19.5 117.5q0 65 19.5 117t52 88.5t75 56t87.5 19.5q97 0 151.5 -65t54.5 -183q0 -22 -3 -42h-378q1 -49 15.5 -89.5t40 -70t61 -45.5t78.5 -16t77.5 12.5t64.5 33.5l22 -43q-32 -20 -72 -36t-98 -16zM115 303h328
q0 97 -41 145.5t-111 48.5q-33 0 -63 -13t-53.5 -38t-39.5 -61t-20 -82z" />
    <glyph glyph-name="f" unicode="f" horiz-adv-x="298" 
d="M326 790l-14 -46q-33 15 -63 15q-43 0 -62.5 -30t-19.5 -87v-109h121v-49h-121v-484h-58v484h-74v44l74 5v112q0 163 137 163q20 0 40.5 -5t39.5 -13z" />
    <glyph glyph-name="g" unicode="g" horiz-adv-x="543" 
d="M275 -254q-100 0 -160 38.5t-60 107.5q0 35 21.5 68.5t58.5 58.5v5q-20 12 -34 33t-14 53q0 17 6 32t14.5 28t19 22.5t19.5 16.5v4q-26 21 -47 59t-21 86q0 42 15 76.5t41 59.5t61 39t74 14q22 0 40 -4.5t31 -9.5h182v-48h-120q24 -21 39.5 -53.5t15.5 -74.5
q0 -41 -14.5 -75.5t-40 -59.5t-60 -39t-73.5 -14q-22 0 -45 5.5t-41 16.5q-17 -14 -29.5 -31t-12.5 -43q0 -29 21 -48t79 -19h112q91 0 134.5 -29.5t43.5 -93.5q0 -35 -18 -67.5t-51.5 -58t-80.5 -40.5t-106 -15zM269 213q26 0 50 10.5t42 29.5t29 45.5t11 59.5t-10.5 59.5
t-28.5 44.5t-42 28t-51 10t-51.5 -10t-42.5 -28t-28.5 -44.5t-10.5 -59.5t11 -59.5t29 -45.5t42 -29.5t51 -10.5zM282 -210q44 0 79 11t60 29.5t38.5 41.5t13.5 47q0 43 -30.5 60.5t-90.5 17.5h-109q-9 0 -28 2t-39 7q-35 -24 -50.5 -52t-15.5 -55q0 -49 45 -79t127 -30z
" />
    <glyph glyph-name="h" unicode="h" horiz-adv-x="589" 
d="M100 0v795h58v-228l-1 -116q42 42 84.5 69t97.5 27q85 0 123.5 -51.5t38.5 -154.5v-341h-58v333q0 85 -27 123.5t-90 38.5q-47 0 -84 -24t-84 -72v-399h-58z" />
    <glyph glyph-name="i" unicode="i" horiz-adv-x="257" 
d="M101 658v64h58v-64h-58zM100 0v533h58v-533h-58z" />
    <glyph glyph-name="j" unicode="j" horiz-adv-x="258" 
d="M101 658v64h58v-64h-58zM-38 -237l13 46q71 -23 98 2.5t27 100.5v621h59v-623q0 -47 -14 -83.5t-40 -57.5t-62.5 -24t-80.5 18z" />
    <glyph glyph-name="k" unicode="k" horiz-adv-x="521" 
d="M100 0v795h58v-576h2l255 314h66l-174 -211l202 -322h-64l-172 280l-115 -136v-144h-58z" />
    <glyph glyph-name="l" unicode="l" horiz-adv-x="257" 
d="M158 0h-58v795h58v-795z" />
    <glyph glyph-name="m" unicode="m" horiz-adv-x="904" 
d="M100 0v533h48l7 -81h2q36 40 79.5 67.5t88.5 27.5q64 0 98.5 -29.5t48.5 -78.5q45 49 88.5 78.5t91.5 29.5q160 0 160 -206v-341h-58v333q0 85 -27.5 123.5t-87.5 38.5q-36 0 -73.5 -24t-80.5 -72v-399h-58v333q0 85 -27.5 123.5t-87.5 38.5q-70 0 -154 -96v-399h-58z
" />
    <glyph glyph-name="n" unicode="n" horiz-adv-x="593" 
d="M100 0v533h48l7 -81h2q42 40 84.5 67.5t97.5 27.5q85 0 123.5 -51.5t38.5 -154.5v-341h-58v333q0 85 -27 123.5t-90 38.5q-47 0 -84 -24t-84 -72v-399h-58z" />
    <glyph glyph-name="o" unicode="o" horiz-adv-x="594" 
d="M297 -13q-48 0 -92 18.5t-77 54.5t-52.5 88t-19.5 118q0 67 19.5 119t52.5 88t77 55t92 19t92 -19t77 -55t52.5 -88t19.5 -119q0 -66 -19.5 -118t-52.5 -88t-77 -54.5t-92 -18.5zM297 37q39 0 72 16.5t57.5 47t38 72.5t13.5 93t-13.5 93.5t-38 72.5t-57.5 47t-72 17
t-72 -17t-57 -47t-37.5 -72.5t-13.5 -93.5t13.5 -93t37.5 -72.5t57 -47t72 -16.5z" />
    <glyph glyph-name="p" unicode="p" horiz-adv-x="605" 
d="M100 -238v771h48l7 -65h2q39 30 84 54.5t94 24.5q53 0 93 -19.5t67 -55t40.5 -85.5t13.5 -112q0 -68 -19 -121.5t-51.5 -90.5t-75 -56.5t-89.5 -19.5q-74 0 -157 65l1 -98v-192h-58zM309 38q39 0 71.5 17t56.5 48t37 74.5t13 97.5q0 48 -8.5 88.5t-28 70t-50.5 46
t-76 16.5q-38 0 -78 -21.5t-88 -63.5v-308q43 -36 82.5 -50.5t68.5 -14.5z" />
    <glyph glyph-name="q" unicode="q" horiz-adv-x="605" 
d="M447 -238v203l4 104q-35 -35 -78.5 -58.5t-95.5 -23.5q-103 0 -162 71t-59 208q0 65 19 116.5t51.5 88.5t75.5 56.5t90 19.5q48 0 84 -17t73 -47h2l7 50h47v-771h-58zM287 38q43 0 81.5 21t78.5 63v308q-42 36 -76.5 51t-72.5 15t-71 -17.5t-57 -48.5t-38 -73t-14 -91
q0 -105 44 -166.5t125 -61.5z" />
    <glyph glyph-name="r" unicode="r" horiz-adv-x="359" 
d="M100 0v533h48l7 -99h2q27 51 65 82t86 31q16 0 28.5 -2.5t25.5 -9.5l-12 -52q-14 5 -23.5 7t-25.5 2q-35 0 -74.5 -30t-68.5 -104v-358h-58z" />
    <glyph glyph-name="s" unicode="s" horiz-adv-x="452" 
d="M231 -13q-60 0 -110 21.5t-86 51.5l31 42q35 -29 74 -48t94 -19q61 0 91.5 29.5t30.5 71.5q0 24 -11.5 41.5t-30 31t-41.5 23.5t-46 18q-30 10 -59.5 22t-53.5 30t-39 42.5t-15 58.5q0 29 11.5 55.5t34 46t55 31t74.5 11.5q45 0 85 -16.5t70 -40.5l-30 -40
q-27 20 -57.5 34t-69.5 14q-60 0 -87.5 -28t-27.5 -64q0 -22 10.5 -38t28 -27.5t40 -20.5t45.5 -18q31 -12 61.5 -24.5t55 -30.5t40 -43.5t15.5 -64.5q0 -31 -12 -58.5t-35.5 -48.5t-57.5 -33t-78 -12z" />
    <glyph glyph-name="t" unicode="t" horiz-adv-x="352" 
d="M250 -13q-39 0 -65.5 12t-42.5 33.5t-22.5 52t-6.5 67.5v332h-83v44l85 5l7 154h49v-154h153v-49h-153v-336q0 -50 18 -80.5t71 -30.5q15 0 33 4.5t32 10.5l14 -45q-23 -8 -47 -14t-42 -6z" />
    <glyph glyph-name="u" unicode="u" horiz-adv-x="590" 
d="M253 -13q-85 0 -123 51t-38 154v341h58v-334q0 -82 26.5 -121t89.5 -39q46 0 83.5 25t82.5 79v390h58v-533h-49l-5 88h-3q-39 -45 -81 -73t-99 -28z" />
    <glyph glyph-name="v" unicode="v" horiz-adv-x="489" 
d="M211 0l-198 533h63l115 -327q13 -39 26 -78.5t27 -75.5h4q13 36 26.5 75.5t26.5 78.5l116 327h59l-196 -533h-69z" />
    <glyph glyph-name="w" unicode="w" horiz-adv-x="766" 
d="M182 0l-156 533h62l93 -336q9 -38 17.5 -73.5t16.5 -71.5h5q10 36 19 71.5t19 73.5l95 336h64l95 -336q10 -38 19 -73.5t20 -71.5h4q9 36 18 71.5t19 73.5l91 336h57l-150 -533h-75l-90 321q-11 38 -20 75.5t-20 77.5h-5q-9 -40 -18.5 -78t-22.5 -77l-87 -319h-70z" />
    <glyph glyph-name="x" unicode="x" horiz-adv-x="460" 
d="M15 0l180 279l-165 254h64l82 -131q14 -23 28 -44.5t29 -43.5h4q14 22 26.5 43.5t26.5 44.5l79 131h61l-165 -260l180 -273h-65l-91 141q-14 25 -29 49.5t-32 47.5h-5q-15 -23 -29.5 -47.5t-30.5 -49.5l-86 -141h-62z" />
    <glyph glyph-name="y" unicode="y" horiz-adv-x="490" 
d="M205 -240h-62l88 234l-218 539h63l124 -326q13 -35 27.5 -73.5t28.5 -74.5h5q12 36 24.5 74.5t23.5 73.5l109 326h59z" />
    <glyph glyph-name="z" unicode="z" horiz-adv-x="453" 
d="M32 0v31l307 453h-274v49h349v-31l-307 -452h317v-50h-392z" />
    <glyph glyph-name="braceleft" unicode="{" horiz-adv-x="315" 
d="M289 -108h-40q-31 0 -54.5 6.5t-39 22.5t-23 43.5t-7.5 69.5q0 63 4.5 115t4.5 109q0 17 -4 33.5t-14.5 29t-29 20t-47.5 7.5v40q29 0 47.5 7.5t29 20t14.5 28t4 31.5q0 60 -4.5 112.5t-4.5 113.5q0 42 7.5 70t23 44t39 22.5t54.5 6.5h40v-36h-33q-49 0 -66 -27t-17 -85
q0 -54 3.5 -102t3.5 -108q0 -51 -12.5 -78.5t-46.5 -37.5v-4q34 -11 46.5 -39.5t12.5 -77.5q0 -60 -3.5 -107.5t-3.5 -101.5q0 -57 17 -84.5t66 -27.5h33v-36z" />
    <glyph glyph-name="bar" unicode="|" horiz-adv-x="254" 
d="M105 -131v969h44v-969h-44z" />
    <glyph glyph-name="braceright" unicode="}" horiz-adv-x="315" 
d="M26 -108v36h33q49 0 65.5 27.5t16.5 84.5q0 54 -3 101.5t-3 107.5q0 49 12.5 77.5t46.5 39.5v4q-34 10 -46.5 37.5t-12.5 78.5q0 60 3 108t3 102q0 58 -16.5 85t-65.5 27h-33v36h40q32 0 55 -6.5t38.5 -22.5t23 -44t7.5 -70q0 -61 -4.5 -113.5t-4.5 -112.5q0 -16 4 -31.5
t14.5 -28t29 -20t47.5 -7.5v-40q-29 0 -47.5 -7.5t-29 -20t-14.5 -29t-4 -33.5q0 -57 4.5 -109t4.5 -115q0 -42 -7.5 -69.5t-23 -43.5t-38.5 -22.5t-55 -6.5h-40z" />
    <glyph glyph-name="asciitilde" unicode="~" horiz-adv-x="535" 
d="M366 293q-32 0 -58.5 15.5t-50 33.5t-45.5 33.5t-46 15.5t-45.5 -15.5t-41.5 -53.5l-35 23q26 48 58.5 70.5t66.5 22.5q32 0 58 -15.5t49.5 -33.5t45.5 -33.5t46 -15.5q25 0 46 15.5t41 53.5l36 -24q-26 -48 -59 -70t-66 -22z" />
    <glyph glyph-name="exclamdown" unicode="&#xa1;" horiz-adv-x="253" 
d="M155 546v-64h-58v64h58zM147 375l9 -584h-60l8 584h43z" />
    <glyph glyph-name="currency" unicode="&#xa4;" horiz-adv-x="535" 
d="M66 123l-33 36l72 74q-41 53 -41 131q0 80 41 133l-72 75l33 35l74 -76q26 23 59 35t69 12q73 0 126 -47l74 76l34 -35l-73 -75q42 -54 42 -133q0 -77 -42 -131l73 -74l-34 -36l-74 76q-54 -48 -126 -48q-74 0 -128 48zM268 198q30 0 56.5 12t46.5 34t32 52.5t12 67.5
t-12 67.5t-32 52.5t-46.5 34.5t-56.5 12.5t-57 -12.5t-47.5 -34.5t-32 -52.5t-11.5 -67.5t11.5 -67.5t32 -52.5t47.5 -34t57 -12z" />
    <glyph glyph-name="yen" unicode="&#xa5;" horiz-adv-x="600" 
d="M271 0v182h-193v40h193v77h-193v41h176l-229 368h63q61 -97 98.5 -157.5t59.5 -99t33 -61t20 -43.5h5q10 21 21.5 44t33.5 61t59.5 98.5t99.5 157.5h60l-231 -368h177v-41h-194v-77h194v-40h-194v-182h-59z" />
    <glyph glyph-name="section" unicode="&#xa7;" horiz-adv-x="1000" 
d="M687 722l-23 -44q-20 16 -64 33t-101 17q-30 0 -54.5 -9.5t-42 -24t-27 -32.5t-9.5 -35q0 -26 13.5 -44.5t36.5 -32t54 -23t65 -18.5q91 -23 137.5 -60.5t46.5 -98.5q0 -42 -17 -79.5t-44 -60.5q15 -13 26.5 -39t11.5 -58q0 -34 -15 -64.5t-42.5 -54t-66.5 -37t-87 -13.5
q-63 0 -106.5 13.5t-70.5 37.5l26 42q19 -17 55.5 -33.5t99.5 -16.5q37 0 65.5 9.5t48.5 26t30.5 38.5t10.5 46q0 22 -7.5 39.5t-26.5 33t-52.5 29.5t-85.5 29q-51 15 -87.5 31t-59.5 35.5t-34 44t-11 55.5q0 26 16.5 60.5t54.5 66.5q-19 14 -28.5 39t-9.5 46q0 31 13.5 59
t39 49.5t62.5 34t85 12.5q61 0 106 -16.5t68 -32.5zM384 507q-29 -26 -41 -51.5t-12 -48.5q0 -15 4 -28.5t19.5 -27.5t45.5 -29t82 -32q35 -11 59 -19.5t40.5 -15.5t27 -12.5t17.5 -9.5q20 20 31 47.5t11 55.5q0 44 -32 69.5t-77 42t-93.5 29t-81.5 30.5z" />
    <glyph glyph-name="dieresis" unicode="&#xa8;" horiz-adv-x="594" 
d="M197 660q-19 0 -31.5 12.5t-12.5 30.5q0 19 12.5 32t31.5 13t31.5 -13t12.5 -32q0 -18 -12.5 -30.5t-31.5 -12.5zM397 660q-19 0 -31.5 12.5t-12.5 30.5q0 19 12.5 32t31.5 13t31.5 -13t12.5 -32q0 -18 -12.5 -30.5t-31.5 -12.5z" />
    <glyph glyph-name="guillemotleft" unicode="&#xab;" horiz-adv-x="450" 
d="M211 78l-164 188v27l164 187l32 -28l-144 -173l146 -174zM364 78l-164 188v27l164 187l32 -28l-144 -173l146 -174z" />
    <glyph glyph-name="degree" unicode="&#xb0;" horiz-adv-x="349" 
d="M175 491q-25 0 -48.5 9t-41.5 26.5t-28.5 42t-10.5 55.5t10.5 56t28.5 42t41.5 26.5t48.5 9.5q26 0 49 -9.5t41 -26.5t28.5 -42t10.5 -56t-10.5 -55.5t-28.5 -42t-41 -26.5t-49 -9zM175 529q38 0 62.5 26.5t24.5 68.5t-24.5 69t-62.5 27q-39 0 -63.5 -27t-24.5 -69
t24.5 -68.5t63.5 -26.5z" />
    <glyph glyph-name="plusminus" unicode="&#xb1;" horiz-adv-x="1000" 
d="M868 512v-49h-343v-288h-50v288h-343v49h343v288h50v-288h343zM132 73h738v-50h-738v50z" />
    <glyph glyph-name="twosuperior" unicode="&#xb2;" horiz-adv-x="402" 
d="M62 447v30q54 50 94 89t66 70.5t38.5 58.5t12.5 54q0 48 -25 74.5t-68 26.5q-29 0 -54.5 -20t-44.5 -48l-31 28q22 35 58 58.5t78 23.5q61 0 98.5 -34t37.5 -103q0 -33 -13.5 -64t-37.5 -63t-57 -65.5t-73 -72.5h206v-43h-285z" />
    <glyph glyph-name="threesuperior" unicode="&#xb3;" horiz-adv-x="402" 
d="M197 434q-51 0 -91 24t-63 58l36 27q20 -31 50.5 -50t67.5 -19q40 0 68.5 23.5t28.5 65.5t-39.5 64t-108.5 22v35q63 0 97 26t34 63q0 35 -23.5 57t-65.5 22q-26 0 -51 -16t-45 -42l-31 28q24 30 57 50t75 20q28 0 52 -8t42 -22.5t28.5 -35.5t10.5 -48q0 -42 -23 -68.5
t-58 -40.5q39 -8 68.5 -35.5t29.5 -72.5q0 -30 -11.5 -53.5t-31 -40t-46 -25t-57.5 -8.5z" />
    <glyph glyph-name="acute" unicode="&#xb4;" horiz-adv-x="594" 
d="M269 635l-32 30l151 176l43 -38z" />
    <glyph glyph-name="paragraph" unicode="&#xb6;" horiz-adv-x="1000" 
d="M497 -58v349h-10q-40 0 -83 13.5t-78.5 40.5t-58 68.5t-22.5 97.5q0 43 13.5 87t48.5 80t95.5 58.5t153.5 22.5q51 0 78 -2t44 -6v-809h-47v771h-87v-771h-47z" />
    <glyph glyph-name="periodcentered" unicode="&#xb7;" horiz-adv-x="497" 
d="M214 327v64h58v-64h-58z" />
    <glyph glyph-name="cedilla" unicode="&#xb8;" horiz-adv-x="594" 
d="M218 -245l-7 37q71 4 97.5 18t26.5 39q0 23 -19.5 36t-67.5 20l46 97h44l-33 -74q36 -9 57.5 -26t21.5 -50q0 -45 -42.5 -68.5t-123.5 -28.5z" />
    <glyph glyph-name="onesuperior" unicode="&#xb9;" horiz-adv-x="402" 
d="M194 447v355h-92v33q33 7 56 17.5t43 26.5h42v-432h-49z" />
    <glyph glyph-name="guillemotright" unicode="&#xbb;" horiz-adv-x="450" 
d="M81 480l164 -188v-27l-164 -187l-32 28l144 173l-146 174zM239 480l164 -188v-27l-164 -187l-32 28l144 173l-146 174z" />
    <glyph glyph-name="onequarter" unicode="&#xbc;" horiz-adv-x="851" 
d="M603 742h47l-406 -755h-47zM219 297h-49v355h-92v34q32 7 55.5 17t43.5 26h42v-432zM804 162v-38h-64v-124h-46v124h-195v25l193 283h48v-270h64zM556 162h138v93l5 116h-5z" />
    <glyph glyph-name="onehalf" unicode="&#xbd;" horiz-adv-x="876" 
d="M172 -13l406 755h47l-406 -755h-47zM170 297v355h-92v34q32 7 55.5 17t43.5 26h42v-432h-49zM536 0v30q54 50 93.5 88.5t66 70.5t39 59t12.5 54q0 48 -25 74.5t-68 26.5q-29 0 -54.5 -19.5t-43.5 -47.5l-32 28q22 34 58 57.5t78 23.5q61 0 98.5 -34t37.5 -103
q0 -33 -13.5 -63.5t-37.5 -62t-57 -65.5t-73 -74h206v-43h-285z" />
    <glyph glyph-name="threequarters" unicode="&#xbe;" horiz-adv-x="870" 
d="M92 645l-32 28q24 30 57.5 49.5t75.5 19.5q27 0 51.5 -8t42.5 -22.5t28.5 -35.5t10.5 -48q0 -40 -23.5 -67t-58.5 -41q38 -8 68.5 -35.5t30.5 -73.5q0 -30 -11.5 -53.5t-31 -40t-46.5 -25t-57 -8.5q-52 0 -92 24.5t-63 58.5l36 27q20 -31 50.5 -50.5t67.5 -19.5
q40 0 68.5 23.5t28.5 65.5t-39.5 64.5t-108.5 22.5v34q63 0 97.5 26.5t34.5 62.5q0 35 -24 57t-66 22q-26 0 -50.5 -16t-44.5 -41zM653 742h46l-406 -755h-46zM824 162v-38h-65v-124h-45v124h-195v25l192 283h48v-270h65zM576 162h138v93l5 116h-5z" />
    <glyph glyph-name="questiondown" unicode="&#xbf;" horiz-adv-x="479" 
d="M272 546v-64h-58v64h58zM220 385h53q2 -58 -5 -100t-19 -72.5t-28 -51t-32 -35.5l-31 -31q-15 -15 -26 -31.5t-18.5 -36t-8.5 -45.5q0 -24 6 -51t21 -48.5t39.5 -35.5t61.5 -13q21 1 45 8t45.5 25t38.5 50.5t24 84.5h52q-4 -60 -24.5 -102.5t-50 -69t-65 -37.5t-70.5 -9
q-78 5 -125.5 51.5t-47.5 142.5q0 46 13.5 75.5t33.5 52.5t42.5 45t41 52t28.5 73t6 109z" />
    <glyph glyph-name="multiply" unicode="&#xd7;" horiz-adv-x="1000" 
d="M818 90l-35 -34l-283 283l-283 -283l-35 34l284 284l-284 282l36 35l282 -283l283 283l35 -34l-283 -283z" />
    <glyph glyph-name="divide" unicode="&#xf7;" horiz-adv-x="1000" 
d="M436 630q0 26 19 45t45 19t45 -19t19 -45t-19 -45t-45 -19t-45 19t-19 45zM132 398h736v-49h-736v49zM436 117q0 26 19 45t45 19t45 -19t19 -45t-19 -45t-45 -19t-45 19t-19 45z" />
    <glyph glyph-name="caron" unicode="&#x2c7;" horiz-adv-x="1000" 
d="M685 531h57l-243 -384l-244 385h54l191 -301z" />
    <glyph glyph-name="dotaccent" unicode="&#x2d9;" horiz-adv-x="1000" 
d="M498 296q-40 0 -63.5 26.5t-23.5 59.5q0 17 5.5 33.5t17 29.5t27.5 21t37 8q43 0 65.5 -28.5t22.5 -63.5q1 -35 -22.5 -60.5t-65.5 -25.5z" />
    <glyph glyph-name="quoteleft" unicode="&#x2018;" horiz-adv-x="180" 
d="M138 730v-84h-82v85q0 22 6 43q7 32 29 58.5t54 34.5v-43q-20 -7 -31.5 -27.5t-13.5 -40.5q-3 -16 -2 -26h40z" />
    <glyph glyph-name="quoteright" unicode="&#x2019;" horiz-adv-x="180" 
d="M26 771v84h82v-85q0 -22 -5 -43.5t-17 -39.5q-11 -20 -28 -34t-39 -19v43q20 7 31 27.5t15 40.5q3 12 1 26h-40z" />
    <glyph glyph-name="quotedblleft" unicode="&#x201c;" horiz-adv-x="326" 
d="M300 740v-84h-82v85q0 11 1.5 22t3.5 22q9 32 29.5 58t54.5 34v-43q-20 -5 -31 -27t-15 -40q-1 -8 -1.5 -14.5t0.5 -12.5h40zM160 740v-84h-82v85q0 11 1.5 22t3.5 22q9 32 29.5 58t54.5 34v-43q-20 -5 -31 -27t-15 -40q-1 -8 -1.5 -14.5t0.5 -12.5h40z" />
    <glyph glyph-name="quotedblright" unicode="&#x201d;" horiz-adv-x="320" 
d="M35 791v84h82v-85q0 -23 -6 -44q-7 -32 -29 -58t-54 -34v43q19 5 31 27t14 40q3 17 2 27h-40zM175 791v84h82v-85q0 -23 -6 -44q-7 -32 -29 -58t-54 -34v43q19 5 31 27t14 40q3 17 2 27h-40z" />
    <glyph glyph-name="dagger" unicode="&#x2020;" horiz-adv-x="1000" 
d="M529 759l-6 -248l211 4v-53l-211 4l6 -522h-58l6 522l-211 -4v53l211 -4l-6 248h58z" />
    <glyph glyph-name="daggerdbl" unicode="&#x2021;" horiz-adv-x="1000" 
d="M529 759l-6 -237l211 4v-53l-211 4l1 -253l210 4v-53l-211 4l6 -235h-58l6 235l-211 -4v53l211 -4v253l-211 -4v53l211 -4l-6 237h58z" />
    <glyph glyph-name="twodotenleader" unicode="&#x2025;" horiz-adv-x="1000" 
d="M721 348v64h58v-64h-58zM221 348v64h58v-64h-58z" />
    <glyph glyph-name="ellipsis" unicode="&#x2026;" horiz-adv-x="1000" 
d="M471 348v64h58v-64h-58zM138 348v64h58v-64h-58zM804 348v64h58v-64h-58z" />
    <glyph glyph-name="perthousand" unicode="&#x2030;" horiz-adv-x="1000" 
d="M131 -18l382 766h42l-381 -766h-43zM36 521q0 57 11 98.5t29 68.5t41.5 40t48.5 13t48 -13.5t40.5 -40.5t28 -68.5t10.5 -98.5t-11 -98.5t-29 -68t-41 -39t-47 -12.5q-25 0 -48.5 13.5t-41.5 40.5t-28.5 68.5t-10.5 96.5zM249 520q0 25 -3.5 56.5t-12.5 59.5t-26 47.5
t-44 19.5q-26 0 -42 -19.5t-25 -47.5t-12 -59.5t-3 -55.5q0 -25 3.5 -57t12.5 -59.5t25.5 -46.5t41.5 -19q27 0 43.5 19t26 47t12.5 59.5t3 55.5zM393 209q0 57 11 98.5t29 68.5t41 40t48 13t48 -13.5t41 -40.5t28.5 -68.5t10.5 -98.5t-11 -98.5t-29 -68.5t-41 -39.5
t-48 -12.5t-48 13.5t-41 40.5t-28.5 68.5t-10.5 97.5zM707 209q0 57 11 98.5t29 68.5t41 40t48 13t48 -13.5t41 -40.5t28.5 -68.5t10.5 -98.5t-11 -98.5t-29 -68.5t-41 -39.5t-48 -12.5t-48 13.5t-41 40.5t-28.5 68.5t-10.5 97.5zM605 208q0 25 -3 56.5t-12.5 59.5t-26 47.5
t-43.5 19.5q-26 0 -42 -19.5t-25 -47.5t-12 -60t-3 -56q0 -25 3 -56.5t12 -59t25.5 -46.5t42.5 -19q27 0 43.5 19t25.5 47t12 59.5t3 55.5zM919 208q0 24 -3 55.5t-12.5 60t-26.5 48t-44 19.5q-26 0 -42 -19.5t-25 -47.5t-12 -60t-3 -56t3 -55.5t12 -59.5t25.5 -47t43.5 -19
t43.5 19t25.5 47t12 59.5t3 55.5z" />
    <glyph glyph-name="minute" unicode="&#x2032;" horiz-adv-x="250" 
d="M91 530l26 237l55 -2l-11 -82l-32 -155z" />
    <glyph glyph-name="second" unicode="&#x2033;" horiz-adv-x="415" 
d="M91 530l26 237l55 -2l-11 -82l-32 -155zM256 530l25 237l57 -2l-13 -82l-31 -155z" />
    <glyph glyph-name="guilsinglleft" unicode="&#x2039;" horiz-adv-x="289" 
d="M212 78l-164 188v27l164 187l32 -28l-144 -173l146 -174z" />
    <glyph glyph-name="guilsinglright" unicode="&#x203a;" horiz-adv-x="289" 
d="M77 480l164 -188v-27l-164 -187l-32 28l144 173l-146 174z" />
    <glyph glyph-name="uni203B" unicode="&#x203b;" horiz-adv-x="1000" 
d="M444 669q0 22 16 39t40 17q22 0 39 -17t17 -39q0 -24 -17 -40t-39 -16q-24 0 -40 16t-16 40zM195 714l305 -305l307 306l30 -30l-308 -305l302 -302l-30 -31l-301 306l-301 -306l-30 30l302 303l-306 304zM731 382q0 22 16 39t40 17q22 0 39 -17t17 -39q0 -24 -17 -40
t-39 -16q-24 0 -40 16t-16 40zM158 381q0 22 16 39t40 17q22 0 39 -17t17 -39q0 -24 -17 -40t-39 -16q-24 0 -40 16t-16 40zM444 95q0 22 16 39t40 17q22 0 39 -17t17 -39q0 -24 -17 -40t-39 -16q-24 0 -40 16t-16 40z" />
    <glyph glyph-name="uni20A9" unicode="&#x20a9;" horiz-adv-x="787" 
d="M772 383v-46h-113l-73 -337h-60l-81 337h-119q-20 -82 -41 -168.5t-40 -168.5h-57l-75 337h-120v42l91 4h19l-73 322h51l71 -322h137l64 279h65l65 -279h137q16 78 34 161t35 161h50l-71 -322h104zM337 383h97l-21 87l-27 134h-2l-27 -134zM577 179l34 158h-118l37 -158
l24 -119h2zM242 179l36 158h-117l34 -159l20 -120h2z" />
    <glyph glyph-name="uni2103" unicode="&#x2103;" horiz-adv-x="1000" 
d="M189 487q-25 0 -49 9t-42 26t-29 41.5t-11 55.5q0 32 11 57t29 42.5t42 26.5t49 9q26 0 49 -9t41 -26.5t28.5 -42.5t10.5 -57q0 -31 -10.5 -55.5t-28.5 -41.5t-41 -26t-49 -9zM729 -13q-68 0 -125 26t-98 75t-63.5 118.5t-22.5 156.5t23 156.5t64.5 118t99.5 74.5t127 26
q64 0 113 -26.5t80 -60.5l-38 -41q-29 33 -67 52t-87 19q-57 0 -103 -22t-78.5 -63.5t-49.5 -100t-17 -131.5t17 -132t48.5 -100.5t77 -64t101.5 -22.5q57 0 98 21.5t79 63.5l37 -40q-42 -49 -94 -76t-122 -27zM189 526q38 0 62.5 25.5t24.5 67.5t-24.5 68.5t-62.5 26.5
q-39 0 -63 -26.5t-24 -68.5t24 -67.5t63 -25.5z" />
    <glyph glyph-name="uni2109" unicode="&#x2109;" horiz-adv-x="1000" 
d="M234 487q-26 0 -49.5 9t-41.5 26t-28.5 41.5t-10.5 55.5q0 32 10.5 57t28.5 42.5t41.5 26.5t49.5 9t49 -9t41 -26.5t28.5 -42.5t10.5 -57q0 -31 -10.5 -55.5t-28.5 -41.5t-41 -26t-49 -9zM513 0v725h403v-55h-339v-274h287v-55h-287v-341h-64zM234 526q38 0 62.5 25.5
t24.5 67.5t-24.5 68.5t-62.5 26.5q-39 0 -63 -26.5t-24 -68.5t24 -67.5t63 -25.5z" />
    <glyph glyph-name="uni2116" unicode="&#x2116;" horiz-adv-x="951" 
d="M98 -13q-7 0 -10.5 0.5t-9.5 2.5l-6 47q17 0 26.5 9.5t9.5 35.5v626h66q54 -115 105 -228.5t102 -228.5l77 -174h4q-3 54 -4.5 97.5t-2 83.5t-0.5 79v292q0 92 64 92q7 0 10.5 -0.5t9.5 -2.5l6 -48q-17 0 -26 -9.5t-9 -35.5v-625h-67q-54 115 -105 228t-102 231l-77 172
h-4q3 -54 4.5 -97.5t2 -83.5t0.5 -79v-292q0 -48 -15 -70t-49 -22zM774 309q-34 0 -64 12t-52.5 34.5t-35.5 55t-13 74.5t13 74.5t35.5 55t52.5 34t64 11.5t63.5 -11.5t52 -34t35.5 -55t13 -74.5t-13 -74.5t-35.5 -55t-52 -34.5t-63.5 -12zM774 352q51 0 82 36.5t31 96.5
q0 61 -31 97t-82 36t-82 -36t-31 -97q0 -60 31 -96.5t82 -36.5zM637 177v42h274v-42h-274z" />
    <glyph glyph-name="uni2121" unicode="&#x2121;" horiz-adv-x="1000" 
d="M161 0v675h-134v50h326v-50h-135v-675h-57zM404 0v566h245v-47h-189v-197h146v-46h-146v-228h200v-48h-256zM729 0v566h57v-517h179v-49h-236z" />
    <glyph glyph-name="trademark" unicode="&#x2122;" horiz-adv-x="682" 
d="M119 408v297h-117v44h282v-44h-117v-297h-48zM341 408v341h63l56 -137l34 -93h4l33 93l55 137h63v-341h-46v173l6 110h-4l-90 -230h-41l-89 230h-4l6 -110v-173h-46z" />
    <glyph glyph-name="uni212B" unicode="&#x212b;" horiz-adv-x="1000" 
d="M718 0l-79 240h-280l-81 -240h-64l243 702q-39 11 -63.5 43t-24.5 78q0 57 36 91t93 34q27 0 50.5 -9t41.5 -25t28 -39t10 -52q0 -45 -25 -77t-63 -44l246 -702h-68zM411 821q0 -46 24.5 -69.5t62.5 -23.5q35 0 60.5 23.5t25.5 69.5q0 42 -25.5 66t-60.5 24
q-38 0 -62.5 -24t-24.5 -66zM376 292h245l-42 128q-21 63 -40 123t-38 126h-5q-18 -66 -36.5 -126t-40.5 -123z" />
    <glyph glyph-name="uni2160" unicode="&#x2160;" horiz-adv-x="1000" 
d="M468 0v725h64v-725h-64z" />
    <glyph glyph-name="uni2161" unicode="&#x2161;" horiz-adv-x="1000" 
d="M332 0v725h64v-725h-64zM605 0v725h64v-725h-64z" />
    <glyph glyph-name="uni2162" unicode="&#x2162;" horiz-adv-x="1000" 
d="M195 0v725h64v-725h-64zM468 0v725h64v-725h-64zM741 0v725h64v-725h-64z" />
    <glyph glyph-name="uni2163" unicode="&#x2163;" horiz-adv-x="1000" 
d="M194 0v725h64v-725h-64zM602 0l-237 725h68l129 -413q10 -33 19 -62.5t17.5 -58.5t17.5 -58.5t20 -62.5h4q11 33 20 62.5t17.5 58.5t17.5 58.5t20 62.5l128 413h65l-235 -725h-71z" />
    <glyph glyph-name="uni2164" unicode="&#x2164;" horiz-adv-x="1000" 
d="M465 0l-236 725h68l129 -413q9 -33 17.5 -62.5t17.5 -58.5t18.5 -58.5t20.5 -62.5h4q22 65 38.5 120.5t36.5 121.5l128 413h65l-235 -725h-72z" />
    <glyph glyph-name="uni2165" unicode="&#x2165;" horiz-adv-x="1000" 
d="M329 0l-237 725h68l129 -413q10 -33 19 -62.5t17.5 -58.5t17.5 -58.5t20 -62.5h4q11 33 20 62.5t18 58.5t18 58.5t20 62.5l128 413h64l-234 -725h-72zM742 0v725h64v-725h-64z" />
    <glyph glyph-name="uni2166" unicode="&#x2166;" horiz-adv-x="1000" 
d="M217 0l-213 725h68l111 -413q9 -33 17 -63t16 -59t16.5 -58t19.5 -62h4q11 33 19.5 62t16.5 58t16 59t17 63l112 413h65l-212 -725h-73zM607 0v725h64v-725h-64zM837 0v725h64v-725h-64z" />
    <glyph glyph-name="uni2167" unicode="&#x2167;" horiz-adv-x="1000" 
d="M145 0l-146 725h66l73 -413q12 -66 23 -121.5t24 -120.5h3q13 65 23.5 120.5t22.5 121.5l72 413h63l-143 -725h-81zM474 0v725h62v-725h-62zM663 0v725h62v-725h-62zM852 0v725h61v-725h-61z" />
    <glyph glyph-name="uni2168" unicode="&#x2168;" horiz-adv-x="1000" 
d="M384 0l214 376l-200 349h70l112 -204q14 -26 27 -48t32 -53h5q15 31 26.5 53t25.5 48l112 204h66l-201 -353l216 -372h-70l-120 215l-65 114h-4q-17 -33 -32 -60.5t-30 -53.5l-118 -215h-66zM198 0v725h63v-725h-63z" />
    <glyph glyph-name="uni2169" unicode="&#x2169;" horiz-adv-x="1000" 
d="M247 0l214 376l-201 349h71l113 -204q14 -26 27 -48t31 -53h4q16 31 27.5 53t25.5 48l112 204h66l-201 -353l216 -372h-70l-120 215q-14 26 -30.5 53.5t-34.5 60.5h-4q-17 -33 -32 -60.5t-30 -53.5l-118 -215h-66z" />
    <glyph glyph-name="uni2170" unicode="&#x2170;" horiz-adv-x="1000" 
d="M501 653q-22 0 -37 14t-15 35q0 22 15 35t37 13q20 0 35 -13t15 -35q0 -21 -15 -35t-35 -14zM468 0v531h63v-531h-63z" />
    <glyph glyph-name="uni2171" unicode="&#x2171;" horiz-adv-x="1000" 
d="M373 653q-22 0 -37 14t-15 35q0 22 15 35t37 13q20 0 34.5 -13t14.5 -35q0 -21 -14.5 -35t-34.5 -14zM631 653q-22 0 -37 14t-15 35q0 22 15 35t37 13q20 0 34.5 -13t14.5 -35q0 -21 -14.5 -35t-34.5 -14zM340 0v531h62v-531h-62zM598 0v531h62v-531h-62z" />
    <glyph glyph-name="uni2172" unicode="&#x2172;" horiz-adv-x="1000" 
d="M243 653q-21 0 -36.5 14t-15.5 35q0 22 15.5 35t36.5 13q20 0 35 -13t15 -35q0 -21 -15 -35t-35 -14zM501 653q-22 0 -37 14t-15 35q0 22 15 35t37 13q20 0 35 -13t15 -35q0 -21 -15 -35t-35 -14zM759 653q-22 0 -36.5 14t-14.5 35q0 22 14.5 35t36.5 13q20 0 35 -13
t15 -35q0 -21 -15 -35t-35 -14zM210 0v531h63v-531h-63zM468 0v531h63v-531h-63zM726 0v531h63v-531h-63z" />
    <glyph glyph-name="uni2173" unicode="&#x2173;" horiz-adv-x="1000" 
d="M256 653q-21 0 -36 14t-15 35q0 22 15 35t36 13q20 0 35 -13t15 -35q0 -21 -15 -35t-35 -14zM223 0v531h63v-531h-63zM593 0l-196 531h66l113 -322q13 -39 26 -78.5t27 -75.5h4q12 36 25.5 75.5t25.5 78.5l114 322h62l-193 -531h-74z" />
    <glyph glyph-name="uni2174" unicode="&#x2174;" horiz-adv-x="1000" 
d="M465 0l-197 531h66l113 -322q14 -39 26.5 -78.5t26.5 -75.5h4q13 36 26.5 75.5t25.5 78.5l114 322h62l-194 -531h-73z" />
    <glyph glyph-name="uni2175" unicode="&#x2175;" horiz-adv-x="1000" 
d="M746 653q-22 0 -36.5 14t-14.5 35q0 22 14.5 35t36.5 13q20 0 34.5 -13t14.5 -35q0 -21 -14.5 -35t-34.5 -14zM336 0l-197 531h66l113 -322q13 -39 26 -78.5t26 -75.5h4q13 36 26.5 75.5t25.5 78.5l114 322h62l-193 -531h-73zM713 0v531h63v-531h-63z" />
    <glyph glyph-name="uni2176" unicode="&#x2176;" horiz-adv-x="1000" 
d="M616 653q-21 0 -36 14t-15 35q0 22 15 35t36 13q20 0 35 -13t15 -35q0 -21 -15 -35t-35 -14zM871 653q-22 0 -37 14t-15 35q0 22 15 35t37 13q20 0 34.5 -13t14.5 -35q0 -21 -14.5 -35t-34.5 -14zM210 0l-194 531h66l111 -322q13 -39 26 -78.5t27 -75.5h4q13 36 26 75.5
t25 78.5l113 322h61l-191 -531h-74zM584 0v531h63v-531h-63zM838 0v531h62v-531h-62z" />
    <glyph glyph-name="uni2177" unicode="&#x2177;" horiz-adv-x="1000" 
d="M490 653q-21 0 -35.5 14t-14.5 35q0 22 14.5 35t35.5 13q20 0 34.5 -13t14.5 -35q0 -21 -14.5 -35t-34.5 -14zM694 653q-21 0 -36 14t-15 35q0 22 15 35t36 13q20 0 34.5 -13t14.5 -35q0 -21 -14.5 -35t-34.5 -14zM898 653q-21 0 -36 14t-15 35q0 22 15 35t36 13
q20 0 34 -13t14 -35q0 -21 -14 -35t-34 -14zM138 0l-137 531h65l72 -322q11 -39 19 -78.5t19 -75.5h4q11 36 19 75.5t18 78.5l70 322h62l-132 -531h-79zM458 0v531h61v-531h-61zM662 0v531h61v-531h-61zM866 0v531h61v-531h-61z" />
    <glyph glyph-name="uni2178" unicode="&#x2178;" horiz-adv-x="1000" 
d="M270 653q-22 0 -37 14t-15 35q0 22 15 35t37 13q20 0 34.5 -13t14.5 -35q0 -21 -14.5 -35t-34.5 -14zM237 0v531h62v-531h-62zM412 0l179 277l-164 254h68l81 -129q12 -21 26.5 -43t28.5 -45h4q14 23 26.5 45t26.5 43l76 129h66l-164 -259l178 -272h-68l-89 139
q-14 24 -29 48t-32 47h-5q-15 -23 -29 -46.5t-29 -48.5l-85 -139h-66z" />
    <glyph glyph-name="uni2179" unicode="&#x2179;" horiz-adv-x="1000" 
d="M284 0l178 277l-164 254h69l81 -129q12 -21 26.5 -43t28.5 -45h4q14 23 26.5 45t26.5 43l75 129h67l-164 -259l177 -272h-67l-90 139q-14 24 -29 48t-32 47h-5q-14 -23 -28 -46.5t-30 -48.5l-84 -139h-66z" />
    <glyph glyph-name="arrowleft" unicode="&#x2190;" horiz-adv-x="1000" 
d="M960 355h-809q43 -32 92.5 -79.5t87.5 -98.5l-42 -27q-52 66 -120 127t-134 103q66 42 134 103t120 127l42 -27q-38 -51 -87.5 -98.5t-92.5 -79.5h809v-50z" />
    <glyph glyph-name="arrowup" unicode="&#x2191;" horiz-adv-x="1000" 
d="M475 -80v809q-32 -43 -79.5 -92.5t-98.5 -87.5l-27 42q66 51 127 119.5t103 134.5q42 -66 103 -134.5t127 -119.5l-27 -42q-51 38 -98.5 87.5t-79.5 92.5v-809h-50z" />
    <glyph glyph-name="arrowright" unicode="&#x2192;" horiz-adv-x="1000" 
d="M40 355v50h809q-43 32 -92.5 79.5t-87.5 98.5l42 27q51 -66 119.5 -127t134.5 -103q-66 -42 -134.5 -103t-119.5 -127l-42 27q38 51 87.5 98.5t92.5 79.5h-809z" />
    <glyph glyph-name="arrowdown" unicode="&#x2193;" horiz-adv-x="1000" 
d="M525 840v-809q32 43 79.5 92.5t98.5 87.5l27 -42q-66 -52 -127 -120t-103 -134q-42 66 -103 134t-127 120l27 42q51 -38 98.5 -87.5t79.5 -92.5v809h50z" />
    <glyph glyph-name="arrowboth" unicode="&#x2194;" horiz-adv-x="1000" 
d="M849 349h-698q43 -32 92.5 -80t87.5 -99l-42 -26q-52 66 -120 127t-134 103q66 42 133.5 102.5t120.5 127.5l42 -27q-38 -51 -87.5 -99t-92.5 -80h698q-43 32 -92.5 80t-87.5 99l42 27q51 -67 119.5 -127.5t134.5 -102.5q-66 -42 -134.5 -103t-119.5 -127l-42 26
q38 51 87.5 99t92.5 80z" />
    <glyph glyph-name="arrowupdn" unicode="&#x2195;" horiz-adv-x="1000" 
d="M525 729v-698q32 43 79.5 92.5t98.5 87.5l27 -42q-66 -52 -127 -120t-103 -134q-42 66 -103 134t-127 120l27 42q51 -38 98.5 -87.5t79.5 -92.5v698q-32 -43 -79.5 -92.5t-98.5 -87.5l-27 42q66 51 127 119.5t103 134.5q42 -66 103 -134.5t127 -119.5l-27 -42
q-51 38 -98.5 87.5t-79.5 92.5z" />
    <glyph glyph-name="uni2196" unicode="&#x2196;" horiz-adv-x="1000" 
d="M808 37l-573 572q8 -54 9 -122t-7 -131l-49 10q11 83 6 175q-2 45 -7.5 86.5t-15.5 81.5q40 -10 82 -15.5t87 -7.5q92 -4 174 6l10 -49q-63 -8 -131 -7t-122 9l572 -573z" />
    <glyph glyph-name="uni2197" unicode="&#x2197;" horiz-adv-x="1000" 
d="M157 72l572 573q-54 -8 -122 -9t-131 7l10 49q83 -11 175 -6q45 2 86.5 7.5t81.5 15.5q-10 -40 -15.5 -81.5t-7.5 -86.5q-5 -92 6 -175l-49 -10q-8 63 -7 131t9 122l-573 -572z" />
    <glyph glyph-name="uni2198" unicode="&#x2198;" horiz-adv-x="1000" 
d="M192 723l573 -572q-8 54 -9 122t7 131l49 -10q-10 -82 -6 -174q2 -45 7.5 -87t15.5 -82q-40 10 -81.5 15.5t-86.5 7.5q-92 5 -175 -6l-10 49q63 8 131 7t122 -9l-572 573z" />
    <glyph glyph-name="uni2199" unicode="&#x2199;" horiz-adv-x="1000" 
d="M843 688l-572 -573q54 8 122 9t131 -7l-10 -49q-82 11 -174 6q-45 -2 -87 -7.5t-82 -15.5q10 40 15.5 82t7.5 87q5 92 -6 174l49 10q8 -63 7 -131t-9 -122l573 572z" />
    <glyph glyph-name="arrowdblright" unicode="&#x21d2;" horiz-adv-x="1000" 
d="M40 258h719q33 34 67 63.5t65 51.5q-31 23 -65 52.5t-67 62.5h-719v50h674q-29 33 -55.5 67t-46.5 66l42 25q28 -43 65 -88t78.5 -87.5t86.5 -80.5t90 -67q-45 -28 -90 -65.5t-87 -80t-78.5 -87.5t-64.5 -89l-42 25q20 32 46.5 66t55.5 67h-674v49z" />
    <glyph glyph-name="arrowdblboth" unicode="&#x21d4;" horiz-adv-x="1000" 
d="M337 696l42 -25q-41 -66 -101 -133h444q-60 67 -101 133l42 25q27 -43 63 -88.5t77 -88.5t84.5 -80.5t86.5 -65.5q-43 -28 -86.5 -65.5t-84.5 -80t-77 -88t-63 -88.5l-42 25q41 66 101 133h-444q60 -67 101 -133l-42 -25q-27 43 -63 88.5t-77 88t-84.5 80t-86.5 65.5
q43 28 86.5 65.5t84.5 80.5t77 88.5t63 88.5zM764 488h-528q-33 -33 -66 -62.5t-64 -52.5q31 -22 64 -51.5t66 -63.5h528q33 34 66 63.5t64 51.5q-31 23 -64 52.5t-66 62.5z" />
    <glyph glyph-name="universal" unicode="&#x2200;" horiz-adv-x="1000" 
d="M842 760l44 -22l-384 -752h-4l-384 752l44 22l140 -275h404zM323 436l176 -348h2l176 348h-354z" />
    <glyph glyph-name="partialdiff" unicode="&#x2202;" horiz-adv-x="1000" 
d="M718 495q0 112 -45.5 165.5t-123.5 53.5q-30 0 -56 -9t-47 -23.5t-37.5 -31t-26.5 -31.5l-36 33q14 17 34.5 36t46.5 34.5t57 26t66 10.5q100 0 159.5 -65t59.5 -193q0 -97 -24 -189.5t-68.5 -164.5t-106.5 -116t-138 -44q-48 0 -85.5 16.5t-63 45t-39 67t-13.5 83.5
q0 56 21.5 105t56 85t78.5 57t89 21t80.5 -12t62 -32.5t44.5 -47t29 -55.5h2q11 42 17.5 87.5t6.5 87.5zM281 197q0 -72 40 -117t115 -45q66 1 126.5 52t102.5 157q-2 38 -17 70.5t-40 56.5t-57.5 37.5t-70.5 13.5t-74 -18t-63.5 -48.5t-44.5 -71.5t-17 -87z" />
    <glyph glyph-name="existential" unicode="&#x2203;" horiz-adv-x="1000" 
d="M198 734h596v-721h-596v49h546v287h-546v49h546v287h-546v49z" />
    <glyph glyph-name="gradient" unicode="&#x2207;" horiz-adv-x="1000" 
d="M469 -19l-311 694v35h682v-35l-309 -694h-62zM604 287l165 372h-540l164 -372l104 -243h5z" />
    <glyph glyph-name="element" unicode="&#x2208;" horiz-adv-x="1000" 
d="M872 647h-408q-59 0 -109.5 -19t-88.5 -52.5t-61 -79t-27 -98.5h694v-49h-694q4 -53 27 -98.5t61 -79t88.5 -52.5t109.5 -19h408v-49h-408q-72 0 -134 25t-107 68.5t-70.5 102.5t-25.5 126q0 68 25.5 127t70.5 102.5t107 68.5t134 25h408v-49z" />
    <glyph glyph-name="suchthat" unicode="&#x220b;" horiz-adv-x="1000" 
d="M536 647h-408v49h408q72 0 134 -25t107 -68.5t70.5 -102.5t25.5 -127q0 -67 -25.5 -126t-70.5 -102.5t-107 -68.5t-134 -25h-408v49h408q59 0 109.5 19t88 52.5t60.5 79t28 98.5h-694v49h694q-5 53 -28 98.5t-60.5 79t-88 52.5t-109.5 19z" />
    <glyph glyph-name="product" unicode="&#x220f;" horiz-adv-x="1000" 
d="M221 -133v841h559v-841h-63v788h-436v-788h-60z" />
    <glyph glyph-name="summation" unicode="&#x2211;" horiz-adv-x="1000" 
d="M288 53v-4h510v-49h-596v37l311 322l-293 325v38h537v-48h-453v-4l278 -311z" />
    <glyph glyph-name="radical" unicode="&#x221a;" horiz-adv-x="1000" 
d="M564 880h436v-38h-409l-321 -924h-30l-106 281l-71 -101l-25 18l131 186l101 -267z" />
    <glyph glyph-name="proportional" unicode="&#x221d;" horiz-adv-x="1000" 
d="M530 373q46 -64 103 -104t129 -40q39 0 69 9l18 -46q-36 -13 -88 -13q-43 0 -81 12.5t-70.5 33.5t-60 49t-49.5 59q-23 -31 -50.5 -59t-60 -49t-70 -33.5t-81.5 -12.5q-36 0 -71.5 12.5t-64 36.5t-46.5 60.5t-18 84.5t18 84.5t46.5 61t64 36.5t71.5 12q44 0 81.5 -12
t70 -33t60 -48.5t50.5 -59.5q22 32 49.5 59.5t60 48.5t70.5 33t81 12q23 0 45.5 -2.5t42.5 -9.5l-18 -46q-30 9 -69 9q-72 0 -129 -39.5t-103 -105.5zM87 373q0 -35 13 -62t34 -45t48.5 -27.5t55.5 -9.5q72 0 128.5 40t102.5 104q-46 66 -102.5 105.5t-128.5 39.5
q-28 0 -55.5 -9.5t-48.5 -28t-34 -45.5t-13 -62z" />
    <glyph glyph-name="infinity" unicode="&#x221e;" horiz-adv-x="1000" 
d="M500 414q23 31 50.5 59t60 49t70 33t80.5 12q36 0 71.5 -12t64.5 -36.5t47 -61t18 -84.5t-18 -84.5t-47 -60.5t-64.5 -36.5t-71.5 -12.5q-43 0 -80.5 12.5t-70 33.5t-60 48.5t-50.5 58.5q-23 -31 -50.5 -58.5t-60 -48.5t-70.5 -33.5t-81 -12.5q-36 0 -71.5 12.5t-64 36.5
t-46.5 60.5t-18 84.5t18 84.5t46.5 61t64 36.5t71.5 12q44 0 81.5 -12t70 -33t60 -48.5t50.5 -59.5zM87 373q0 -35 13 -62t34 -45t48.5 -27.5t55.5 -9.5q72 0 128.5 40t102.5 104q-46 66 -102.5 105.5t-128.5 39.5q-28 0 -55.5 -9.5t-48.5 -28t-34 -45.5t-13 -62zM530 373
q46 -64 103 -104t129 -40q28 0 55 9.5t48 27.5t34 45t13 62t-13 62t-34 45.5t-48 28t-55 9.5q-72 0 -129 -39.5t-103 -105.5z" />
    <glyph glyph-name="angle" unicode="&#x2220;" horiz-adv-x="1000" 
d="M222 78v-3h653v-49h-770v4l667 667l34 -35z" />
    <glyph glyph-name="logicaland" unicode="&#x2227;" horiz-adv-x="1000" 
d="M114 14l384 752h4l384 -752l-44 -22l-341 671h-2l-341 -671z" />
    <glyph glyph-name="logicalor" unicode="&#x2228;" horiz-adv-x="1000" 
d="M886 733l-384 -752h-4l-384 752l44 22l341 -671h2l341 671z" />
    <glyph glyph-name="intersection" unicode="&#x2229;" horiz-adv-x="1000" 
d="M177 2v408q0 72 25 133.5t68.5 107t102.5 71t127 25.5t127 -25.5t102.5 -71t68.5 -107t25 -133.5v-408h-50v408q0 62 -21 114.5t-57.5 91t-86.5 60t-108 21.5t-108 -21.5t-86.5 -60t-57.5 -91t-21 -114.5v-408h-50z" />
    <glyph glyph-name="union" unicode="&#x222a;" horiz-adv-x="1000" 
d="M823 745v-408q0 -72 -25 -134t-68.5 -107t-102.5 -70.5t-127 -25.5t-127 25.5t-102.5 70.5t-68.5 107t-25 134v408h50v-408q0 -61 21 -114t57.5 -91.5t86.5 -60.5t108 -22t108 22t86.5 60.5t57.5 91.5t21 114v408h50z" />
    <glyph glyph-name="integral" unicode="&#x222b;" horiz-adv-x="1000" 
d="M473 152v458q0 74 16 119.5t40.5 70.5t54.5 33.5t58 8.5q20 0 35 -3l-4 -48q-13 3 -28 3q-18 0 -38.5 -4.5t-38.5 -23.5t-29.5 -56t-11.5 -102v-458q0 -74 -16 -119.5t-40.5 -70.5t-54.5 -33.5t-58 -8.5q-20 0 -35 3l4 48q14 -3 28 -3q18 0 38.5 4.5t38.5 23.5t29.5 56
t11.5 102z" />
    <glyph glyph-name="uni222C" unicode="&#x222c;" horiz-adv-x="1000" 
d="M281 152v458q0 74 16 119.5t40.5 70.5t55 33.5t58.5 8.5q19 0 35 -3l-5 -48q-12 3 -28 3q-18 0 -38.5 -4.5t-38 -23.5t-29 -56t-11.5 -102v-458q0 -74 -16 -119.5t-41 -70.5t-55 -33.5t-58 -8.5q-20 0 -35 3l5 48q12 -3 28 -3q18 0 38.5 4.5t38 23.5t29 56t11.5 102z
M664 152v458q0 74 16 119.5t41 70.5t55 33.5t58 8.5q20 0 35 -3l-5 -48q-12 3 -28 3q-18 0 -38.5 -4.5t-38 -23.5t-29 -56t-11.5 -102v-458q0 -74 -16 -119.5t-40.5 -70.5t-54.5 -33.5t-59 -8.5q-18 0 -35 3l5 48q12 -3 28 -3q18 0 38.5 4.5t38 23.5t29 56t11.5 102z" />
    <glyph glyph-name="uni222E" unicode="&#x222e;" horiz-adv-x="1000" 
d="M473 150v76q-28 4 -51.5 18t-41 34.5t-27.5 47t-10 54.5q0 29 10 55t27.5 46.5t41 34t51.5 18.5v76q0 74 16 119.5t40.5 70.5t54.5 33.5t58 8.5q20 0 35 -3l-4 -48q-13 3 -28 3q-18 0 -38.5 -4.5t-38.5 -23t-29.5 -55t-11.5 -101.5v-76q28 -5 51.5 -18.5t41 -34
t27.5 -46.5t10 -55q0 -28 -10 -54.5t-27.5 -47t-41 -34.5t-51.5 -18v-76q0 -74 -16 -119.5t-40.5 -70.5t-54.5 -33.5t-58 -8.5q-20 0 -35 3l4 48q14 -3 28 -3q18 0 38.5 4.5t38.5 23t29.5 55.5t11.5 101zM473 259v242q-42 -8 -70.5 -42t-28.5 -79t28.5 -79t70.5 -42z
M527 501v-242q42 8 70.5 42t28.5 79t-28.5 79t-70.5 42z" />
    <glyph glyph-name="therefore" unicode="&#x2234;" horiz-adv-x="1000" 
d="M436 616q0 26 19 45t45 19t45 -19t19 -45t-19 -45t-45 -19t-45 19t-19 45zM160 131q0 26 19 45t45 19t45 -19t19 -45t-19 -45t-45 -19t-45 19t-19 45zM713 131q0 26 18.5 45t45.5 19q26 0 45 -19t19 -45t-19 -45t-45 -19q-27 0 -45.5 19t-18.5 45z" />
    <glyph glyph-name="uni2235" unicode="&#x2235;" horiz-adv-x="1000" 
d="M160 616q0 26 19 45t45 19t45 -19t19 -45t-19 -45t-45 -19t-45 19t-19 45zM713 616q0 26 18.5 45t45.5 19q26 0 45 -19t19 -45t-19 -45t-45 -19q-27 0 -45.5 19t-18.5 45zM436 131q0 26 19 45t45 19t45 -19t19 -45t-19 -45t-45 -19t-45 19t-19 45z" />
    <glyph glyph-name="uni2236" unicode="&#x2236;" horiz-adv-x="1000" 
d="M436 616q0 26 19 45t45 19t45 -19t19 -45t-19 -45t-45 -19t-45 19t-19 45zM436 131q0 26 19 45t45 19t45 -19t19 -45t-19 -45t-45 -19t-45 19t-19 45z" />
    <glyph glyph-name="uni223D" unicode="&#x223d;" horiz-adv-x="1000" 
d="M482 391q24 34 53 66t63 56.5t74.5 39t88.5 14.5q36 0 71.5 -12t64.5 -36.5t47 -61t18 -84.5t-18 -84.5t-47 -60.5t-65 -36.5t-72 -12.5q-50 0 -88 13l18 46q32 -9 71 -9q29 0 56 9.5t48 27.5t34 45t13 62t-13 62t-34 45.5t-48 28t-55 9.5q-77 0 -137.5 -46t-107.5 -117
q-24 -34 -53 -66t-63 -56.5t-74.5 -39t-88.5 -14.5q-36 0 -71.5 12.5t-64 36.5t-46.5 60.5t-18 84.5t18 84.5t46.5 61t64.5 36.5t72 12q23 0 45.5 -2.5t42.5 -9.5l-18 -46q-30 9 -71 9q-28 0 -55.5 -9.5t-48.5 -28t-34 -45.5t-13 -62t13 -62t34 -45t48.5 -27.5t55.5 -9.5
q77 0 136 46t108 116z" />
    <glyph glyph-name="uni2252" unicode="&#x2252;" horiz-adv-x="1000" 
d="M252 664q0 26 19 44.5t45 18.5t45 -18.5t19 -44.5q0 -27 -19 -45.5t-45 -18.5t-45 18.5t-19 45.5zM132 498h736v-46h-736v46zM132 295h736v-46h-736v46zM620 83q0 27 19 45.5t45 18.5t45 -18.5t19 -45.5q0 -26 -19 -45t-45 -19t-45 19t-19 45z" />
    <glyph glyph-name="notequal" unicode="&#x2260;" horiz-adv-x="1000" 
d="M868 448h-315l-56 -155h371v-49h-388l-82 -225l-47 17l75 208h-294v49h312l57 155h-369v49h387l83 231l47 -17l-78 -214h297v-49z" />
    <glyph glyph-name="equivalence" unicode="&#x2261;" horiz-adv-x="1000" 
d="M132 612h736v-48h-736v48zM132 397h736v-47h-736v47zM132 182h736v-47h-736v47z" />
    <glyph glyph-name="lessequal" unicode="&#x2264;" horiz-adv-x="1000" 
d="M237 480v-4l636 -257l-19 -45l-749 302v4l749 303l19 -46zM128 82h744v-48h-744v48z" />
    <glyph glyph-name="greaterequal" unicode="&#x2265;" horiz-adv-x="1000" 
d="M127 219l636 257v4l-636 257l19 46l749 -303v-4l-749 -302zM128 34v48h744v-48h-744z" />
    <glyph glyph-name="uni226A" unicode="&#x226a;" horiz-adv-x="1000" 
d="M620 759l25 -37l-498 -347v-4l498 -346l-25 -38l-552 384v4zM905 759l26 -37l-499 -347v-4l499 -346l-26 -38l-552 384v4z" />
    <glyph glyph-name="uni226B" unicode="&#x226b;" horiz-adv-x="1000" 
d="M95 759l552 -384v-4l-552 -384l-26 38l499 346v4l-499 347zM380 759l552 -384v-4l-552 -384l-25 38l498 346v4l-498 347z" />
    <glyph glyph-name="propersubset" unicode="&#x2282;" horiz-adv-x="1000" 
d="M872 51h-408q-72 0 -134 25t-107 68.5t-70.5 102.5t-25.5 126q0 68 25.5 127t70.5 102.5t107 68.5t134 25h408v-49h-408q-62 0 -115 -21t-91.5 -58t-60 -87t-21.5 -108q0 -57 21.5 -107t60 -87t91.5 -58t115 -21h408v-49z" />
    <glyph glyph-name="propersuperset" unicode="&#x2283;" horiz-adv-x="1000" 
d="M128 696h408q72 0 134 -25t107 -68.5t70.5 -102.5t25.5 -127q0 -67 -25.5 -126t-70.5 -102.5t-107 -68.5t-134 -25h-408v49h408q62 0 115 21t91.5 58t60 87t21.5 107q0 58 -21.5 108t-60 87t-91.5 58t-115 21h-408v49z" />
    <glyph glyph-name="reflexsubset" unicode="&#x2286;" horiz-adv-x="1000" 
d="M872 710h-461q-59 0 -103 -17.5t-73.5 -47t-44 -67t-14.5 -77.5t14.5 -77.5t44 -67t73.5 -47t103 -17.5h461v-49h-462q-69 0 -122 21.5t-88.5 57.5t-54 82.5t-18.5 96.5t18.5 96.5t54 82.5t88.5 57.5t122 21.5h462v-49zM128 37h744v-50h-744v50z" />
    <glyph glyph-name="reflexsuperset" unicode="&#x2287;" horiz-adv-x="1000" 
d="M128 292h462q59 0 103 17.5t73 47t43.5 67t14.5 77.5t-14.5 77.5t-43.5 67t-73 47t-103 17.5h-462v49h462q69 0 122 -21.5t88.5 -57.5t54 -82.5t18.5 -96.5t-18.5 -96.5t-54 -82.5t-88.5 -57.5t-122 -21.5h-462v49zM128 37h744v-50h-744v50z" />
    <glyph glyph-name="uni2299" unicode="&#x2299;" horiz-adv-x="1000" 
d="M500 10q-76 0 -143.5 29t-118 79.5t-79.5 118t-29 143.5q0 77 29 144t79.5 117.5t118 79.5t143.5 29q77 0 144 -29t117.5 -79.5t79.5 -117.5t29 -144q0 -76 -29 -143.5t-79.5 -118t-117.5 -79.5t-144 -29zM179 380q0 -66 25.5 -124.5t69 -102t102 -69t124.5 -25.5
t124.5 25.5t102 69t69 102t25.5 124.5t-25.5 124.5t-69 102t-102 69t-124.5 25.5t-124.5 -25.5t-102 -69t-69 -102t-25.5 -124.5zM553 380q0 -23 -15.5 -38t-37.5 -15q-23 0 -38 15t-15 38q0 22 15 37.5t38 15.5q22 0 37.5 -15.5t15.5 -37.5z" />
    <glyph glyph-name="uni22A5" unicode="&#x22a5;" horiz-adv-x="1000" 
d="M525 89h364v-49h-778v49h364v652h50v-652z" />
    <glyph glyph-name="uni2312" unicode="&#x2312;" horiz-adv-x="1000" 
d="M51 602l-24 39q100 97 215.5 148.5t257.5 51.5t257.5 -51.5t215.5 -148.5l-24 -39q-97 94 -208 142.5t-241 48.5t-241 -48.5t-208 -142.5z" />
    <glyph glyph-name="uni2460" unicode="&#x2460;" horiz-adv-x="1000" 
d="M500 -82q-96 0 -180 36.5t-146.5 99t-99 146.5t-36.5 180t36.5 180t99 146.5t146.5 99t180 36.5t180 -36.5t146.5 -99t99 -146.5t36.5 -180t-36.5 -180.5t-99.5 -147t-147 -98.5t-179 -36zM500 -54q90 0 169 34t138 93t93 138t34 169t-34 169t-93 138t-138 93t-169 34
q-91 0 -170 -34.5t-137.5 -93.5t-92.5 -138t-34 -168q0 -90 34 -169t93 -138t138 -93t169 -34zM492 129v442h-105v37q37 6 65 15t51 20h44v-514h-55z" />
    <glyph glyph-name="uni2461" unicode="&#x2461;" horiz-adv-x="1000" 
d="M500 -82q-96 0 -180 36.5t-146.5 99t-99 146.5t-36.5 180t36.5 180t99 146.5t146.5 99t180 36.5t180 -36.5t146.5 -99t99 -146.5t36.5 -180t-36.5 -180.5t-99.5 -147t-147 -98.5t-179 -36zM500 -54q90 0 169 34t138 93t93 138t34 169t-34 169t-93 138t-138 93t-169 34
q-91 0 -170 -34.5t-137.5 -93.5t-92.5 -138t-34 -168q0 -90 34 -169t93 -138t138 -93t169 -34zM332 129v34q68 60 119.5 108.5t86 89.5t52 76t17.5 67q0 48 -28 77t-88 29q-38 0 -71 -18.5t-58 -44.5l-34 30q35 37 76 57.5t92 20.5q78 0 122.5 -39.5t44.5 -108.5
q0 -37 -18 -74.5t-51 -78t-78.5 -85t-100.5 -95.5q23 2 49 3t55 1h169v-49h-356z" />
    <glyph glyph-name="uni2462" unicode="&#x2462;" horiz-adv-x="1000" 
d="M500 -82q-96 0 -180 36.5t-146.5 99t-99 146.5t-36.5 180t36.5 180t99 146.5t146.5 99t180 36.5t180 -36.5t146.5 -99t99 -146.5t36.5 -180t-36.5 -180.5t-99.5 -147t-147 -98.5t-179 -36zM500 -54q90 0 169 34t138 93t93 138t34 169t-34 169t-93 138t-138 93t-169 34
q-91 0 -170 -34.5t-137.5 -93.5t-92.5 -138t-34 -168q0 -90 34 -169t93 -138t138 -93t169 -34zM498 117q-69 0 -113.5 22.5t-72.5 51.5l30 37q26 -26 62 -45t93 -19q55 0 90 27.5t35 75.5q0 49 -44 79t-149 30v44q48 0 81 8t53.5 21.5t29.5 32t9 40.5q0 42 -28.5 65
t-79.5 23q-37 0 -70 -14.5t-59 -40.5l-30 36q31 28 70 46t91 18q35 0 64.5 -8.5t51.5 -25t34 -40.5t12 -56q0 -48 -30 -78t-75 -45v-3q26 -6 49 -17.5t40.5 -28t27.5 -39t10 -49.5q0 -34 -14 -61t-38.5 -46.5t-58 -30t-71.5 -10.5z" />
    <glyph glyph-name="uni2463" unicode="&#x2463;" horiz-adv-x="1000" 
d="M500 842q96 0 180 -36.5t146.5 -99t99 -146.5t36.5 -180t-36.5 -180.5t-99.5 -147t-147 -98.5t-179 -36q-96 0 -180 36.5t-146.5 99t-99 146.5t-36.5 180t36.5 180t99 146.5t146.5 99t180 36.5zM500 -54q90 0 169 34t138 93t93 138t34 169t-34 169t-93 138t-138 93
t-169 34q-91 0 -170 -34.5t-137.5 -93.5t-92.5 -138t-34 -168q0 -90 34 -169t93 -138t138 -93t169 -34zM592 643v-322h83v-45h-83v-147h-53v147h-260v36l255 331h58zM342 321h197v162q0 18 0.5 47t2.5 49h-4q-11 -19 -21.5 -33t-24.5 -34z" />
    <glyph glyph-name="uni2464" unicode="&#x2464;" horiz-adv-x="1000" 
d="M500 -82q-96 0 -180 36.5t-146.5 99t-99 146.5t-36.5 180t36.5 180t99 146.5t146.5 99t180 36.5t180 -36.5t146.5 -99t99 -146.5t36.5 -180t-36.5 -180.5t-99.5 -147t-147 -98.5t-179 -36zM500 -54q90 0 169 34t138 93t93 138t34 169t-34 169t-93 138t-138 93t-169 34
q-91 0 -170 -34.5t-137.5 -93.5t-92.5 -138t-34 -168q0 -90 34 -169t93 -138t138 -93t169 -34zM500 117q-68 0 -110.5 22.5t-70.5 47.5l28 38q24 -24 59.5 -42.5t91.5 -18.5q27 0 50.5 9t41.5 25.5t28.5 40t10.5 51.5q0 57 -34.5 89t-94.5 32q-32 0 -55.5 -9.5t-47.5 -25.5
l-33 20l20 247h273v-48h-226l-15 -167q20 11 43.5 18.5t51.5 7.5q36 0 68 -10t56 -30t38 -50.5t14 -72.5t-16 -74t-42.5 -54.5t-60 -34t-68.5 -11.5z" />
    <glyph glyph-name="uni2465" unicode="&#x2465;" horiz-adv-x="1000" 
d="M500 842q96 0 180 -36.5t146.5 -99t99 -146.5t36.5 -180t-36.5 -180.5t-99.5 -147t-147 -98.5t-179 -36q-96 0 -180 36.5t-146.5 99t-99 146.5t-36.5 180t36.5 180t99 146.5t146.5 99t180 36.5zM500 -54q90 0 169 34t138 93t93 138t34 169t-34 169t-93 138t-138 93
t-169 34q-91 0 -170 -34.5t-137.5 -93.5t-92.5 -138t-34 -168q0 -90 34 -169t93 -138t138 -93t169 -34zM654 602l-31 -36q-42 42 -101 42q-32 0 -61 -12t-51.5 -39.5t-36 -72t-14.5 -110.5q29 32 66.5 50.5t79.5 18.5q75 0 118.5 -41t43.5 -120q0 -37 -13.5 -67.5t-36 -52
t-52.5 -33.5t-64 -12q-43 0 -79.5 15.5t-62.5 46.5t-40.5 77.5t-14.5 107.5q0 80 18 135t48 90t70 50.5t83 15.5q45 0 76.5 -15t54.5 -38zM502 163q23 0 43 9t35 24.5t23.5 37t8.5 46.5q0 54 -28 86.5t-91 32.5q-29 0 -64 -16.5t-69 -55.5q7 -79 41.5 -121.5t100.5 -42.5z
" />
    <glyph glyph-name="uni2466" unicode="&#x2466;" horiz-adv-x="1000" 
d="M500 -82q-96 0 -180 36.5t-146.5 99t-99 146.5t-36.5 180t36.5 180t99 146.5t146.5 99t180 36.5t180 -36.5t146.5 -99t99 -146.5t36.5 -180t-36.5 -180.5t-99.5 -147t-147 -98.5t-179 -36zM500 -54q90 0 169 34t138 93t93 138t34 169t-34 169t-93 138t-138 93t-169 34
q-91 0 -170 -34.5t-137.5 -93.5t-92.5 -138t-34 -168q0 -90 34 -169t93 -138t138 -93t169 -34zM499 129h-59q4 75 14.5 137t30 117.5t49.5 107t72 104.5h-282v48h350v-33q-50 -59 -82.5 -113.5t-52 -111t-28.5 -119t-12 -137.5z" />
    <glyph glyph-name="uni2467" unicode="&#x2467;" horiz-adv-x="1000" 
d="M500 -82q-96 0 -180 36.5t-146.5 99t-99 146.5t-36.5 180t36.5 180t99 146.5t146.5 99t180 36.5t180 -36.5t146.5 -99t99 -146.5t36.5 -180t-36.5 -180.5t-99.5 -147t-147 -98.5t-179 -36zM500 -54q90 0 169 34t138 93t93 138t34 169t-34 169t-93 138t-138 93t-169 34
q-91 0 -170 -34.5t-137.5 -93.5t-92.5 -138t-34 -168q0 -90 34 -169t93 -138t138 -93t169 -34zM502 117q-41 0 -75.5 11t-59 30t-38.5 44.5t-14 55.5q0 27 10 49t26 40t36 31.5t40 23.5v4q-32 18 -57.5 48t-25.5 70q0 29 12.5 53t33.5 41.5t50 27t62 9.5q76 0 118.5 -38
t42.5 -98q0 -21 -7.5 -40.5t-19.5 -36.5t-26 -30t-28 -22v-3q19 -10 37 -22t32.5 -28t23 -36t8.5 -46q0 -28 -13 -53.5t-37 -44t-57 -29.5t-74 -11zM542 405q33 24 52 52t19 59q0 40 -29 68.5t-83 28.5q-48 0 -76 -23.5t-28 -65.5q0 -25 12 -43t32.5 -32t46.5 -24.5
t54 -19.5zM503 161q57 0 91.5 26.5t34.5 69.5q0 27 -13.5 46t-36 33.5t-52.5 25.5t-63 23q-40 -21 -68.5 -50.5t-28.5 -69.5q0 -22 10.5 -41.5t28.5 -33t43 -21.5t54 -8z" />
    <glyph glyph-name="uni2468" unicode="&#x2468;" horiz-adv-x="1000" 
d="M500 842q96 0 180 -36.5t146.5 -99t99 -146.5t36.5 -180t-36.5 -180.5t-99.5 -147t-147 -98.5t-179 -36q-96 0 -180 36.5t-146.5 99t-99 146.5t-36.5 180t36.5 180t99 146.5t146.5 99t180 36.5zM500 -54q90 0 169 34t138 93t93 138t34 169t-34 169t-93 138t-138 93
t-169 34q-91 0 -170 -34.5t-137.5 -93.5t-92.5 -138t-34 -168q0 -90 34 -169t93 -138t138 -93t169 -34zM345 169l31 36q40 -40 100 -40q32 0 61 12t50.5 39.5t35 72t14.5 108.5q-29 -30 -65.5 -48.5t-76.5 -18.5q-75 0 -118.5 40.5t-43.5 121.5q0 36 13 66t35.5 51.5
t52.5 33.5t63 12q87 0 141.5 -62t54.5 -185q0 -79 -18 -134.5t-48 -90.5t-69 -50.5t-81 -15.5q-45 0 -77 14.5t-55 37.5zM505 373q29 0 64 16.5t67 54.5q-6 78 -40 122t-100 44q-46 0 -77 -33.5t-31 -85.5q0 -54 28 -86t89 -32z" />
    <glyph glyph-name="uni2469" unicode="&#x2469;" horiz-adv-x="1000" 
d="M500 -82q-96 0 -180 36.5t-146.5 99t-99 146.5t-36.5 180t36.5 180t99 146.5t146.5 99t180 36.5t180 -36.5t146.5 -99t99 -146.5t36.5 -180t-36.5 -180.5t-99.5 -147t-147 -98.5t-179 -36zM500 -54q90 0 169 34t138 93t93 138t34 169t-34 169t-93 138t-138 93t-169 34
q-91 0 -170 -34.5t-137.5 -93.5t-92.5 -138t-34 -168q0 -90 34 -169t93 -138t138 -93t169 -34zM618 117q-36 0 -64.5 19t-48.5 54t-30.5 85t-10.5 113q0 128 41 197.5t113 69.5t113 -69.5t41 -197.5q0 -63 -10.5 -113t-30.5 -85t-48.5 -54t-64.5 -19zM304 129v442h-83v37
q31 6 54 15t41 20h42v-514h-54zM618 165q45 0 72 55.5t27 167.5t-27 166.5t-72 54.5t-72 -54.5t-27 -166.5t27 -167.5t72 -55.5z" />
    <glyph glyph-name="uni246A" unicode="&#x246a;" horiz-adv-x="1000" 
d="M500 -82q-96 0 -180 36.5t-146.5 99t-99 146.5t-36.5 180t36.5 180t99 146.5t146.5 99t180 36.5t180 -36.5t146.5 -99t99 -146.5t36.5 -180t-36.5 -180.5t-99.5 -147t-147 -98.5t-179 -36zM500 -54q90 0 169 34t138 93t93 138t34 169t-34 169t-93 138t-138 93t-169 34
q-91 0 -170 -34.5t-137.5 -93.5t-92.5 -138t-34 -168q0 -90 34 -169t93 -138t138 -93t169 -34zM354 129v442h-83v37q30 6 53 15t42 20h42v-514h-54zM616 129v442h-83v37q31 6 53.5 15t40.5 20h42v-514h-53z" />
    <glyph glyph-name="uni246B" unicode="&#x246b;" horiz-adv-x="1000" 
d="M500 -82q-96 0 -180 36.5t-146.5 99t-99 146.5t-36.5 180t36.5 180t99 146.5t146.5 99t180 36.5t180 -36.5t146.5 -99t99 -146.5t36.5 -180t-36.5 -180.5t-99.5 -147t-147 -98.5t-179 -36zM500 -54q90 0 169 34t138 93t93 138t34 169t-34 169t-93 138t-138 93t-169 34
q-91 0 -170 -34.5t-137.5 -93.5t-92.5 -138t-34 -168q0 -90 34 -169t93 -138t138 -93t169 -34zM472 129v34q53 60 93.5 108.5t68 89.5t41.5 76t14 67q0 48 -22 77t-67 29q-30 0 -54.5 -17.5t-43.5 -42.5l-33 28q28 36 61 56.5t75 20.5q63 0 99.5 -39.5t36.5 -108.5
q0 -37 -14 -74.5t-39.5 -78t-60 -85t-76.5 -95.5q17 2 38 3t43 1h128v-49h-288zM305 129v442h-83v37q30 6 52.5 15t41.5 20h42v-514h-53z" />
    <glyph glyph-name="uni246C" unicode="&#x246c;" horiz-adv-x="1000" 
d="M500 -82q-96 0 -180 36.5t-146.5 99t-99 146.5t-36.5 180t36.5 180t99 146.5t146.5 99t180 36.5t180 -36.5t146.5 -99t99 -146.5t36.5 -180t-36.5 -180.5t-99.5 -147t-147 -98.5t-179 -36zM500 -54q90 0 169 34t138 93t93 138t34 169t-34 169t-93 138t-138 93t-169 34
q-91 0 -170 -34.5t-137.5 -93.5t-92.5 -138t-34 -168q0 -90 34 -169t93 -138t138 -93t169 -34zM607 117q-54 0 -90 22.5t-58 50.5l31 34q23 -25 49.5 -42.5t68.5 -17.5t68 27.5t26 75.5q0 49 -33 79t-116 30v44q74 0 104 28.5t30 73.5q0 42 -22 65t-60 23q-26 0 -51.5 -12.5
t-45.5 -37.5l-32 32q26 28 57.5 45.5t73.5 17.5q60 0 97 -33.5t37 -96.5q0 -48 -24 -78t-59 -45v-3q42 -12 71 -45.5t29 -88.5q0 -34 -12 -61t-32 -46.5t-47.5 -30t-59.5 -10.5zM305 129v442h-83v37q30 6 52.5 15t41.5 20h43v-514h-54z" />
    <glyph glyph-name="uni246D" unicode="&#x246d;" horiz-adv-x="1000" 
d="M500 842q96 0 180 -36.5t146.5 -99t99 -146.5t36.5 -180t-36.5 -180.5t-99.5 -147t-147 -98.5t-179 -36q-96 0 -180 36.5t-146.5 99t-99 146.5t-36.5 180t36.5 180t99 146.5t146.5 99t180 36.5zM500 -54q90 0 169 34t138 93t93 138t34 169t-34 169t-93 138t-138 93
t-169 34q-91 0 -170 -34.5t-137.5 -93.5t-92.5 -138t-34 -168q0 -90 34 -169t93 -138t138 -93t169 -34zM222 571v37q30 6 52.5 15t41.5 20h42v-514h-53v442h-83zM707 643v-322h63v-45h-63v-147h-51v147h-206v36l198 331h59zM507 321h149v162q0 19 0.5 47.5t1.5 48.5h-3
q-9 -19 -17 -33t-19 -34z" />
    <glyph glyph-name="uni246E" unicode="&#x246e;" horiz-adv-x="1000" 
d="M500 -82q-96 0 -180 36.5t-146.5 99t-99 146.5t-36.5 180t36.5 180t99 146.5t146.5 99t180 36.5t180 -36.5t146.5 -99t99 -146.5t36.5 -180t-36.5 -180.5t-99.5 -147t-147 -98.5t-179 -36zM500 -54q90 0 169 34t138 93t93 138t34 169t-34 169t-93 138t-138 93t-169 34
q-91 0 -170 -34.5t-137.5 -93.5t-92.5 -138t-34 -168q0 -90 34 -169t93 -138t138 -93t169 -34zM305 129v442h-83v37q30 6 52.5 15t41.5 20h42v-514h-53zM613 117q-55 0 -89.5 22t-58.5 48l27 37q20 -23 47 -41.5t72 -18.5q42 0 70.5 34t28.5 92q0 57 -26.5 89t-71.5 32
q-24 0 -42.5 -9.5t-38.5 -25.5l-29 20l15 247h225v-48h-180l-10 -167q16 11 33.5 18.5t38.5 7.5q29 0 54.5 -10t45 -30t31 -50.5t11.5 -72.5t-13 -74t-34.5 -54.5t-49 -34t-56.5 -11.5z" />
    <glyph glyph-name="uni2474" unicode="&#x2474;" horiz-adv-x="1000" 
d="M194 -54l-33 -12q-66 99 -96 206.5t-30 239.5q0 131 30 239t96 207l33 -12q-63 -94 -89 -205t-26 -229q1 -118 26.5 -229t88.5 -205zM839 -66l-33 12q63 94 88.5 205t26.5 229q0 118 -26 229t-89 205l33 12q66 -99 96 -207t30 -239q0 -132 -30 -239.5t-96 -206.5zM332 17
v50h162v572h-125v40q45 7 78 18.5t59 27.5h46v-658h150v-50h-370z" />
    <glyph glyph-name="uni2475" unicode="&#x2475;" horiz-adv-x="1000" 
d="M194 -54l-33 -12q-66 99 -96 206.5t-30 239.5q0 131 30 239t96 207l33 -12q-63 -94 -89 -205t-26 -229q1 -118 26.5 -229t88.5 -205zM839 -66l-33 12q63 94 88.5 205t26.5 229q0 118 -26 229t-89 205l33 12q66 -99 96 -207t30 -239q0 -132 -30 -239.5t-96 -206.5zM305 17
v35q82 85 145 154t106 127t65 107.5t22 94.5q0 32 -8.5 59.5t-26 48t-45 32t-65.5 11.5q-48 0 -89.5 -24t-70.5 -63l-38 34q38 48 88 76t116 28q97 0 147.5 -53t50.5 -147q0 -52 -23 -105.5t-64 -111.5t-98 -121.5t-125 -135.5q29 2 58.5 3.5t58.5 1.5h229v-51h-433z" />
    <glyph glyph-name="uni2476" unicode="&#x2476;" horiz-adv-x="1000" 
d="M194 -54l-33 -12q-66 99 -96 206.5t-30 239.5q0 131 30 239t96 207l33 -12q-63 -94 -89 -205t-26 -229q1 -118 26.5 -229t88.5 -205zM839 -66l-33 12q63 94 88.5 205t26.5 229q0 118 -26 229t-89 205l33 12q66 -99 96 -207t30 -239q0 -132 -30 -239.5t-96 -206.5zM502 4
q-40 0 -73.5 8.5t-61 22.5t-49 32t-36.5 36l33 39q29 -36 75 -61t109 -25q33 0 62 10.5t50.5 29.5t34 46.5t12.5 61.5q0 73 -55.5 115.5t-180.5 42.5v49q57 0 97 12t65.5 32.5t37.5 47.5t12 57q0 60 -37 93t-97 33q-45 0 -85.5 -19.5t-68.5 -53.5l-35 37q35 38 83.5 62.5
t106.5 24.5q42 0 77.5 -11.5t61 -33t40 -53.5t14.5 -73q0 -69 -36.5 -111t-100.5 -63v-4q72 -17 116.5 -63t44.5 -122q0 -46 -16.5 -83t-46 -62.5t-69 -39.5t-84.5 -14z" />
    <glyph glyph-name="uni2477" unicode="&#x2477;" horiz-adv-x="1000" 
d="M161 826l33 -12q-63 -94 -89 -205t-26 -229q1 -118 26.5 -229t88.5 -205l-33 -12q-66 99 -96 206.5t-30 239.5q0 131 30 239t96 207zM806 814l33 12q66 -99 96 -207t30 -239q0 -132 -30 -239.5t-96 -206.5l-33 12q63 94 88.5 205t26.5 229q0 118 -26 229t-89 205z
M627 725v-451h100v-49h-100v-208h-57v208h-314v37l308 463h63zM322 274h248v264q0 27 0.5 53t2.5 60h-5q-16 -26 -28.5 -48t-29.5 -48z" />
    <glyph glyph-name="uni2478" unicode="&#x2478;" horiz-adv-x="1000" 
d="M194 -54l-33 -12q-66 99 -96 206.5t-30 239.5q0 131 30 239t96 207l33 -12q-63 -94 -89 -205t-26 -229q1 -118 26.5 -229t88.5 -205zM839 -66l-33 12q63 94 88.5 205t26.5 229q0 118 -26 229t-89 205l33 12q66 -99 96 -207t30 -239q0 -132 -30 -239.5t-96 -206.5zM487 3
q-40 0 -73 8t-59 21.5t-46.5 30.5t-36.5 35l33 40q29 -34 71 -59t108 -25q35 0 66 13.5t54.5 37.5t37.5 58t14 75q0 81 -45 129t-119 48q-39 0 -67 -12t-57 -35l-38 22l25 335h328v-52h-276l-23 -246q27 18 55 27t67 9q43 0 81 -13t67 -40.5t46 -69.5t17 -100
q0 -57 -19.5 -101t-51.5 -74.5t-73.5 -46t-85.5 -15.5z" />
    <glyph glyph-name="uni2479" unicode="&#x2479;" horiz-adv-x="1000" 
d="M161 826l33 -12q-63 -94 -89 -205t-26 -229q1 -118 26.5 -229t88.5 -205l-33 -12q-66 99 -96 206.5t-30 239.5q0 131 30 239t96 207zM806 814l33 12q66 -99 96 -207t30 -239q0 -132 -30 -239.5t-96 -206.5l-33 12q63 94 88.5 205t26.5 229q0 118 -26 229t-89 205z
M706 667l-36 -38q-23 30 -57 43.5t-71 13.5t-71.5 -17.5t-61 -57t-42.5 -104t-17 -158.5q34 45 81 70.5t95 25.5q88 0 140 -55.5t52 -164.5q0 -49 -16 -89.5t-43.5 -70t-63.5 -45.5t-76 -16q-49 0 -91 22t-72 64t-47 104.5t-17 143.5q0 111 20.5 187t54.5 123t79 68t94 21
q55 0 96 -18.5t70 -51.5zM519 54q30 0 56 13t45 36t29.5 54t10.5 68q0 85 -35.5 128t-107.5 43q-36 0 -81 -22.5t-85 -80.5q8 -112 50.5 -175.5t117.5 -63.5z" />
    <glyph glyph-name="uni247A" unicode="&#x247a;" horiz-adv-x="1000" 
d="M194 -54l-33 -12q-66 99 -96 206.5t-30 239.5q0 131 30 239t96 207l33 -12q-63 -94 -89 -205t-26 -229q1 -118 26.5 -229t88.5 -205zM839 -66l-33 12q63 94 88.5 205t26.5 229q0 118 -26 229t-89 205l33 12q66 -99 96 -207t30 -239q0 -132 -30 -239.5t-96 -206.5zM491 17
h-60q3 106 17 192.5t39.5 164t61.5 150t84 150.5h-346v51h413v-36q-56 -85 -94.5 -161t-63 -155t-36.5 -165t-15 -191z" />
    <glyph glyph-name="uni247B" unicode="&#x247b;" horiz-adv-x="1000" 
d="M194 -54l-33 -12q-66 99 -96 206.5t-30 239.5q0 131 30 239t96 207l33 -12q-63 -94 -89 -205t-26 -229q1 -118 26.5 -229t88.5 -205zM839 -66l-33 12q63 94 88.5 205t26.5 229q0 118 -26 229t-89 205l33 12q66 -99 96 -207t30 -239q0 -132 -30 -239.5t-96 -206.5zM506 4
q-51 0 -92 14.5t-70 40.5t-44.5 61.5t-15.5 77.5q0 39 12 69.5t31 54.5t43.5 42.5t48.5 32.5v5q-45 32 -73.5 70t-28.5 95q0 38 14.5 69.5t39.5 54t59 34.5t73 12q46 0 81.5 -13.5t60 -37.5t37 -56.5t12.5 -70.5q0 -27 -8.5 -52t-23 -48.5t-32.5 -44.5t-37 -40v-4
q28 -17 51 -33.5t39.5 -37.5t25.5 -48t9 -66t-14 -72t-41 -57t-66.5 -38t-90.5 -14zM551 391q40 42 64 80t24 86q0 27 -9 51.5t-26.5 42.5t-43 29t-58.5 11q-55 0 -92 -33.5t-37 -90.5q0 -33 13.5 -59t37 -46.5t56 -37.5t71.5 -33zM506 51q75 0 114 37.5t39 97.5
q0 40 -15.5 68t-43 49.5t-64.5 38.5t-81 35q-24 -16 -44.5 -33.5t-36.5 -39t-25 -47t-9 -56.5q0 -32 12 -59.5t33.5 -47.5t52.5 -31.5t68 -11.5z" />
    <glyph glyph-name="uni247C" unicode="&#x247c;" horiz-adv-x="1000" 
d="M161 826l33 -12q-63 -94 -89 -205t-26 -229q1 -118 26.5 -229t88.5 -205l-33 -12q-66 99 -96 206.5t-30 239.5q0 131 30 239t96 207zM806 814l33 12q66 -99 96 -207t30 -239q0 -132 -30 -239.5t-96 -206.5l-33 12q63 94 88.5 205t26.5 229q0 118 -26 229t-89 205zM291 74
l35 39q23 -30 57 -43.5t72 -13.5t72 17t60 56.5t42 103.5t17 158q-35 -45 -81 -69.5t-94 -24.5q-88 0 -140 55t-52 164q0 49 16 89.5t43 70t63 45.5t76 16q50 0 91.5 -21.5t71.5 -64t47 -104.5t17 -143q0 -111 -20.5 -187.5t-54.5 -123.5t-78.5 -68t-93.5 -21
q-55 0 -96.5 19t-69.5 51zM479 346q35 0 80.5 21.5t85.5 79.5q-8 112 -50 176t-117 64q-31 0 -57 -13t-44.5 -35.5t-29 -54t-10.5 -68.5q0 -82 36 -126t106 -44z" />
    <glyph glyph-name="uni247D" unicode="&#x247d;" horiz-adv-x="1000" 
d="M839 -66l-33 12q63 94 88.5 205t26.5 229q0 118 -26 229t-89 205l33 12q66 -99 96 -207t30 -239q0 -132 -30 -239.5t-96 -206.5zM194 -54l-33 -12q-66 99 -96 206.5t-30 239.5q0 131 30 239t96 207l33 -12q-63 -94 -89 -205t-26 -229q1 -118 26.5 -229t88.5 -205zM642 4
q-39 0 -72.5 21.5t-57.5 67t-37.5 115.5t-13.5 167q0 96 13.5 164.5t37.5 112.5t57.5 64.5t72.5 20.5t72.5 -20.5t57.5 -64.5t37.5 -112.5t13.5 -164.5q0 -97 -13.5 -167t-37.5 -115.5t-57.5 -67t-72.5 -21.5zM292 17v626h-111v36q42 6 71.5 19t53.5 27h37v-708h-51zM642 53
q29 0 52.5 18t40.5 57t26 100t9 147t-9 145.5t-26 97t-40.5 54.5t-52.5 17q-28 0 -52 -17t-40.5 -54.5t-26 -97t-9.5 -145.5t9.5 -147t26 -100t40.5 -57t52 -18z" />
    <glyph glyph-name="uni247E" unicode="&#x247e;" horiz-adv-x="1000" 
d="M839 -66l-33 12q63 94 88.5 205t26.5 229q0 118 -26 229t-89 205l33 12q66 -99 96 -207t30 -239q0 -132 -30 -239.5t-96 -206.5zM194 -54l-33 -12q-66 99 -96 206.5t-30 239.5q0 131 30 239t96 207l33 -12q-63 -94 -89 -205t-26 -229q1 -118 26.5 -229t88.5 -205zM660 17
v626h-110v36q42 6 71.5 19t53.5 27h36v-708h-51zM347 17v626h-110v36q40 6 70 19t54 27h37v-708h-51z" />
    <glyph glyph-name="uni247F" unicode="&#x247f;" horiz-adv-x="1000" 
d="M839 -66l-33 12q63 94 88.5 205t26.5 229q0 118 -26 229t-89 205l33 12q66 -99 96 -207t30 -239q0 -132 -30 -239.5t-96 -206.5zM194 -54l-33 -12q-66 99 -96 206.5t-30 239.5q0 131 30 239t96 207l33 -12q-63 -94 -89 -205t-26 -229q1 -118 26.5 -229t88.5 -205zM466 17
v35q72 86 123.5 156.5t85.5 130t50 110t16 95.5q0 63 -28 104.5t-89 41.5q-37 0 -69.5 -24.5t-57.5 -60.5l-35 31q34 42 72.5 71.5t92.5 29.5q81 0 123 -52t42 -140q0 -52 -17 -106.5t-49.5 -113.5t-80 -124.5t-107.5 -140.5q29 2 57 3t57 1h165v-47h-351zM292 17v626h-111
v36q42 6 71.5 19t53.5 27h37v-708h-51z" />
    <glyph glyph-name="uni2480" unicode="&#x2480;" horiz-adv-x="1000" 
d="M839 -66l-33 12q63 94 88.5 205t26.5 229q0 118 -26 229t-89 205l33 12q66 -99 96 -207t30 -239q0 -132 -30 -239.5t-96 -206.5zM194 -54l-33 -12q-66 99 -96 206.5t-30 239.5q0 131 30 239t96 207l33 -12q-63 -94 -89 -205t-26 -229q1 -118 26.5 -229t88.5 -205z
M684 392v-4q28 -7 53 -22.5t44 -39t30 -54.5t11 -69q0 -46 -14.5 -83t-39.5 -62.5t-59 -39.5t-73 -14q-33 0 -62 8t-53 21.5t-43 30.5t-32 34l32 36q26 -32 63.5 -56.5t92.5 -24.5q29 0 53.5 10.5t43 29.5t29 47t10.5 62q0 75 -47.5 118t-153.5 43v47q48 0 82.5 12.5
t56.5 33.5t32 48.5t10 57.5q0 60 -32 94t-84 34q-37 0 -70 -19.5t-57 -49.5l-33 34q31 35 70.5 58.5t90.5 23.5q74 0 121 -44.5t47 -126.5q0 -69 -34 -112t-85 -62zM292 17v626h-111v36q42 6 71.5 19t53.5 27h37v-708h-51z" />
    <glyph glyph-name="uni2481" unicode="&#x2481;" horiz-adv-x="1000" 
d="M161 826l33 -12q-63 -94 -89 -205t-26 -229q1 -118 26.5 -229t88.5 -205l-33 -12q-66 99 -96 206.5t-30 239.5q0 131 30 239t96 207zM806 814l33 12q66 -99 96 -207t30 -239q0 -132 -30 -239.5t-96 -206.5l-33 12q63 94 88.5 205t26.5 229q0 118 -26 229t-89 205z
M181 643v36q42 6 71.5 19t53.5 27h37v-708h-51v626h-111zM817 229h-83v-212h-48v212h-256v33l253 463h51v-451h83v-45zM488 274h198v311q0 18 0.5 35.5t1.5 30.5h-4q-13 -28 -23.5 -50t-24.5 -51z" />
    <glyph glyph-name="uni2482" unicode="&#x2482;" horiz-adv-x="1000" 
d="M839 -66l-33 12q63 94 88.5 205t26.5 229q0 118 -26 229t-89 205l33 12q66 -99 96 -207t30 -239q0 -132 -30 -239.5t-96 -206.5zM194 -54l-33 -12q-66 99 -96 206.5t-30 239.5q0 131 30 239t96 207l33 -12q-63 -94 -89 -205t-26 -229q1 -118 26.5 -229t88.5 -205z
M548 676l-21 -251q23 16 45 26t54 10q36 0 67.5 -13t55 -40t37.5 -69t14 -99t-16 -101t-42 -74.5t-60.5 -46t-70.5 -15.5q-34 0 -60.5 8t-48 21t-38.5 29t-31 32l31 37q24 -30 57.5 -54.5t86.5 -24.5q29 0 54 13.5t44.5 38t30.5 59t11 76.5q0 82 -36 130t-94 48
q-32 0 -54 -12.5t-46 -32.5l-37 20l24 334h275v-49h-232zM292 17v626h-111v36q42 6 71.5 19t53.5 27h37v-708h-51z" />
    <glyph glyph-name="uni249C" unicode="&#x249c;" horiz-adv-x="1000" 
d="M194 -54l-33 -12q-66 99 -96 206.5t-30 239.5q0 131 30 239t96 207l33 -12q-63 -94 -89 -205t-26 -229q1 -118 26.5 -229t88.5 -205zM839 -66l-33 12q63 94 88.5 205t26.5 229q0 118 -26 229t-89 205l33 12q66 -99 96 -207t30 -239q0 -132 -30 -239.5t-96 -206.5zM448 99
q-31 0 -59.5 9t-49.5 27.5t-33.5 46t-12.5 64.5q0 88 81 134t256 66q0 29 -4.5 57t-18 50.5t-36.5 36.5t-61 14q-51 0 -94 -20.5t-71 -41.5l-27 46q15 10 36 22t47 22t56 17t62 7q47 0 80 -16t53.5 -44t30 -66.5t9.5 -83.5v-334h-51l-6 67h-4q-39 -33 -85.5 -56.5
t-97.5 -23.5zM463 151q43 0 82 20t85 60v170q-76 -9 -128.5 -22.5t-85 -32t-46.5 -42.5t-14 -54q0 -53 31.5 -76t75.5 -23z" />
    <glyph glyph-name="uni249D" unicode="&#x249d;" horiz-adv-x="1000" 
d="M194 -54l-33 -12q-66 99 -96 206.5t-30 239.5q0 131 30 239t96 207l33 -12q-63 -94 -89 -205t-26 -229q1 -118 26.5 -229t88.5 -205zM839 -66l-33 12q63 94 88.5 205t26.5 229q0 118 -26 229t-89 205l33 12q66 -99 96 -207t30 -239q0 -132 -30 -239.5t-96 -206.5zM513 2
q-36 0 -76.5 17t-78.5 47h-2l-7 -51h-51v791h63v-225l-3 -102q39 33 83.5 56.5t92.5 23.5q53 0 92.5 -19t66 -54.5t40 -85t13.5 -111.5q0 -68 -19 -121.5t-51 -90t-74 -56t-89 -19.5zM508 55q38 0 69.5 16.5t54.5 47.5t36 74t13 95q0 47 -8.5 87t-27.5 69t-49 45t-73 16
q-38 0 -77.5 -21t-84.5 -61v-304q40 -35 79 -49.5t68 -14.5z" />
    <glyph glyph-name="uni249E" unicode="&#x249e;" horiz-adv-x="1000" 
d="M194 -54l-33 -12q-66 99 -96 206.5t-30 239.5q0 131 30 239t96 207l33 -12q-63 -94 -89 -205t-26 -229q1 -118 26.5 -229t88.5 -205zM839 -66l-33 12q63 94 88.5 205t26.5 229q0 118 -26 229t-89 205l33 12q66 -99 96 -207t30 -239q0 -132 -30 -239.5t-96 -206.5zM533 99
q-52 0 -96.5 18.5t-77 54.5t-51 87.5t-18.5 117.5t20 118t54 88t79 54.5t94 18.5q54 0 91 -20t64 -45l-33 -41q-26 23 -55 38.5t-66 15.5q-39 0 -72.5 -17t-58.5 -47t-39 -71.5t-14 -91.5q0 -51 13.5 -92.5t37.5 -71t58 -46t74 -16.5q42 0 76.5 18t60.5 42l31 -42
q-36 -32 -78.5 -51t-93.5 -19z" />
    <glyph glyph-name="uni249F" unicode="&#x249f;" horiz-adv-x="1000" 
d="M194 -54l-33 -12q-66 99 -96 206.5t-30 239.5q0 131 30 239t96 207l33 -12q-63 -94 -89 -205t-26 -229q1 -118 26.5 -229t88.5 -205zM839 -66l-33 12q63 94 88.5 205t26.5 229q0 118 -26 229t-89 205l33 12q66 -99 96 -207t30 -239q0 -132 -30 -239.5t-96 -206.5zM472 2
q-100 0 -159 72t-59 206q0 65 19 116.5t51 87.5t74.5 55.5t88.5 19.5q48 0 83.5 -16.5t73.5 -45.5l-5 94v215h64v-791h-53l-6 67h-2q-32 -33 -75 -56.5t-95 -23.5zM484 55q80 0 155 84v303q-38 35 -73 49t-72 14t-68.5 -17t-55 -47t-37 -71t-13.5 -90q0 -103 41.5 -164
t122.5 -61z" />
    <glyph glyph-name="uni24A0" unicode="&#x24a0;" horiz-adv-x="1000" 
d="M194 -54l-33 -12q-66 99 -96 206.5t-30 239.5q0 131 30 239t96 207l33 -12q-63 -94 -89 -205t-26 -229q1 -118 26.5 -229t88.5 -205zM839 -66l-33 12q63 94 88.5 205t26.5 229q0 118 -26 229t-89 205l33 12q66 -99 96 -207t30 -239q0 -132 -30 -239.5t-96 -206.5zM536 99
q-51 0 -96 19t-78.5 54.5t-53 87t-19.5 117.5q0 65 19.5 116.5t51.5 87.5t74 55.5t87 19.5q97 0 151 -64.5t54 -182.5v-21q0 -11 -2 -21h-373q1 -48 15.5 -88t39.5 -68.5t60 -44.5t77 -16t75 12.5t63 32.5l24 -43q-32 -22 -72 -37.5t-97 -15.5zM350 411h320
q0 97 -39.5 145.5t-108.5 48.5q-31 0 -60.5 -13.5t-53 -38.5t-39 -61t-19.5 -81z" />
    <glyph glyph-name="uni24A1" unicode="&#x24a1;" horiz-adv-x="1000" 
d="M161 826l33 -12q-63 -94 -89 -205t-26 -229q1 -118 26.5 -229t88.5 -205l-33 -12q-66 99 -96 206.5t-30 239.5q0 131 30 239t96 207zM806 814l33 12q66 -99 96 -207t30 -239q0 -132 -30 -239.5t-96 -206.5l-33 12q63 94 88.5 205t26.5 229q0 118 -26 229t-89 205z
M419 546v107q0 81 34.5 123.5t103.5 42.5q21 0 42 -5.5t39 -13.5l-14 -48q-37 14 -62 14q-82 0 -82 -115v-105h120v-52h-120v-479h-61v479h-73v48z" />
    <glyph glyph-name="uni24A2" unicode="&#x24a2;" horiz-adv-x="1000" 
d="M194 -54l-33 -12q-66 99 -96 206.5t-30 239.5q0 131 30 239t96 207l33 -12q-63 -94 -89 -205t-26 -229q1 -118 26.5 -229t88.5 -205zM839 -66l-33 12q63 94 88.5 205t26.5 229q0 118 -26 229t-89 205l33 12q66 -99 96 -207t30 -239q0 -132 -30 -239.5t-96 -206.5z
M502 -24q-94 0 -151 36.5t-57 100.5q0 32 19 63t51 53v4q-20 13 -33.5 33.5t-13.5 49.5q0 32 20 55t38 37v4q-26 21 -46.5 56.5t-20.5 83.5q0 41 14.5 74.5t39 57.5t57.5 37t70 13q42 0 67 -13h176v-50h-117q23 -20 37.5 -51t14.5 -69q0 -40 -13.5 -73.5t-37 -57.5
t-56 -37.5t-71.5 -13.5q-15 0 -37 5t-40 14q-14 -13 -26 -27.5t-12 -37.5q0 -26 20 -43t77 -17h92q169 0 169 -116q0 -33 -16 -64t-46 -54.5t-72.5 -38t-95.5 -14.5zM489 415q52 0 86 37t34 100t-34 98.5t-86 35.5q-25 0 -46.5 -9.5t-38 -26.5t-26 -42t-9.5 -56t9.5 -56.5
t26 -43.5t38.5 -27.5t46 -9.5zM510 23q37 0 66.5 10t50 26.5t31.5 37t11 42.5q0 38 -27 53t-81 15h-88q-10 0 -28 2t-37 7q-31 -21 -43 -46.5t-12 -49.5q0 -45 41 -71t116 -26z" />
    <glyph glyph-name="uni24A3" unicode="&#x24a3;" horiz-adv-x="1000" 
d="M194 -54l-33 -12q-66 99 -96 206.5t-30 239.5q0 131 30 239t96 207l33 -12q-63 -94 -89 -205t-26 -229q1 -118 26.5 -229t88.5 -205zM839 -66l-33 12q63 94 88.5 205t26.5 229q0 118 -26 229t-89 205l33 12q66 -99 96 -207t30 -239q0 -132 -30 -239.5t-96 -206.5zM304 15
v791h63v-225l-3 -115q42 40 84 66.5t99 26.5q82 0 120.5 -50.5t38.5 -153.5v-340h-62v331q0 82 -26.5 120.5t-87.5 38.5q-45 0 -81.5 -24t-81.5 -70v-396h-63z" />
    <glyph glyph-name="uni24A4" unicode="&#x24a4;" horiz-adv-x="1000" 
d="M194 -54l-33 -12q-66 99 -96 206.5t-30 239.5q0 131 30 239t96 207l33 -12q-63 -94 -89 -205t-26 -229q1 -118 26.5 -229t88.5 -205zM839 -66l-33 12q63 94 88.5 205t26.5 229q0 118 -26 229t-89 205l33 12q66 -99 96 -207t30 -239q0 -132 -30 -239.5t-96 -206.5z
M501 668q-22 0 -37 14t-15 35q0 23 15 35.5t37 12.5q20 0 35 -12.5t15 -35.5q0 -21 -15 -35t-35 -14zM468 15v531h63v-531h-63z" />
    <glyph glyph-name="uni24A5" unicode="&#x24a5;" horiz-adv-x="1000" 
d="M520 760q-22 0 -36.5 14t-14.5 35q0 23 14.5 35.5t36.5 12.5q20 0 34.5 -12.5t14.5 -35.5q0 -21 -14.5 -35t-34.5 -14zM194 -54l-33 -12q-66 99 -96 206.5t-30 239.5q0 131 30 239t96 207l33 -12q-63 -94 -89 -205t-26 -229q1 -118 26.5 -229t88.5 -205zM839 -66l-33 12
q63 94 88.5 205t26.5 229q0 118 -26 229t-89 205l33 12q66 -99 96 -207t30 -239q0 -132 -30 -239.5t-96 -206.5zM422 -142q-20 0 -39.5 4t-31.5 9l13 50q11 -4 25 -7t29 -3q43 0 56.5 30.5t13.5 81.5v615h62v-617q0 -81 -29.5 -122t-98.5 -41z" />
    <glyph glyph-name="uni24A6" unicode="&#x24a6;" horiz-adv-x="1000" 
d="M194 -54l-33 -12q-66 99 -96 206.5t-30 239.5q0 131 30 239t96 207l33 -12q-63 -94 -89 -205t-26 -229q1 -118 26.5 -229t88.5 -205zM839 -66l-33 12q63 94 88.5 205t26.5 229q0 118 -26 229t-89 205l33 12q66 -99 96 -207t30 -239q0 -132 -30 -239.5t-96 -206.5zM318 15
v791h62v-567h2l250 307h70l-172 -211l200 -320h-70l-167 275l-113 -132v-143h-62z" />
    <glyph glyph-name="uni24A7" unicode="&#x24a7;" horiz-adv-x="1000" 
d="M194 -54l-33 -12q-66 99 -96 206.5t-30 239.5q0 131 30 239t96 207l33 -12q-63 -94 -89 -205t-26 -229q1 -118 26.5 -229t88.5 -205zM839 -66l-33 12q63 94 88.5 205t26.5 229q0 118 -26 229t-89 205l33 12q66 -99 96 -207t30 -239q0 -132 -30 -239.5t-96 -206.5zM539 2
q-75 0 -75 96v708h63v-715q0 -20 6.5 -28.5t16.5 -8.5h8t12 2l10 -48l-18 -4q-9 -2 -23 -2z" />
    <glyph glyph-name="uni24A8" unicode="&#x24a8;" horiz-adv-x="1000" 
d="M194 -54l-33 -12q-66 99 -96 206.5t-30 239.5q0 131 30 239t96 207l33 -12q-63 -94 -89 -205t-26 -229q1 -118 26.5 -229t88.5 -205zM839 -66l-33 12q63 94 88.5 205t26.5 229q0 118 -26 229t-89 205l33 12q66 -99 96 -207t30 -239q0 -132 -30 -239.5t-96 -206.5z
M229 112v531h50l7 -60h3q26 31 58 52t68 21q45 0 70 -23t36 -62q32 40 64.5 62.5t74.5 22.5q118 0 118 -184v-360h-60v352q0 72 -17.5 105t-54.5 33q-31 0 -56.5 -18.5t-54.5 -56.5v-415h-60v352q0 72 -18 105t-56 33q-33 0 -57 -18.5t-53 -56.5v-415h-62z" />
    <glyph glyph-name="uni24A9" unicode="&#x24a9;" horiz-adv-x="1000" 
d="M194 -54l-33 -12q-66 99 -96 206.5t-30 239.5q0 131 30 239t96 207l33 -12q-63 -94 -89 -205t-26 -229q1 -118 26.5 -229t88.5 -205zM839 -66l-33 12q63 94 88.5 205t26.5 229q0 118 -26 229t-89 205l33 12q66 -99 96 -207t30 -239q0 -132 -30 -239.5t-96 -206.5z
M303 112v531h52l7 -80h3q39 40 81.5 66.5t99.5 26.5q82 0 120.5 -50.5t38.5 -153.5v-340h-61v331q0 82 -27 120.5t-88 38.5q-45 0 -81 -24t-82 -70v-396h-63z" />
    <glyph glyph-name="uni24AA" unicode="&#x24aa;" horiz-adv-x="1000" 
d="M194 -54l-33 -12q-66 99 -96 206.5t-30 239.5q0 131 30 239t96 207l33 -12q-63 -94 -89 -205t-26 -229q1 -118 26.5 -229t88.5 -205zM839 -66l-33 12q63 94 88.5 205t26.5 229q0 118 -26 229t-89 205l33 12q66 -99 96 -207t30 -239q0 -132 -30 -239.5t-96 -206.5zM500 99
q-48 0 -91.5 18.5t-77 54.5t-53 87.5t-19.5 117.5t19.5 118t53 88t77 54.5t91.5 18.5t91.5 -18.5t76.5 -54.5t52.5 -88t19.5 -118t-19.5 -117.5t-52.5 -87.5t-76.5 -54.5t-91.5 -18.5zM500 151q38 0 70.5 16.5t56 46t36.5 71t13 92.5q0 50 -13 91.5t-36.5 71.5t-56 47
t-70.5 17t-70.5 -17t-56 -47t-37 -71.5t-13.5 -91.5q0 -51 13.5 -92.5t37 -71t56 -46t70.5 -16.5z" />
    <glyph glyph-name="uni24AB" unicode="&#x24ab;" horiz-adv-x="1000" 
d="M194 -54l-33 -12q-66 99 -96 206.5t-30 239.5q0 131 30 239t96 207l33 -12q-63 -94 -89 -205t-26 -229q1 -118 26.5 -229t88.5 -205zM839 -66l-33 12q63 94 88.5 205t26.5 229q0 118 -26 229t-89 205l33 12q66 -99 96 -207t30 -239q0 -132 -30 -239.5t-96 -206.5zM298 -6
v727h51l8 -64h2q38 31 82.5 54t92.5 23q53 0 93 -19t66.5 -54.5t40 -85t13.5 -111.5q0 -68 -19 -121.5t-51 -90t-74.5 -56t-89.5 -19.5q-36 0 -75 16.5t-79 47.5l1 -96v-151h-62zM508 231q38 0 69.5 16.5t54.5 47t36 73.5t13 95q0 47 -8.5 87t-27.5 69t-49 45.5t-73 16.5
q-38 0 -77.5 -21.5t-85.5 -61.5v-304q42 -35 80 -49t68 -14z" />
    <glyph glyph-name="uni24AC" unicode="&#x24ac;" horiz-adv-x="1000" 
d="M194 -54l-33 -12q-66 99 -96 206.5t-30 239.5q0 131 30 239t96 207l33 -12q-63 -94 -89 -205t-26 -229q1 -118 26.5 -229t88.5 -205zM839 -66l-33 12q63 94 88.5 205t26.5 229q0 118 -26 229t-89 205l33 12q66 -99 96 -207t30 -239q0 -132 -30 -239.5t-96 -206.5zM640 -6
v161l4 101q-35 -32 -77.5 -55.5t-93.5 -23.5q-100 0 -160 71.5t-60 206.5q0 65 19 116.5t51.5 87.5t75 55.5t88.5 19.5q48 0 83.5 -16.5t73.5 -45.5h1l6 49h52v-727h-63zM485 231q42 0 79.5 20.5t75.5 62.5v303q-39 35 -74 49.5t-72 14.5t-69 -17t-55.5 -47t-37 -71.5
t-13.5 -90.5q0 -103 42.5 -163.5t123.5 -60.5z" />
    <glyph glyph-name="uni24AD" unicode="&#x24ad;" horiz-adv-x="1000" 
d="M194 -54l-33 -12q-66 99 -96 206.5t-30 239.5q0 131 30 239t96 207l33 -12q-63 -94 -89 -205t-26 -229q1 -118 26.5 -229t88.5 -205zM839 -66l-33 12q63 94 88.5 205t26.5 229q0 118 -26 229t-89 205l33 12q66 -99 96 -207t30 -239q0 -132 -30 -239.5t-96 -206.5z
M391 112v531h52l7 -98h2q27 51 65 81t86 30q17 0 29 -2t25 -9l-14 -55q-12 5 -22 7t-26 2q-35 0 -73.5 -30t-67.5 -102v-355h-63z" />
    <glyph glyph-name="uni24AE" unicode="&#x24ae;" horiz-adv-x="1000" 
d="M194 -54l-33 -12q-66 99 -96 206.5t-30 239.5q0 131 30 239t96 207l33 -12q-63 -94 -89 -205t-26 -229q1 -118 26.5 -229t88.5 -205zM839 -66l-33 12q63 94 88.5 205t26.5 229q0 118 -26 229t-89 205l33 12q66 -99 96 -207t30 -239q0 -132 -30 -239.5t-96 -206.5zM505 99
q-60 0 -110.5 21.5t-85.5 52.5l33 43q35 -29 72.5 -47.5t92.5 -18.5q60 0 90 29t30 68q0 24 -11.5 41.5t-29.5 31t-40.5 23t-45.5 17.5q-30 10 -59.5 22.5t-53.5 30t-39 42t-15 57.5q0 29 11.5 55.5t34 46t55.5 31t75 11.5q45 0 86 -16t70 -40l-32 -42q-27 20 -56.5 34
t-67.5 14q-29 0 -50.5 -7.5t-35.5 -20.5t-20.5 -29t-6.5 -33q0 -22 10.5 -37.5t27.5 -27t39 -20.5t46 -18q30 -12 60.5 -24.5t54.5 -30.5t39 -43.5t15 -64.5q0 -31 -12 -58.5t-35.5 -48t-57.5 -32.5t-78 -12z" />
    <glyph glyph-name="uni24AF" unicode="&#x24af;" horiz-adv-x="1000" 
d="M194 -54l-33 -12q-66 99 -96 206.5t-30 239.5q0 131 30 239t96 207l33 -12q-63 -94 -89 -205t-26 -229q1 -118 26.5 -229t88.5 -205zM839 -66l-33 12q63 94 88.5 205t26.5 229q0 118 -26 229t-89 205l33 12q66 -99 96 -207t30 -239q0 -132 -30 -239.5t-96 -206.5zM573 57
q-40 0 -66.5 12t-42.5 34t-23 52.5t-7 67.5v326h-81v48l84 4l7 153h52v-153h151v-52h-151v-329q0 -51 18 -80.5t70 -29.5q14 0 32.5 4.5t31.5 11.5l14 -49q-22 -8 -46 -14t-43 -6z" />
    <glyph glyph-name="uni24B0" unicode="&#x24b0;" horiz-adv-x="1000" 
d="M194 -54l-33 -12q-66 99 -96 206.5t-30 239.5q0 131 30 239t96 207l33 -12q-63 -94 -89 -205t-26 -229q1 -118 26.5 -229t88.5 -205zM839 -66l-33 12q63 94 88.5 205t26.5 229q0 118 -26 229t-89 205l33 12q66 -99 96 -207t30 -239q0 -132 -30 -239.5t-96 -206.5zM458 99
q-85 0 -123 50.5t-38 153.5v340h61v-332q0 -81 27.5 -119.5t87.5 -38.5q45 0 80.5 24.5t80.5 78.5v387h62v-531h-51l-7 87h-3q-38 -45 -80.5 -72.5t-96.5 -27.5z" />
    <glyph glyph-name="uni24B1" unicode="&#x24b1;" horiz-adv-x="1000" 
d="M194 -54l-33 -12q-66 99 -96 206.5t-30 239.5q0 131 30 239t96 207l33 -12q-63 -94 -89 -205t-26 -229q1 -118 26.5 -229t88.5 -205zM839 -66l-33 12q63 94 88.5 205t26.5 229q0 118 -26 229t-89 205l33 12q66 -99 96 -207t30 -239q0 -132 -30 -239.5t-96 -206.5z
M465 112l-197 531h66l113 -322q14 -39 26.5 -78.5t26.5 -75.5h4q13 36 26.5 75.5t25.5 78.5l114 322h62l-194 -531h-73z" />
    <glyph glyph-name="uni24B2" unicode="&#x24b2;" horiz-adv-x="1000" 
d="M194 -54l-33 -12q-66 99 -96 206.5t-30 239.5q0 131 30 239t96 207l33 -12q-63 -94 -89 -205t-26 -229q1 -118 26.5 -229t88.5 -205zM839 -66l-33 12q63 94 88.5 205t26.5 229q0 118 -26 229t-89 205l33 12q66 -99 96 -207t30 -239q0 -132 -30 -239.5t-96 -206.5z
M307 112l-140 531h64l80 -331q10 -38 17.5 -73.5t15.5 -71.5h5q9 37 16 72t17 73l86 331h68l85 -331q10 -38 17.5 -73.5t17.5 -71.5h4q8 36 16.5 71.5t17.5 73.5l79 331h60l-136 -531h-78l-82 316q-11 38 -18 75t-17 77h-5q-9 -40 -16.5 -78t-19.5 -76l-79 -314h-75z" />
    <glyph glyph-name="uni24B3" unicode="&#x24b3;" horiz-adv-x="1000" 
d="M194 -54l-33 -12q-66 99 -96 206.5t-30 239.5q0 131 30 239t96 207l33 -12q-63 -94 -89 -205t-26 -229q1 -118 26.5 -229t88.5 -205zM839 -66l-33 12q63 94 88.5 205t26.5 229q0 118 -26 229t-89 205l33 12q66 -99 96 -207t30 -239q0 -132 -30 -239.5t-96 -206.5z
M285 112l178 277l-164 254h68l82 -129q12 -21 26 -43t29 -45h4q14 23 26.5 45t26.5 43l76 129h66l-164 -259l177 -272h-68l-89 139q-14 24 -29 48t-32 47h-5q-14 -23 -28 -46.5t-30 -48.5l-85 -139h-65z" />
    <glyph glyph-name="uni24B4" unicode="&#x24b4;" horiz-adv-x="1000" 
d="M194 -54l-33 -12q-66 99 -96 206.5t-30 239.5q0 131 30 239t96 207l33 -12q-63 -94 -89 -205t-26 -229q1 -118 26.5 -229t88.5 -205zM839 -66l-33 12q63 94 88.5 205t26.5 229q0 118 -26 229t-89 205l33 12q66 -99 96 -207t30 -239q0 -132 -30 -239.5t-96 -206.5zM351 -8
q-35 0 -66 11l14 52q11 -3 24 -5.5t26 -2.5q49 0 78 25t43 68l13 43l-217 538h67l120 -320q14 -35 28 -74.5t28 -75.5h4q14 35 25.5 75t23.5 75l106 320h63l-207 -589q-10 -28 -24 -53.5t-34.5 -44.5t-48.5 -30.5t-66 -11.5z" />
    <glyph glyph-name="uni24B5" unicode="&#x24b5;" horiz-adv-x="1000" 
d="M194 -54l-33 -12q-66 99 -96 206.5t-30 239.5q0 131 30 239t96 207l33 -12q-63 -94 -89 -205t-26 -229q1 -118 26.5 -229t88.5 -205zM839 -66l-33 12q63 94 88.5 205t26.5 229q0 118 -26 229t-89 205l33 12q66 -99 96 -207t30 -239q0 -132 -30 -239.5t-96 -206.5z
M306 112v33l302 446h-269v52h349v-33l-303 -446h313v-52h-392z" />
    <glyph glyph-name="uni24D0" unicode="&#x24d0;" horiz-adv-x="1000" 
d="M500 -82q-96 0 -180 36.5t-146.5 99t-99 146.5t-36.5 180t36.5 180t99 146.5t146.5 99t180 36.5t180 -36.5t146.5 -99t99 -146.5t36.5 -180t-36.5 -180.5t-99.5 -147t-147 -98.5t-179 -36zM500 -54q90 0 169 34t138 93t93 138t34 169t-34 169t-93 138t-138 93t-169 34
q-91 0 -170 -34.5t-137.5 -93.5t-92.5 -138t-34 -168q0 -90 34 -169t93 -138t138 -93t169 -34zM465 187q-48 0 -77.5 27t-29.5 75q0 57 52.5 88.5t170.5 42.5q0 40 -14.5 67t-57.5 27q-32 0 -64.5 -13t-52.5 -27l-18 37q24 14 61 29.5t80 15.5q65 0 91 -38t26 -102v-220h-40
l-7 43h-5q-22 -20 -51 -36t-64 -16zM478 230q51 0 103 49v107q-97 -10 -135 -34t-38 -59q0 -34 19 -48.5t51 -14.5z" />
    <glyph glyph-name="uni24D1" unicode="&#x24d1;" horiz-adv-x="1000" 
d="M500 -82q-96 0 -180 36.5t-146.5 99t-99 146.5t-36.5 180t36.5 180t99 146.5t146.5 99t180 36.5t180 -36.5t146.5 -99t99 -146.5t36.5 -180t-36.5 -180.5t-99.5 -147t-147 -98.5t-179 -36zM500 -54q90 0 169 34t138 93t93 138t34 169t-34 169t-93 138t-138 93t-169 34
q-91 0 -170 -34.5t-137.5 -93.5t-92.5 -138t-34 -168q0 -90 34 -169t93 -138t138 -93t169 -34zM525 145q-25 0 -52 11t-51 32h-5l-5 -34h-38v520h49v-145l-2 -67q26 22 54 37.5t61 15.5q72 0 107.5 -48.5t35.5 -129.5q0 -46 -12.5 -81.5t-33.5 -60t-49 -37.5t-59 -13z
M521 189q46 0 76.5 39t30.5 108q0 63 -24 99.5t-76 36.5t-105 -53v-191q25 -21 51 -30t47 -9z" />
    <glyph glyph-name="uni24D2" unicode="&#x24d2;" horiz-adv-x="1000" 
d="M500 -82q-96 0 -180 36.5t-146.5 99t-99 146.5t-36.5 180t36.5 180t99 146.5t146.5 99t180 36.5t180 -36.5t146.5 -99t99 -146.5t36.5 -180t-36.5 -180.5t-99.5 -147t-147 -98.5t-179 -36zM500 -54q90 0 169 34t138 93t93 138t34 169t-34 169t-93 138t-138 93t-169 34
q-91 0 -170 -34.5t-137.5 -93.5t-92.5 -138t-34 -168q0 -90 34 -169t93 -138t138 -93t169 -34zM520 187q-36 0 -66.5 12.5t-53 36t-35 58t-12.5 78.5t14 78t37 57.5t54 36t64 12.5q38 0 63.5 -12t43.5 -27l-26 -33q-18 15 -35.5 22.5t-45.5 7.5q-51 0 -83.5 -39.5
t-32.5 -102.5t32 -102.5t86 -39.5q29 0 50 9.5t38 23.5l22 -34q-19 -16 -45.5 -29t-68.5 -13z" />
    <glyph glyph-name="uni24D3" unicode="&#x24d3;" horiz-adv-x="1000" 
d="M500 -82q-96 0 -180 36.5t-146.5 99t-99 146.5t-36.5 180t36.5 180t99 146.5t146.5 99t180 36.5t180 -36.5t146.5 -99t99 -146.5t36.5 -180t-36.5 -180.5t-99.5 -147t-147 -98.5t-179 -36zM500 -54q90 0 169 34t138 93t93 138t34 169t-34 169t-93 138t-138 93t-169 34
q-91 0 -170 -34.5t-137.5 -93.5t-92.5 -138t-34 -168q0 -90 34 -169t93 -138t138 -93t169 -34zM488 145q-72 0 -112 49t-40 143q0 41 12.5 74t34 56t49.5 35.5t59 12.5q29 0 54 -10.5t50 -30.5l-4 63v137h50v-520h-39l-8 40h-3q-23 -19 -47.5 -34t-55.5 -15zM496 189
q24 0 46.5 13.5t48.5 36.5v193q-25 22 -49 31.5t-47 9.5q-22 0 -41.5 -10t-34 -28t-23 -43t-8.5 -55q0 -69 25.5 -108.5t82.5 -39.5z" />
    <glyph glyph-name="uni24D4" unicode="&#x24d4;" horiz-adv-x="1000" 
d="M500 -82q-96 0 -180 36.5t-146.5 99t-99 146.5t-36.5 180t36.5 180t99 146.5t146.5 99t180 36.5t180 -36.5t146.5 -99t99 -146.5t36.5 -180t-36.5 -180.5t-99.5 -147t-147 -98.5t-179 -36zM500 -54q90 0 169 34t138 93t93 138t34 169t-34 169t-93 138t-138 93t-169 34
q-91 0 -170 -34.5t-137.5 -93.5t-92.5 -138t-34 -168q0 -90 34 -169t93 -138t138 -93t169 -34zM518 187q-34 0 -65 12t-53.5 35.5t-36 58t-13.5 79.5q0 42 13 76t34.5 58t51 37t62.5 13q42 0 69.5 -16t43 -40t22 -51.5t6.5 -50.5q0 -10 -0.5 -16.5t-2.5 -20.5h-249
q2 -60 34.5 -95.5t89.5 -35.5q27 0 51.5 8.5t42.5 20.5l21 -34q-23 -14 -52.5 -26t-68.5 -12zM400 398h206q0 21 -4.5 41.5t-15.5 37t-29 27t-45 10.5q-48 0 -77 -30.5t-35 -85.5z" />
    <glyph glyph-name="uni24D5" unicode="&#x24d5;" horiz-adv-x="1000" 
d="M500 842q96 0 180 -36.5t146.5 -99t99 -146.5t36.5 -180t-36.5 -180.5t-99.5 -147t-147 -98.5t-179 -36q-96 0 -180 36.5t-146.5 99t-99 146.5t-36.5 180t36.5 180t99 146.5t146.5 99t180 36.5zM500 -54q90 0 169 34t138 93t93 138t34 169t-34 169t-93 138t-138 93
t-169 34q-91 0 -170 -34.5t-137.5 -93.5t-92.5 -138t-34 -168q0 -90 34 -169t93 -138t138 -93t169 -34zM451 507v58q0 54 24.5 87t73.5 33q17 0 30.5 -2.5t28.5 -9.5l-12 -38q-17 7 -42 7q-27 0 -40 -20t-13 -52v-63h79v-41h-79v-312h-50v312h-50v37z" />
    <glyph glyph-name="uni24D6" unicode="&#x24d6;" horiz-adv-x="1000" 
d="M500 -82q-96 0 -180 36.5t-146.5 99t-99 146.5t-36.5 180t36.5 180t99 146.5t146.5 99t180 36.5t180 -36.5t146.5 -99t99 -146.5t36.5 -180t-36.5 -180.5t-99.5 -147t-147 -98.5t-179 -36zM500 -54q90 0 169 34t138 93t93 138t34 169t-34 169t-93 138t-138 93t-169 34
q-91 0 -170 -34.5t-137.5 -93.5t-92.5 -138t-34 -168q0 -90 34 -169t93 -138t138 -93t169 -34zM498 90q-69 0 -107.5 25t-38.5 71q0 48 52 79v4q-15 9 -24 23.5t-9 35.5t13 37.5t28 25.5v5q-20 13 -33.5 37t-13.5 56q0 29 10.5 52t28 39.5t41.5 25.5t51 9q28 0 55 -11h118
v-41h-74q14 -11 23 -31.5t9 -42.5q0 -28 -10.5 -51.5t-28 -39.5t-41.5 -25t-51 -9q-13 0 -27.5 3t-28.5 11q-10 -9 -17 -19t-7 -25q0 -18 14 -29t50 -11h74q63 0 91.5 -19t28.5 -64q0 -24 -12.5 -45.5t-35 -38.5t-55 -27t-73.5 -10zM496 402q35 0 60 24t25 63q0 42 -25 64.5
t-60 22.5q-36 0 -59.5 -22.5t-23.5 -64.5q0 -39 23.5 -63t59.5 -24zM505 129q55 0 88 22.5t33 52.5q0 26 -20 35.5t-57 9.5h-67q-8 0 -21 0.5t-24 4.5q-40 -27 -40 -61q0 -31 28.5 -47.5t79.5 -16.5z" />
    <glyph glyph-name="uni24D7" unicode="&#x24d7;" horiz-adv-x="1000" 
d="M500 -82q-96 0 -180 36.5t-146.5 99t-99 146.5t-36.5 180t36.5 180t99 146.5t146.5 99t180 36.5t180 -36.5t146.5 -99t99 -146.5t36.5 -180t-36.5 -180.5t-99.5 -147t-147 -98.5t-179 -36zM500 -54q90 0 169 34t138 93t93 138t34 169t-34 169t-93 138t-138 93t-169 34
q-91 0 -170 -34.5t-137.5 -93.5t-92.5 -138t-34 -168q0 -90 34 -169t93 -138t138 -93t169 -34zM365 154v520h49v-143l-2 -77q24 25 55.5 43t66.5 18q61 0 85.5 -38t24.5 -98v-225h-48v217q0 45 -15.5 73t-62.5 28q-42 0 -104 -60v-258h-49z" />
    <glyph glyph-name="uni24D8" unicode="&#x24d8;" horiz-adv-x="1000" 
d="M500 -82q-96 0 -180 36.5t-146.5 99t-99 146.5t-36.5 180t36.5 180t99 146.5t146.5 99t180 36.5t180 -36.5t146.5 -99t99 -146.5t36.5 -180t-36.5 -180.5t-99.5 -147t-147 -98.5t-179 -36zM500 -54q90 0 169 34t138 93t93 138t34 169t-34 169t-93 138t-138 93t-169 34
q-91 0 -170 -34.5t-137.5 -93.5t-92.5 -138t-34 -168q0 -90 34 -169t93 -138t138 -93t169 -34zM502 582q-17 0 -27.5 10.5t-10.5 26.5t10.5 26.5t27.5 10.5t28 -10.5t11 -26.5t-11 -26.5t-28 -10.5zM476 154v353h49v-353h-49z" />
    <glyph glyph-name="uni24D9" unicode="&#x24d9;" horiz-adv-x="1000" 
d="M500 -82q-96 0 -180 36.5t-146.5 99t-99 146.5t-36.5 180t36.5 180t99 146.5t146.5 99t180 36.5t180 -36.5t146.5 -99t99 -146.5t36.5 -180t-36.5 -180.5t-99.5 -147t-147 -98.5t-179 -36zM500 -54q90 0 169 34t138 93t93 138t34 169t-34 169t-93 138t-138 93t-169 34
q-91 0 -170 -34.5t-137.5 -93.5t-92.5 -138t-34 -168q0 -90 34 -169t93 -138t138 -93t169 -34zM511 622q-17 0 -27 10.5t-10 26.5t10 26.5t27 10.5q18 0 29 -10.5t11 -26.5t-11 -26.5t-29 -10.5zM444 31q-15 0 -25.5 2t-22.5 7l11 42q8 -4 14.5 -5.5t18.5 -1.5q27 0 36 18.5
t9 50.5v403h49v-399q0 -58 -21 -87.5t-69 -29.5z" />
    <glyph glyph-name="uni24DA" unicode="&#x24da;" horiz-adv-x="1000" 
d="M500 -82q-96 0 -180 36.5t-146.5 99t-99 146.5t-36.5 180t36.5 180t99 146.5t146.5 99t180 36.5t180 -36.5t146.5 -99t99 -146.5t36.5 -180t-36.5 -180.5t-99.5 -147t-147 -98.5t-179 -36zM500 -54q90 0 169 34t138 93t93 138t34 169t-34 169t-93 138t-138 93t-169 34
q-91 0 -170 -34.5t-137.5 -93.5t-92.5 -138t-34 -168q0 -90 34 -169t93 -138t138 -93t169 -34zM384 154v520h49v-360h4l159 193h59l-120 -143l136 -210h-55l-113 175l-70 -84v-91h-49z" />
    <glyph glyph-name="uni24DB" unicode="&#x24db;" horiz-adv-x="1000" 
d="M500 -82q-96 0 -180 36.5t-146.5 99t-99 146.5t-36.5 180t36.5 180t99 146.5t146.5 99t180 36.5t180 -36.5t146.5 -99t99 -146.5t36.5 -180t-36.5 -180.5t-99.5 -147t-147 -98.5t-179 -36zM500 -54q90 0 169 34t138 93t93 138t34 169t-34 169t-93 138t-138 93t-169 34
q-91 0 -170 -34.5t-137.5 -93.5t-92.5 -138t-34 -168q0 -90 34 -169t93 -138t138 -93t169 -34zM527 145q-32 0 -45 20t-13 56v453h48v-460q0 -14 5.5 -19.5t13.5 -5.5h6t8 2l10 -41q-8 -1 -15 -3t-18 -2z" />
    <glyph glyph-name="uni24DC" unicode="&#x24dc;" horiz-adv-x="1000" 
d="M500 -82q-96 0 -180 36.5t-146.5 99t-99 146.5t-36.5 180t36.5 180t99 146.5t146.5 99t180 36.5t180 -36.5t146.5 -99t99 -146.5t36.5 -180t-36.5 -180.5t-99.5 -147t-147 -98.5t-179 -36zM500 -54q90 0 169 34t138 93t93 138t34 169t-34 169t-93 138t-138 93t-169 34
q-91 0 -170 -34.5t-137.5 -93.5t-92.5 -138t-34 -168q0 -90 34 -169t93 -138t138 -93t169 -34zM259 196v352h39l6 -51h3q23 25 50 42t62 17q36 0 62 -17t37 -52q26 28 56 48.5t65 20.5q59 0 83.5 -38t24.5 -98v-224h-50v217q0 45 -14 72.5t-59 27.5q-22 0 -44.5 -14
t-51.5 -45v-258h-50v217q0 45 -14.5 72.5t-59.5 27.5q-22 0 -44.5 -14t-51.5 -45v-258h-49z" />
    <glyph glyph-name="uni24DD" unicode="&#x24dd;" horiz-adv-x="1000" 
d="M500 -82q-96 0 -180 36.5t-146.5 99t-99 146.5t-36.5 180t36.5 180t99 146.5t146.5 99t180 36.5t180 -36.5t146.5 -99t99 -146.5t36.5 -180t-36.5 -180.5t-99.5 -147t-147 -98.5t-179 -36zM500 -54q90 0 169 34t138 93t93 138t34 169t-34 169t-93 138t-138 93t-169 34
q-91 0 -170 -34.5t-137.5 -93.5t-92.5 -138t-34 -168q0 -90 34 -169t93 -138t138 -93t169 -34zM363 196v352h39l6 -51h3q25 25 55.5 42t65.5 17q62 0 86.5 -38t24.5 -98v-224h-49v217q0 45 -15 72.5t-60 27.5q-25 0 -50 -14t-57 -45v-258h-49z" />
    <glyph glyph-name="uni24DE" unicode="&#x24de;" horiz-adv-x="1000" 
d="M500 -82q-96 0 -180 36.5t-146.5 99t-99 146.5t-36.5 180t36.5 180t99 146.5t146.5 99t180 36.5t180 -36.5t146.5 -99t99 -146.5t36.5 -180t-36.5 -180.5t-99.5 -147t-147 -98.5t-179 -36zM500 -54q90 0 169 34t138 93t93 138t34 169t-34 169t-93 138t-138 93t-169 34
q-91 0 -170 -34.5t-137.5 -93.5t-92.5 -138t-34 -168q0 -90 34 -169t93 -138t138 -93t169 -34zM499 187q-33 0 -63 12.5t-52 36.5t-35 58.5t-13 77.5q0 44 13 78t35 57.5t52 36t63 12.5q34 0 63.5 -12.5t52 -36t35.5 -57.5t13 -78q0 -43 -13 -77.5t-35.5 -58.5t-52 -36.5
t-63.5 -12.5zM499 230q51 0 81 39.5t30 102.5q0 66 -30 104t-81 38t-80.5 -38t-29.5 -104q0 -63 29.5 -102.5t80.5 -39.5z" />
    <glyph glyph-name="uni24DF" unicode="&#x24df;" horiz-adv-x="1000" 
d="M500 -82q-96 0 -180 36.5t-146.5 99t-99 146.5t-36.5 180t36.5 180t99 146.5t146.5 99t180 36.5t180 -36.5t146.5 -99t99 -146.5t36.5 -180t-36.5 -180.5t-99.5 -147t-147 -98.5t-179 -36zM500 -54q90 0 169 34t138 93t93 138t34 169t-34 169t-93 138t-138 93t-169 34
q-91 0 -170 -34.5t-137.5 -93.5t-92.5 -138t-34 -168q0 -90 34 -169t93 -138t138 -93t169 -34zM368 105v502h38l8 -43h3q23 20 51 35.5t61 15.5q72 0 108 -48.5t36 -129.5q0 -46 -12.5 -81.5t-33.5 -60t-49 -37.5t-59 -13q-24 0 -53 11t-52 32l2 -67v-116h-48zM514 289
q48 0 77.5 39t29.5 108q0 63 -24 99.5t-76 36.5q-49 0 -105 -53v-191q25 -21 51.5 -30t46.5 -9z" />
    <glyph glyph-name="uni24E0" unicode="&#x24e0;" horiz-adv-x="1000" 
d="M500 -82q-96 0 -180 36.5t-146.5 99t-99 146.5t-36.5 180t36.5 180t99 146.5t146.5 99t180 36.5t180 -36.5t146.5 -99t99 -146.5t36.5 -180t-36.5 -180.5t-99.5 -147t-147 -98.5t-179 -36zM500 -54q90 0 169 34t138 93t93 138t34 169t-34 169t-93 138t-138 93t-169 34
q-91 0 -170 -34.5t-137.5 -93.5t-92.5 -138t-34 -168q0 -90 34 -169t93 -138t138 -93t169 -34zM592 105v120l3 67q-23 -20 -49.5 -33.5t-57.5 -13.5q-72 0 -112 49t-40 137q0 43 13 77t34.5 58t49.5 36.5t59 12.5q59 0 102 -43h3l6 35h38v-502h-49zM496 289q47 0 96 45v197
q-25 22 -49 31.5t-47 9.5q-45 0 -76.5 -38.5t-31.5 -102.5t25.5 -103t82.5 -39z" />
    <glyph glyph-name="uni24E1" unicode="&#x24e1;" horiz-adv-x="1000" 
d="M500 -82q-96 0 -180 36.5t-146.5 99t-99 146.5t-36.5 180t36.5 180t99 146.5t146.5 99t180 36.5t180 -36.5t146.5 -99t99 -146.5t36.5 -180t-36.5 -180.5t-99.5 -147t-147 -98.5t-179 -36zM500 -54q90 0 169 34t138 93t93 138t34 169t-34 169t-93 138t-138 93t-169 34
q-91 0 -170 -34.5t-137.5 -93.5t-92.5 -138t-34 -168q0 -90 34 -169t93 -138t138 -93t169 -34zM422 196v352h39l6 -62h5q40 70 100 70q11 0 21.5 -1.5t17.5 -4.5l-11 -47q-5 2 -15 4t-18 2q-25 0 -50 -18.5t-45 -63.5v-231h-50z" />
    <glyph glyph-name="uni24E2" unicode="&#x24e2;" horiz-adv-x="1000" 
d="M500 -82q-96 0 -180 36.5t-146.5 99t-99 146.5t-36.5 180t36.5 180t99 146.5t146.5 99t180 36.5t180 -36.5t146.5 -99t99 -146.5t36.5 -180t-36.5 -180.5t-99.5 -147t-147 -98.5t-179 -36zM500 -54q90 0 169 34t138 93t93 138t34 169t-34 169t-93 138t-138 93t-169 34
q-91 0 -170 -34.5t-137.5 -93.5t-92.5 -138t-34 -168q0 -90 34 -169t93 -138t138 -93t169 -34zM506 187q-42 0 -76 14t-60 34l26 36q24 -19 50.5 -31.5t58.5 -12.5q36 0 55 17.5t19 43.5q0 14 -7 24.5t-19 18t-26.5 13.5t-29.5 12q-19 7 -38.5 16t-35 21t-25.5 28.5
t-10 39.5q0 38 29.5 66.5t84.5 28.5q36 0 63.5 -10.5t48.5 -27.5l-26 -33q-20 14 -39 22.5t-45 8.5q-34 0 -50.5 -16.5t-16.5 -36.5q0 -27 25 -40.5t56 -25.5q20 -8 39.5 -15.5t35.5 -19t25.5 -28t9.5 -41.5q0 -46 -33.5 -76t-88.5 -30z" />
    <glyph glyph-name="uni24E3" unicode="&#x24e3;" horiz-adv-x="1000" 
d="M500 -82q-96 0 -180 36.5t-146.5 99t-99 146.5t-36.5 180t36.5 180t99 146.5t146.5 99t180 36.5t180 -36.5t146.5 -99t99 -146.5t36.5 -180t-36.5 -180.5t-99.5 -147t-147 -98.5t-179 -36zM500 -54q90 0 169 34t138 93t93 138t34 169t-34 169t-93 138t-138 93t-169 34
q-91 0 -170 -34.5t-137.5 -93.5t-92.5 -138t-34 -168q0 -90 34 -169t93 -138t138 -93t169 -34zM539 182q-55 0 -75.5 32.5t-20.5 83.5v203h-55v39l55 3l7 102h42v-102h101v-42h-101v-204q0 -34 13.5 -53.5t45.5 -19.5q11 0 21.5 3t21.5 7l11 -39q-14 -5 -32 -9t-34 -4z" />
    <glyph glyph-name="uni24E4" unicode="&#x24e4;" horiz-adv-x="1000" 
d="M500 -82q-96 0 -180 36.5t-146.5 99t-99 146.5t-36.5 180t36.5 180t99 146.5t146.5 99t180 36.5t180 -36.5t146.5 -99t99 -146.5t36.5 -180t-36.5 -180.5t-99.5 -147t-147 -98.5t-179 -36zM500 -54q90 0 169 34t138 93t93 138t34 169t-34 169t-93 138t-138 93t-169 34
q-91 0 -170 -34.5t-137.5 -93.5t-92.5 -138t-34 -168q0 -90 34 -169t93 -138t138 -93t169 -34zM471 187q-63 0 -87 38t-24 98v225h50v-216q0 -46 14.5 -73t60.5 -27q24 0 49.5 13t56.5 45v258h50v-352h-40l-7 51h-3q-23 -25 -53.5 -42.5t-66.5 -17.5z" />
    <glyph glyph-name="uni24E5" unicode="&#x24e5;" horiz-adv-x="1000" 
d="M500 -82q-96 0 -180 36.5t-146.5 99t-99 146.5t-36.5 180t36.5 180t99 146.5t146.5 99t180 36.5t180 -36.5t146.5 -99t99 -146.5t36.5 -180t-36.5 -180.5t-99.5 -147t-147 -98.5t-179 -36zM500 -54q90 0 169 34t138 93t93 138t34 169t-34 169t-93 138t-138 93t-169 34
q-91 0 -170 -34.5t-137.5 -93.5t-92.5 -138t-34 -168q0 -90 34 -169t93 -138t138 -93t169 -34zM470 196l-130 352h51l72 -205l35 -105h4l38 105l71 205h51l-132 -352h-60z" />
    <glyph glyph-name="uni24E6" unicode="&#x24e6;" horiz-adv-x="1000" 
d="M500 -82q-96 0 -180 36.5t-146.5 99t-99 146.5t-36.5 180t36.5 180t99 146.5t146.5 99t180 36.5t180 -36.5t146.5 -99t99 -146.5t36.5 -180t-36.5 -180.5t-99.5 -147t-147 -98.5t-179 -36zM500 -54q90 0 169 34t138 93t93 138t34 169t-34 169t-93 138t-138 93t-169 34
q-91 0 -170 -34.5t-137.5 -93.5t-92.5 -138t-34 -168q0 -90 34 -169t93 -138t138 -93t169 -34zM359 196l-101 352h53l54 -211l24 -98h5l25 98l57 211h50l85 -309h3l80 309h49l-99 -352h-63l-53 197l-26 101h-3l-25 -101l-53 -197h-62z" />
    <glyph glyph-name="uni24E7" unicode="&#x24e7;" horiz-adv-x="1000" 
d="M500 -82q-96 0 -180 36.5t-146.5 99t-99 146.5t-36.5 180t36.5 180t99 146.5t146.5 99t180 36.5t180 -36.5t146.5 -99t99 -146.5t36.5 -180t-36.5 -180.5t-99.5 -147t-147 -98.5t-179 -36zM500 -54q90 0 169 34t138 93t93 138t34 169t-34 169t-93 138t-138 93t-169 34
q-91 0 -170 -34.5t-137.5 -93.5t-92.5 -138t-34 -168q0 -90 34 -169t93 -138t138 -93t169 -34zM349 196l121 184l-112 168h56l89 -137h4l81 137h53l-108 -172l117 -180h-56l-55 84l-39 62h-4l-42 -62l-52 -84h-53z" />
    <glyph glyph-name="uni24E8" unicode="&#x24e8;" horiz-adv-x="1000" 
d="M500 -82q-96 0 -180 36.5t-146.5 99t-99 146.5t-36.5 180t36.5 180t99 146.5t146.5 99t180 36.5t180 -36.5t146.5 -99t99 -146.5t36.5 -180t-36.5 -180.5t-99.5 -147t-147 -98.5t-179 -36zM500 -54q90 0 169 34t138 93t93 138t34 169t-34 169t-93 138t-138 93t-169 34
q-91 0 -170 -34.5t-137.5 -93.5t-92.5 -138t-34 -168q0 -90 34 -169t93 -138t138 -93t169 -34zM407 103q-28 0 -42 7l12 42q8 -2 14.5 -4t12.5 -2q31 0 52 23t33 59l7 25l-143 354h50l78 -202q8 -23 18 -49t19 -53h4q7 23 15 45l4 12q8 22 15 45l65 202h50l-134 -381
q-9 -25 -20.5 -47.5t-27.5 -39t-36 -26.5t-46 -10z" />
    <glyph glyph-name="uni24E9" unicode="&#x24e9;" horiz-adv-x="1000" 
d="M500 -82q-96 0 -180 36.5t-146.5 99t-99 146.5t-36.5 180t36.5 180t99 146.5t146.5 99t180 36.5t180 -36.5t146.5 -99t99 -146.5t36.5 -180t-36.5 -180.5t-99.5 -147t-147 -98.5t-179 -36zM500 -54q90 0 169 34t138 93t93 138t34 169t-34 169t-93 138t-138 93t-169 34
q-91 0 -170 -34.5t-137.5 -93.5t-92.5 -138t-34 -168q0 -90 34 -169t93 -138t138 -93t169 -34zM367 196v27l198 283h-175v42h240v-30l-198 -281h203v-41h-268z" />
    <glyph glyph-name="shade" unicode="&#x2592;" horiz-adv-x="1000" 
d="M1000 630l-250 250h50l200 -200v-50zM1000 380l-500 500h50l450 -450v-50zM1000 130l-750 750h50l700 -700v-50zM1000 -120l-1000 1000h50l950 -950v-50zM750 -120l-750 750v50l800 -800h-50zM500 -120l-500 500v50l550 -550h-50zM250 -120l-250 250v50l300 -300h-50z
M0 -120v50l50 -50h-50z" />
    <glyph glyph-name="filledbox" unicode="&#x25a0;" horiz-adv-x="1000" 
d="M100 780h800v-800h-800v800z" />
    <glyph glyph-name="uni25A1" unicode="&#x25a1;" horiz-adv-x="1000" 
d="M100 780h800v-800h-800v800zM133 747v-734h734v734h-734z" />
    <glyph glyph-name="uni25A3" unicode="&#x25a3;" horiz-adv-x="1000" 
d="M100 780h800v-800h-800v800zM133 747v-734h734v734h-734zM344 224v312h312v-312h-312z" />
    <glyph glyph-name="uni25A4" unicode="&#x25a4;" horiz-adv-x="1000" 
d="M100 780h800v-800h-800v800zM867 747h-734v-158h734v158zM133 396h734v160h-734v-160zM867 364h-734v-160h734v160zM133 13h734v158h-734v-158z" />
    <glyph glyph-name="uni25A5" unicode="&#x25a5;" horiz-adv-x="1000" 
d="M100 780h800v-800h-800v800zM867 13v734h-158v-734h158zM133 747v-734h158v734h-158zM484 13v734h-160v-734h160zM516 747v-734h160v734h-160z" />
    <glyph glyph-name="uni25A6" unicode="&#x25a6;" horiz-adv-x="1000" 
d="M100 780h800v-800h-800v800zM291 747h-158v-158h158v158zM484 589v158h-160v-158h160zM516 589h160v158h-160v-158zM867 589v158h-158v-158h158zM709 396h158v160h-158v-160zM291 396v160h-158v-160h158zM484 556h-160v-160h160v160zM676 556h-160v-160h160v160zM709 364
v-160h158v160h-158zM516 204h160v160h-160v-160zM324 364v-160h160v160h-160zM291 364h-158v-160h158v160zM709 13h158v158h-158v-158zM133 171v-158h158v158h-158zM516 171v-158h160v158h-160zM484 171h-160v-158h160v158z" />
    <glyph glyph-name="uni25A7" unicode="&#x25a7;" horiz-adv-x="1000" 
d="M100 780h800v-800h-800v800zM867 605v142h-142zM867 371l-376 376h-144l520 -521v145zM867 417v141l-188 189h-142zM156 747l711 -711v145l-566 566h-145zM133 579l566 -566h145l-711 711v-145zM133 389l376 -376h144l-520 520v-144zM133 343v-142l188 -188h142zM133 155
v-142h142z" />
    <glyph glyph-name="uni25A8" unicode="&#x25a8;" horiz-adv-x="1000" 
d="M100 780h800v-800h-800v800zM276 747h-143v-142zM700 747l-567 -566v-147l713 713h-146zM133 417l331 330h-142l-189 -188v-142zM510 747l-377 -376v-144l521 520h-144zM304 13l563 565v145l-708 -710h145zM493 13l374 375v144l-518 -519h144zM867 342l-328 -329h142
l186 187v142zM727 13h140v141z" />
    <glyph glyph-name="uni25A9" unicode="&#x25a9;" horiz-adv-x="1000" 
d="M100 780h800v-800h-800v800zM725 747l61 -60l60 60h-121zM595 689l59 58h-117zM405 689l59 58h-117zM216 687l60 60h-120zM500 593l72 73l-72 72l-72 -72zM310 593l72 73l-71 71l-72 -73zM692 593l70 70l-73 73l-71 -70zM193 664l-60 60v-119zM808 664l59 -59v118z
M477 571l-72 72l-72 -73l72 -72zM596 497l73 73l-74 73l-72 -73zM287 570l-71 71l-73 -72l71 -71zM787 497l70 71l-72 73l-71 -71zM428 475l73 -73l73 73l-74 73zM237 475l72 -72l73 72l-72 72zM691 402l73 72l-73 73l-72 -73zM191 475l-58 58v-116zM810 474l57 -57v115z
M286 380l-72 72l-72 -72l72 -72zM332 380l74 -73l72 72l-73 73zM524 379l72 -72l73 72l-73 73zM714 379l72 -72l73 72l-72 72zM309 357l-72 -72l74 -73l72 72zM501 356l-72 -73l72 -72l73 72zM692 356l-73 -72l72 -72l73 72zM191 285l-58 58v-116zM809 284l58 -58v116z
M214 262l-71 -71l74 -73l71 71zM714 189l71 -71l73 72l-71 71zM524 188l72 -72l72 73l-72 72zM334 188l72 -72l72 72l-72 72zM691 166l-72 -73l71 -71l72 73zM311 165l-71 -71l72 -72l71 71zM501 165l-72 -72l72 -72l72 72zM194 95l-61 60v-121zM808 95l59 -59v118zM785 72
l-58 -59h117zM217 71l-58 -58h116zM596 70l-57 -57h114zM406 70l-57 -57h114z" />
    <glyph glyph-name="triagup" unicode="&#x25b2;" horiz-adv-x="1000" 
d="M500 826l470 -814h-940z" />
    <glyph glyph-name="uni25B3" unicode="&#x25b3;" horiz-adv-x="1000" 
d="M500 826l470 -814h-940zM500 760l-413 -715h826z" />
    <glyph glyph-name="uni25B6" unicode="&#x25b6;" horiz-adv-x="1000" 
d="M936 377l-814 -470v940z" />
    <glyph glyph-name="uni25B7" unicode="&#x25b7;" horiz-adv-x="1000" 
d="M936 377l-814 -470v940zM870 377l-715 413v-826z" />
    <glyph glyph-name="triagdn" unicode="&#x25bc;" horiz-adv-x="1000" 
d="M30 748h940l-470 -814z" />
    <glyph glyph-name="uni25BD" unicode="&#x25bd;" horiz-adv-x="1000" 
d="M30 748h940l-470 -814zM913 715h-826l413 -715z" />
    <glyph glyph-name="uni25C0" unicode="&#x25c0;" horiz-adv-x="1000" 
d="M878 847v-940l-814 470z" />
    <glyph glyph-name="uni25C1" unicode="&#x25c1;" horiz-adv-x="1000" 
d="M878 847v-940l-814 470zM845 -36v826l-715 -413z" />
    <glyph glyph-name="uni25C6" unicode="&#x25c6;" horiz-adv-x="1000" 
d="M500 868l488 -488l-488 -488l-488 488z" />
    <glyph glyph-name="uni25C7" unicode="&#x25c7;" horiz-adv-x="1000" 
d="M500 868l488 -488l-488 -488l-488 488zM500 821l-441 -441l441 -441l441 441z" />
    <glyph glyph-name="uni25C8" unicode="&#x25c8;" horiz-adv-x="1000" 
d="M500 868l488 -488l-488 -488l-488 488zM500 821l-441 -441l441 -441l441 441zM157 380l343 343l343 -343l-343 -343z" />
    <glyph glyph-name="circle" unicode="&#x25cb;" horiz-adv-x="1000" 
d="M500 -70q-93 0 -175 35.5t-143 96.5t-96.5 143t-35.5 175t35.5 175t96.5 143t143 96.5t175 35.5t175 -35.5t143 -96.5t96.5 -143t35.5 -175t-35.5 -175t-96.5 -143t-143 -96.5t-175 -35.5zM83 380q0 -86 33 -162t89.5 -132.5t132.5 -89.5t162 -33t162 33t132.5 89.5
t89.5 132.5t33 162t-33 162t-89.5 132.5t-132.5 89.5t-162 33t-162 -33t-132.5 -89.5t-89.5 -132.5t-33 -162z" />
    <glyph glyph-name="uni25CE" unicode="&#x25ce;" horiz-adv-x="1000" 
d="M50 380q0 93 35.5 175t96.5 143t143 96.5t175 35.5t175 -35.5t143 -96.5t96.5 -143t35.5 -175t-35.5 -175t-96.5 -143t-143 -96.5t-175 -35.5t-175 35.5t-143 96.5t-96.5 143t-35.5 175zM917 380q0 86 -33 162t-89.5 132.5t-132.5 89.5t-162 33t-162 -33t-132.5 -89.5
t-89.5 -132.5t-33 -162t33 -162t89.5 -132.5t132.5 -89.5t162 -33t162 33t132.5 89.5t89.5 132.5t33 162zM203 380q0 62 23 116t63.5 94.5t94.5 63.5t116 23t116 -23t94.5 -63.5t63.5 -94.5t23 -116t-23 -116t-63.5 -94.5t-94.5 -63.5t-116 -23t-116 23t-94.5 63.5
t-63.5 94.5t-23 116zM770 380q0 56 -21 105t-58 86t-86 58t-105 21t-105 -21t-86 -58t-58 -86t-21 -105t21 -105t58 -86t86 -58t105 -21t105 21t86 58t58 86t21 105z" />
    <glyph glyph-name="uni25CF" unicode="&#x25cf;" horiz-adv-x="1000" 
d="M500 -70q-93 0 -175 35.5t-143 96.5t-96.5 143t-35.5 175t35.5 175t96.5 143t143 96.5t175 35.5t175 -35.5t143 -96.5t96.5 -143t35.5 -175t-35.5 -175t-96.5 -143t-143 -96.5t-175 -35.5z" />
    <glyph glyph-name="uni25D0" unicode="&#x25d0;" horiz-adv-x="1000" 
d="M940 380q0 -91 -34.5 -171t-94.5 -140t-140 -94.5t-171 -34.5t-171 34.5t-140 94.5t-94.5 140t-34.5 171t34.5 171t94.5 140t140 94.5t171 34.5t171 -34.5t140 -94.5t94.5 -140t34.5 -171zM500 793v-826q86 0 161 32.5t131 88.5t88.5 131.5t32.5 160.5q0 86 -32.5 161
t-88.5 131t-131 88.5t-161 32.5z" />
    <glyph glyph-name="uni25D1" unicode="&#x25d1;" horiz-adv-x="1000" 
d="M940 380q0 -91 -34.5 -171t-94.5 -140t-140 -94.5t-171 -34.5t-171 34.5t-140 94.5t-94.5 140t-34.5 171t34.5 171t94.5 140t140 94.5t171 34.5t171 -34.5t140 -94.5t94.5 -140t34.5 -171zM500 -33v826q-85 0 -160.5 -32.5t-131.5 -88.5t-88.5 -131t-32.5 -161
q0 -85 32.5 -160.5t88.5 -131.5t131.5 -88.5t160.5 -32.5z" />
    <glyph glyph-name="uni2605" unicode="&#x2605;" horiz-adv-x="1000" 
d="M611 484h351v-2l-284 -206l111 -338h-2l-287 208l-287 -208h-2l111 338l-284 206v2h351l110 337h2z" />
    <glyph glyph-name="uni2606" unicode="&#x2606;" horiz-adv-x="1000" 
d="M389 484l107 337h8l107 -337h351v-8l-284 -200l113 -335l-6 -5l-285 210l-285 -210l-6 5l113 335l-284 200v8h351zM413 451h-206l-88 5v-2l79 -51l163 -114l-60 -179l-38 -99l2 -1l86 66l149 110l149 -110l86 -66l2 1l-38 99l-60 179l163 114l79 51v2l-89 -5h-205
l-62 194l-24 88h-2l-24 -88z" />
    <glyph glyph-name="uni260E" unicode="&#x260e;" horiz-adv-x="1000" 
d="M329 570h-107l41 -106q5 -12 3.5 -23t-16.5 -14l-182 -31q-28 -3 -28 28q0 17 1.5 41.5t7.5 50t16.5 48.5t28.5 37q32 24 69.5 42.5t85.5 31.5t109.5 19.5t141.5 6.5t141.5 -6.5t109.5 -19.5t85.5 -31.5t69.5 -42.5q18 -14 28.5 -37t16.5 -48.5t7.5 -50t1.5 -41.5
q0 -31 -28 -28l-182 31q-15 3 -16.5 14t3.5 23l41 106h-107v-64q0 -52 31 -96t88 -98q52 -51 72 -111.5t20 -126.5q0 -24 -10 -35.5t-36 -11.5h-672q-26 0 -36 11.5t-10 35.5q0 66 20 126.5t72 111.5q57 54 88 98t31 96v64zM585 570h-170v-96h170v96zM332 250
q0 -35 13 -65.5t36 -53.5t53.5 -36t65.5 -13t65.5 13t53.5 36t36 53.5t13 65.5t-13 65.5t-36 53.5t-53.5 36t-65.5 13t-65.5 -13t-53.5 -36t-36 -53.5t-13 -65.5z" />
    <glyph glyph-name="uni260F" unicode="&#x260f;" horiz-adv-x="1000" 
d="M315 556h-73l34 -87v1q6 -15 3 -33t-27 -24l-182 -31q-19 -2 -31.5 10t-12.5 32q0 16 2 42t8 53.5t18 52.5t31 40q32 25 71 44.5t88.5 32.5t112.5 19.5t143 6.5t143 -6.5t112.5 -19.5t88.5 -32.5t71 -44.5q20 -15 31.5 -40t17.5 -52.5t8 -53.5t2 -42q0 -20 -12.5 -32
t-31.5 -10l-183 31q-23 6 -26 24.5t3 32.5v-1l34 87h-73v-50q0 -49 29.5 -89.5t85.5 -94.5q54 -54 75 -116.5t21 -131.5q0 -28 -14.5 -44.5t-45.5 -16.5h-672q-31 0 -45.5 16.5t-14.5 44.5q0 69 21 131.5t75 116.5q56 54 85.5 94.5t29.5 89.5v50zM250 459l-48 125h141v-78
q0 -57 -33 -103.5t-90 -100.5q-51 -48 -69.5 -105t-18.5 -123q0 -19 6.5 -26t25.5 -7h672q19 0 25.5 7t6.5 26q0 66 -18.5 123t-69.5 105q-56 54 -89.5 101t-33.5 103v78h141l-48 -125v-1q-8 -16 2 -17l182 -31q12 -1 12 14q0 16 -1.5 39.5t-7 47.5t-15 45.5t-25.5 33.5
q-31 24 -67 42t-83.5 30t-107.5 18.5t-139 6.5t-139 -6.5t-107.5 -18.5t-83.5 -30t-67 -42q-16 -12 -25.5 -33.5t-15 -45.5t-7 -47.5t-1.5 -39.5q0 -15 12 -14l181 31q10 1 3 17v1zM401 460v124h198v-124h-198zM571 556h-142v-68h142v68zM682 250q0 -37 -14.5 -70t-39.5 -58
t-58 -39.5t-70 -14.5t-70 14.5t-58 39.5t-39.5 58t-14.5 70t14.5 70t39.5 58t58 39.5t70 14.5t70 -14.5t58 -39.5t39.5 -58t14.5 -70zM346 250q0 -32 12 -60t33 -49t49 -33t60 -12t60 12t49 33t33 49t12 60t-12 60t-33 49t-49 33t-60 12t-60 -12t-49 -33t-33 -49t-12 -60z
" />
    <glyph glyph-name="uni261C" unicode="&#x261c;" horiz-adv-x="1000" 
d="M950 183l-79 9q-10 2 -21 -3q-72 -33 -150 -54t-157 -21q-12 0 -26 1t-27.5 2.5t-24 3.5t-16.5 4h-8l-9 -1q-43 0 -74 20.5t-34 67.5q0 3 -2 3q-1 1 -1.5 1t-1.5 1l-5 1q-1 1 -1.5 1t-1.5 1q-38 23 -41 79q0 6 -4 7q-24 12 -33 31q-11 20 -8 43t18 38l3 2l1 1
q2 2 0.5 3.5t-3.5 1.5q-36 0 -73.5 -1t-57.5 1q-50 4 -67.5 22.5t-17.5 40.5q0 18 8 30t20.5 19.5t27.5 12t29 7.5q28 5 85 11t120.5 11t123 9t92.5 4q61 0 145.5 -23t187.5 -66q1 -1 9 -1l74 9q8 1 11.5 -3.5t3.5 -10.5v-301q0 1 -2 -7q-4 -7 -13 -7zM928 482l-54 -7h-6.5
t-6.5 2q-44 19 -88 35t-83 27t-71.5 17.5t-54.5 6.5q-38 0 -61.5 -6.5t-49.5 -23.5q-14 -10 -39.5 -29t-43.5 -39q-14 -15 -17.5 -24t-0.5 -14q7 -14 27 -16.5t46 5.5q32 9 66 20t54 18q7 2 11.5 4t6.5 3q4 2 9 1t7 -5q8 -11 28 -26.5t52 -32.5t66 -26t64 -9q5 0 11 -3t6 -8
t-5 -9.5t-12 -6.5q-28 -8 -56 -9t-66 3q-31 3 -44.5 -15.5t-13.5 -41.5q0 -27 -6.5 -46.5t-18.5 -33.5t-30 -25.5t-41 -22.5q-2 0 -1.5 -1.5t1.5 -1.5q26 -2 54.5 -1t58.5 6q55 9 109.5 26.5t114.5 45.5q3 2 6.5 2h6.5l63 -8q12 0 12 10v251q0 8 -10 8zM269 454q28 0 41 4
q10 2 20 7t17 13q15 16 36 32t36 30v1l1 1q2 8 0 16q0 3 -3 3q-41 -3 -85.5 -6.5t-86 -7.5t-75 -8t-52.5 -8q-24 -5 -36.5 -10.5t-18.5 -11.5t-7 -11t-1 -9q0 -12 10.5 -22.5t49.5 -13.5q11 -1 29.5 -1t40 0.5t43.5 1t41 0.5zM301 324q20 -4 38.5 -4t26.5 2q15 2 35 5.5
t40 9.5t38 14.5t29 19.5q8 8 9.5 15.5t-0.5 15.5q-3 10 -15 7q-14 -4 -33 -9t-36 -10q-18 -4 -33 -5.5t-29 1.5q-17 3 -27.5 11t-18.5 26q-2 5 -7 6t-9 -1q-28 -10 -47 -29q-11 -10 -10.5 -24.5t5.5 -25.5q5 -12 18.5 -17.5t25.5 -7.5zM392 232q15 0 43 7t55 19.5t47.5 29
t20.5 35.5q0 15 -9 25q-4 3 -9.5 4t-11.5 -3q-14 -7 -29.5 -15t-29.5 -14q-28 -12 -61.5 -19t-71.5 -7h-16q-8 0 -17 2q-5 0 -5 -5q4 -21 12 -32.5t20 -17.5t28 -7.5t34 -1.5zM427 151q32 0 71 16t64 43q11 11 11.5 22t-1.5 16q-5 14 -15 13.5t-19 -6.5q-16 -11 -35.5 -20
t-39.5 -16t-38.5 -10.5t-32.5 -3.5q-9 0 -18.5 0.5t-17.5 1.5q-4 0 -4 -3q7 -28 27 -40.5t48 -12.5z" />
    <glyph glyph-name="uni261E" unicode="&#x261e;" horiz-adv-x="1000" 
d="M464 593q33 0 92.5 -4t123.5 -9t120.5 -11t84.5 -11q14 -3 29 -7.5t27.5 -12t20.5 -19.5t8 -30q0 -22 -17.5 -40.5t-67.5 -22.5q-20 -2 -57.5 -1t-73.5 1q-2 0 -3.5 -1.5t0.5 -3.5q1 0 1 -1l3 -2q15 -15 18 -38t-8 -43q-9 -19 -33 -31q-4 -1 -4 -7q-3 -56 -41 -79
q-1 -1 -1.5 -1t-1.5 -1l-5 -1q-1 -1 -1.5 -1t-1.5 -1q-2 0 -2 -3q-3 -46 -34 -67t-74 -21l-9 1h-8q-6 -2 -16.5 -4t-24 -3.5t-27.5 -2.5t-26 -1q-79 0 -157 21t-150 54q-10 5 -21 3l-79 -9q-9 0 -13 7q-2 8 -2 7v301q0 6 3.5 10.5t11.5 3.5l74 -9q8 0 9 1q103 43 187.5 66
t145.5 23zM148 219q60 -28 114.5 -45.5t109.5 -26.5q30 -5 58.5 -6t54.5 1q1 0 1.5 1.5t-1.5 1.5q-23 11 -41 22.5t-30 25.5t-18.5 33.5t-6.5 46.5q0 23 -13.5 41.5t-44.5 15.5q-38 -4 -66 -3t-56 9q-7 2 -12 6.5t-5 9.5t6 8t11 3q30 0 64 9t66 26t52 32.5t28 26.5q2 4 7 5
t9 -1t18 -7q20 -7 54 -18t66 -20q26 -8 46 -5.5t27 16.5q3 5 -0.5 14t-17.5 24q-18 20 -43.5 39t-39.5 29q-26 17 -49.5 23.5t-61.5 6.5q-22 0 -54.5 -6.5t-71.5 -17.5t-83 -27t-88 -35q-3 -2 -6.5 -2h-6.5l-54 7q-10 0 -10 -8v-251q0 -10 12 -10l63 8h6.5t6.5 -2zM729 454
q19 0 41 -0.5t43.5 -1t40 -0.5t29.5 1q39 3 49.5 13.5t10.5 22.5q0 4 -1 9t-7 11t-18.5 11.5t-36.5 10.5q-19 4 -52.5 8t-75 8t-86 7.5t-85.5 6.5q-3 0 -3 -3q-2 -8 0 -16l1 -1v-1q15 -14 36 -30t36 -32q7 -8 17 -13t20 -7q13 -4 41 -4zM697 324q12 2 25.5 7.5t18.5 17.5
q5 11 5.5 25.5t-10.5 24.5q-16 18 -47 29q-4 2 -9 1t-7 -6q-8 -18 -18.5 -26t-27.5 -11q-14 -3 -29 -1.5t-33 5.5q-17 5 -36 10t-33 9q-12 3 -15 -7q-2 -8 -0.5 -15.5t9.5 -15.5q11 -11 29 -19.5t38 -14.5t40 -9.5t35 -5.5q8 -2 26.5 -2t38.5 4zM606 232q18 0 34 1.5t28 7.5
t20 17.5t12 32.5q0 5 -5 5q-9 -2 -17 -2h-16q-38 0 -71.5 7t-61.5 19q-14 6 -29.5 14t-29.5 15q-6 4 -11.5 3t-9.5 -4q-9 -10 -9 -25q0 -19 20.5 -35.5t47.5 -29t55 -19.5t43 -7zM571 151q28 0 48 12.5t27 40.5q0 3 -4 3q-8 -1 -17.5 -1.5t-18.5 -0.5q-14 0 -32.5 3.5
t-38.5 10.5t-39.5 16t-35.5 20q-9 6 -19 6.5t-15 -13.5q-2 -5 -1.5 -16t11.5 -22q24 -25 62 -42t73 -17z" />
    <glyph glyph-name="female" unicode="&#x2640;" horiz-adv-x="1000" 
d="M294 614q0 43 16 80.5t44 65.5t65.5 44t80.5 16t80.5 -16t65.5 -44t44 -65.5t16 -80.5q0 -39 -13.5 -74.5t-38 -63t-57.5 -45.5t-72 -23v-122h293v-50h-293v-296h-50v296h-293v50h293v122q-39 5 -72 23t-57.5 45.5t-38 63t-13.5 74.5zM657 614q0 33 -12.5 61.5
t-33.5 49.5t-49.5 33.5t-61.5 12.5t-61.5 -12.5t-49.5 -33.5t-33.5 -49.5t-12.5 -61.5t12.5 -61.5t33.5 -49.5t49.5 -33.5t61.5 -12.5t61.5 12.5t49.5 33.5t33.5 49.5t12.5 61.5z" />
    <glyph glyph-name="male" unicode="&#x2642;" horiz-adv-x="1000" 
d="M532 205q0 -42 -16.5 -79.5t-44.5 -65.5t-65.5 -44.5t-80.5 -16.5q-42 0 -79.5 16.5t-65.5 44.5t-44.5 65.5t-16.5 79.5q0 43 16.5 80.5t44.5 65.5t65.5 44.5t79.5 16.5q71 0 127 -44l317 316h-282v49h366v-366h-49v283l-317 -317q22 -26 33.5 -59.5t11.5 -68.5zM169 205
q0 -33 12 -61.5t33 -49.5t49.5 -33t61.5 -12t61.5 12t49.5 33t33.5 49.5t12.5 61.5t-12.5 61.5t-33.5 49.5t-49.5 33.5t-61.5 12.5t-61.5 -12.5t-49.5 -33.5t-33 -49.5t-12 -61.5z" />
    <glyph glyph-name="spade" unicode="&#x2660;" horiz-adv-x="1000" 
d="M727 599q27 -26 60.5 -58.5t62 -71.5t48 -85t19.5 -100q0 -44 -14.5 -83.5t-40.5 -69.5t-63 -47.5t-82 -17.5q-57 0 -101.5 27t-63.5 70l-7 17q-3 5 -9 5q-5 0 -5.5 -8t-0.5 -10q3 -39 11 -69.5t20.5 -55t29.5 -44t38 -37.5q8 -8 5.5 -14t-5.5 -6h-258q-3 0 -6 6t6 14
q21 18 38 37.5t29.5 44t20.5 55t11 69.5q0 2 -0.5 10t-5.5 8q-6 0 -8 -5l-8 -17q-19 -43 -63.5 -70t-101.5 -27q-45 0 -81.5 17.5t-63 47.5t-41 69.5t-14.5 83.5q0 54 19.5 100t48 85t62 71.5t60.5 58.5q33 32 67 67.5t64.5 69.5t55 64.5t38.5 51.5q2 8 4 0
q13 -21 37.5 -51.5t55 -64.5t65 -69.5t67.5 -67.5z" />
    <glyph glyph-name="uni2661" unicode="&#x2661;" horiz-adv-x="1000" 
d="M503 645q16 42 39.5 71t51.5 47t58.5 26t60.5 8q44 0 82 -18.5t66.5 -51t45 -77t16.5 -95.5q0 -55 -19.5 -103t-49 -88.5t-63.5 -74t-63 -60.5q-34 -33 -68 -70.5t-64 -73.5t-54.5 -68.5t-38.5 -54.5q-2 -8 -4 0q-14 22 -38.5 54.5t-54.5 68.5t-64 73.5t-68 70.5
q-29 27 -63 60.5t-63.5 74t-49 88.5t-19.5 103q0 51 16.5 95.5t45 77t67 51t81.5 18.5q31 0 61 -8t57.5 -26t51 -47t40.5 -71q2 -10 4 0zM890 555q0 45 -14 83t-38 66.5t-56.5 44.5t-68.5 16q-67 0 -112.5 -37t-75.5 -113q-7 -24 -24 -24q-16 0 -24 24q-30 76 -75.5 113
t-112.5 37q-36 0 -68.5 -16t-56.5 -44.5t-38 -66.5t-14 -83q0 -48 18.5 -92t46.5 -82.5t60 -71t59 -57.5q33 -31 63.5 -63.5t57.5 -63t48 -58.5t34 -49q2 -8 4 0q13 21 34.5 49t48 58.5t57.5 63t63 63.5q27 25 59 57.5t59.5 71t46.5 82.5t19 92z" />
    <glyph glyph-name="club" unicode="&#x2663;" horiz-adv-x="1000" 
d="M464 185q-6 0 -7.5 -5.5t-8.5 -16.5q-28 -45 -75.5 -74.5t-107.5 -29.5q-42 0 -79 15t-64 42t-42.5 64t-15.5 82q0 43 15 80t42 64.5t64 43.5t81 16q23 0 46 -7t40 -16q1 -1 3 -1q3 0 4 3q2 3 0 6l-3 3q-26 25 -44 62t-18 82q0 43 16 80.5t44 66t65.5 45t80.5 16.5
t80.5 -16.5t65.5 -44.5t44 -65.5t16 -80.5q0 -45 -18 -82.5t-44 -62.5l-3 -3q-1 -4 0 -6q2 -3 4 -3t3 1q17 9 40.5 16t44.5 7q45 0 82 -16t64 -43.5t42 -64.5t15 -80q0 -45 -15.5 -82t-42.5 -64t-64 -42t-79 -15q-57 0 -104.5 28t-78.5 76q-7 11 -8.5 16.5t-7.5 5.5
q-5 0 -5.5 -8t-0.5 -10q3 -39 11 -69.5t20.5 -55t29.5 -44t38 -37.5q9 -8 6 -14t-6 -6h-257q-4 0 -6.5 6t5.5 14q21 18 38 37.5t29.5 44t20.5 55t11 69.5q0 2 -0.5 10t-5.5 8z" />
    <glyph glyph-name="uni2664" unicode="&#x2664;" horiz-adv-x="1000" 
d="M639 -60h-278q-3 0 -5.5 6.5t5.5 14.5q39 35 62.5 76t28.5 99q2 11 2 20.5t-1 9.5t-4.5 -7.5t-10.5 -17.5q-24 -36 -64.5 -56t-91.5 -20q-45 0 -82 18t-63 48t-40.5 70t-14.5 83q0 54 19.5 100.5t48 85.5t62 71.5t60.5 58.5q34 32 68.5 67.5t64.5 69.5t54.5 64.5
t38.5 51.5q2 8 4 0q13 -21 37.5 -51.5t55 -64.5t65 -69.5t68.5 -67.5q27 -26 60.5 -58.5t62 -71.5t48 -85.5t19.5 -100.5q0 -43 -14.5 -83t-41 -70t-63 -48t-81.5 -18q-51 0 -91.5 20t-64.5 56q-7 10 -10.5 17.5t-4.5 7.5t-1 -9.5t2 -20.5q5 -58 28.5 -99t62.5 -76
q8 -8 5.5 -14.5t-5.5 -6.5zM426 -27h148q3 0 -0.5 5.5t-9.5 13.5q-20 28 -34.5 66t-14.5 101q0 26 5.5 41.5t18.5 15.5q11 0 18 -11t22 -33q25 -35 59 -54.5t80 -19.5q38 0 69 15t52.5 40.5t33.5 59.5t12 72q0 48 -18.5 90.5t-45.5 78.5t-58 66t-56 54q-31 29 -62 60.5
t-58.5 61.5t-49.5 56.5t-35 46.5q-2 8 -4 0q-13 -19 -35.5 -46t-50 -57t-58.5 -61.5t-62 -60.5q-25 -24 -55.5 -54t-57.5 -66t-45.5 -78.5t-18.5 -90.5q0 -38 12 -72t33.5 -59.5t52.5 -40.5t69 -15q46 0 80 19.5t59 54.5q15 22 22 33t18 11q13 0 18.5 -15.5t5.5 -41.5
q0 -63 -14.5 -101t-34.5 -66q-6 -8 -9.5 -13.5t-0.5 -5.5z" />
    <glyph glyph-name="heart" unicode="&#x2665;" horiz-adv-x="1000" 
d="M505 636q22 83 79 121.5t128 38.5q43 0 81 -18.5t66.5 -51t45 -76.5t16.5 -95q0 -55 -20 -103t-49 -88.5t-63 -74t-62 -60.5q-34 -33 -68 -70.5t-64 -73.5t-54.5 -68t-38.5 -54q-2 -8 -4 0q-14 22 -38.5 54t-54.5 68t-64 73.5t-68 70.5q-28 27 -62 60.5t-63 74t-49 88.5
t-20 103q0 51 16.5 95t45 76.5t66.5 51t81 18.5q35 0 67.5 -9.5t60 -29t48 -49.5t31.5 -72q1 -7 5 -7t5 7z" />
    <glyph glyph-name="uni2667" unicode="&#x2667;" horiz-adv-x="1000" 
d="M63 262q0 43 15 80.5t41.5 65.5t63.5 44t82 16q22 0 46.5 -6t38.5 -13q2 -1 2.5 -0.5t-1.5 2.5q-23 23 -40.5 62t-17.5 87q0 43 16.5 80.5t44.5 65.5t65.5 44.5t80.5 16.5t80.5 -16.5t65.5 -44.5t44.5 -65.5t16.5 -80.5q0 -48 -17 -86.5t-41 -62.5q-3 -3 1 -2
q14 7 38.5 13t46.5 6q45 0 82 -16t63.5 -44t41.5 -65.5t15 -80.5q0 -45 -15.5 -82.5t-42.5 -64.5t-64 -42t-79 -15q-57 0 -102.5 25.5t-71.5 60.5q-7 10 -10 16.5t-4 6.5t-1.5 -10t1.5 -21q5 -60 29 -100t62 -75q8 -8 5.5 -14.5t-5.5 -6.5h-278q-3 0 -5.5 6.5t5.5 14.5
q38 35 62 75t29 100q2 11 1.5 21t-1.5 10t-4 -6.5t-10 -16.5q-27 -38 -72 -62t-102 -24q-42 0 -79 15t-64 42t-42.5 64.5t-15.5 82.5zM345 418q-16 6 -35.5 11.5t-46.5 5.5q-36 0 -66.5 -13t-53 -36.5t-35 -55t-12.5 -68.5t13 -68t36 -54t53.5 -36t65.5 -13q51 0 92.5 24
t70.5 70q9 14 15.5 23t17.5 9q13 0 19 -16t6 -42q0 -62 -14.5 -100t-37.5 -71q-5 -8 -7.5 -11.5t0.5 -3.5h148q3 0 0.5 3.5t-7.5 11.5q-23 33 -37.5 71t-14.5 100q0 26 6 42t19 16q11 0 19 -12t24 -34q26 -37 64 -58.5t89 -21.5q35 0 65.5 13t53.5 36t36 54t13 68
t-12.5 68.5t-35 55t-53 36.5t-66.5 13q-27 0 -46.5 -6t-35.5 -11q-36 -14 -46 2q-8 10 -2.5 22t18.5 27q20 23 34 56t14 75q0 35 -13.5 66.5t-37 55.5t-55 38t-67.5 14t-67.5 -14t-55 -38t-37 -55.5t-13.5 -66.5q0 -42 14.5 -75.5t33.5 -55.5q13 -15 18.5 -27t-2.5 -22
q-9 -15 -46 -2z" />
    <glyph glyph-name="uni2668" unicode="&#x2668;" horiz-adv-x="1000" 
d="M467 457q-20 42 -31.5 80t-11.5 67q0 58 20.5 105.5t80.5 87.5l25 -15q-37 -32 -54.5 -69t-17.5 -70q0 -32 12.5 -70t32.5 -80t31.5 -80t11.5 -68q0 -57 -20.5 -104.5t-80.5 -87.5l-25 15q37 32 54.5 69t17.5 70q0 32 -12.5 70t-32.5 80zM293 459q-20 36 -30.5 70.5
t-10.5 60.5q0 49 19.5 90.5t76.5 77.5l22 -17q-35 -28 -50.5 -58t-15.5 -59q0 -28 12.5 -62t32.5 -71q20 -36 30.5 -70t10.5 -60q0 -52 -18.5 -92.5t-76.5 -76.5l-21 17q35 28 49.5 58.5t14.5 58.5t-12.5 62.5t-32.5 70.5zM644 459q-20 36 -30.5 70.5t-10.5 60.5
q0 49 19 90.5t76 77.5l22 -17q-35 -27 -50 -57.5t-15 -59.5q0 -27 12.5 -61.5t32.5 -71.5q20 -36 30.5 -70t10.5 -60q0 -52 -18.5 -92.5t-76.5 -76.5l-22 17q35 28 50 59t15 58q0 28 -12.5 62.5t-32.5 70.5zM920 234q0 -52 -31.5 -97t-87 -78t-132.5 -52t-169 -19
q-91 0 -168.5 19t-133 52t-87 78t-31.5 97q0 63 41 105.5t108 59.5l15 -24q-48 -15 -76.5 -45.5t-28.5 -76.5q0 -41 27.5 -76.5t76 -61.5t114.5 -40.5t143 -14.5t143 14.5t114.5 40.5t76 61.5t27.5 76.5q0 46 -28.5 76.5t-76.5 45.5l15 24q67 -17 108 -59.5t41 -105.5z" />
    <glyph glyph-name="uni2669" unicode="&#x2669;" horiz-adv-x="1000" 
d="M518 840h40v-750q0 -39 -15 -70.5t-40.5 -53.5t-58.5 -34t-69 -12q-17 0 -34 4.5t-30 14t-21 23.5t-8 32q0 27 15.5 51.5t40 44t55.5 31t62 11.5q17 0 34.5 -3.5t28.5 -9.5v721z" />
    <glyph glyph-name="musicalnote" unicode="&#x266a;" horiz-adv-x="1000" 
d="M486 840h25q0 -36 9.5 -67.5t25.5 -58.5t37 -50.5t44 -43.5t46 -44.5t41.5 -53t30 -60.5t11.5 -67q0 -63 -24 -124.5t-60 -119.5h-26q8 17 19 41t21 51.5t16.5 57.5t6.5 60q0 44 -14 82t-38.5 68t-58 51t-72.5 30v-502q0 -39 -15 -70.5t-40.5 -53.5t-58.5 -34t-69 -12
q-17 0 -34 4.5t-30 14t-21 23.5t-8 32q0 27 15.5 51.5t40 44t55.5 31t62 11.5q17 0 34.5 -3.5t28.5 -9.5v721z" />
    <glyph glyph-name="uni266C" unicode="&#x266c;" horiz-adv-x="1000" 
d="M260 727l585 128v-652q0 -39 -15 -70.5t-40.5 -53.5t-58.5 -34t-69 -12q-17 0 -34 4.5t-30 14t-21 23.5t-8 32q0 27 15.5 51.5t40 44t55.5 31t62 11.5q17 0 34.5 -3.5t28.5 -9.5v342l-505 -110v-389q0 -39 -15 -70.5t-40.5 -53.5t-58.5 -34t-69 -12q-17 0 -34 4.5t-30 14
t-21 23.5t-8 32q0 27 15.5 51.5t40 44t55.5 31t62 11.5q17 0 34.5 -3.5t28.5 -9.5v623zM805 674v72l-505 -110v-72z" />
    <glyph glyph-name="uni266D" unicode="&#x266d;" horiz-adv-x="1000" 
d="M602 479q33 0 58 -10t42.5 -26.5t26 -39t8.5 -47.5q0 -51 -19 -90t-50.5 -71t-71.5 -59.5t-82 -55.5t-82 -59t-72 -70h-10v858h39v-475q17 31 40 57.5t50.5 46t58.5 30.5t64 11zM389 279v-253q45 47 93.5 82.5t88 69t65.5 72t26 91.5q0 46 -24.5 67.5t-60.5 21.5
q-20 0 -44 -8.5t-49 -27t-49.5 -47t-45.5 -68.5z" />
    <glyph glyph-name="uni3000" unicode="&#x3000;" horiz-adv-x="1000" 
 />
    <glyph glyph-name="uni3001" unicode="&#x3001;" horiz-adv-x="1000" 
d="M329 -10l-45 -38q-25 30 -53 61t-57.5 60t-58.5 55.5t-56 47.5l41 37q55 -45 115 -104t114 -119z" />
    <glyph glyph-name="uni3002" unicode="&#x3002;" horiz-adv-x="1000" 
d="M195 242q30 0 57 -11.5t46.5 -31.5t31 -47t11.5 -57t-11.5 -57t-31 -47t-46.5 -31.5t-57 -11.5t-57 11.5t-47 31.5t-31.5 47t-11.5 57t11.5 57t31.5 47t47 31.5t57 11.5zM195 -13q23 0 42.5 8.5t34 23t23 34.5t8.5 42t-8.5 41.5t-23 34.5t-34 23.5t-42.5 8.5
q-22 0 -42 -8.5t-34.5 -23.5t-23 -34.5t-8.5 -41.5t8.5 -42t23 -34.5t34.5 -23t42 -8.5z" />
    <glyph glyph-name="uni3003" unicode="&#x3003;" horiz-adv-x="1000" 
d="M407 624l68 -27l-193 -461l-34 13zM685 624l67 -27l-193 -461l-34 13z" />
    <glyph glyph-name="uni3008" unicode="&#x3008;" horiz-adv-x="460" 
d="M112 380l290 -442l-42 -20l-303 462l303 462l42 -20z" />
    <glyph glyph-name="uni3009" unicode="&#x3009;" horiz-adv-x="460" 
d="M99 -82l-42 20l290 442l-290 442l42 20l303 -462z" />
    <glyph glyph-name="uni300A" unicode="&#x300a;" horiz-adv-x="460" 
d="M61 380l231 -449l-37 -13l-237 462l237 462l37 -13zM210 380l231 -449l-37 -13l-237 462l237 462l37 -13z" />
    <glyph glyph-name="uni300B" unicode="&#x300b;" horiz-adv-x="460" 
d="M204 -82l-37 13l231 449l-231 449l37 13l237 -462zM55 -82l-37 13l231 449l-231 449l37 13l237 -462z" />
    <glyph glyph-name="uni300C" unicode="&#x300c;" horiz-adv-x="460" 
d="M124 191v651h306v-46h-258v-605h-48z" />
    <glyph glyph-name="uni300D" unicode="&#x300d;" horiz-adv-x="460" 
d="M336 569v-651h-306v46h258v605h48z" />
    <glyph glyph-name="uni300E" unicode="&#x300e;" horiz-adv-x="460" 
d="M430 699h-205v-520h-158v663h363v-143zM396 807h-292v-593h86v520h206v73z" />
    <glyph glyph-name="uni300F" unicode="&#x300f;" horiz-adv-x="460" 
d="M47 61h205v520h158v-663h-363v143zM81 -47h292v593h-86v-520h-206v-73z" />
    <glyph glyph-name="uni3010" unicode="&#x3010;" horiz-adv-x="1000" 
d="M670 842h292v-5q-41 -34 -77 -81.5t-63 -106t-42.5 -126.5t-15.5 -143t15.5 -143t42.5 -126.5t63 -106t77 -81.5v-5h-292v924z" />
    <glyph glyph-name="uni3011" unicode="&#x3011;" horiz-adv-x="1000" 
d="M330 842v-924h-292v5q41 34 77 81.5t63 106t42.5 126.5t15.5 143t-15.5 143t-42.5 126.5t-63 106t-77 81.5v5h292z" />
    <glyph glyph-name="uni3013" unicode="&#x3013;" horiz-adv-x="1000" 
d="M900 780v-300h-800v300h800zM900 280v-300h-800v300h800z" />
    <glyph glyph-name="uni3014" unicode="&#x3014;" horiz-adv-x="1000" 
d="M929 -94l-205 134v680l205 134l24 -36l-182 -117v-642l182 -117z" />
    <glyph glyph-name="uni3015" unicode="&#x3015;" horiz-adv-x="1000" 
d="M276 40l-205 -134l-24 36l182 117v642l-182 117l24 36l205 -134v-680z" />
    <glyph glyph-name="uni3131" unicode="&#x3131;" 
d="M187 608h546v-455h-52v410h-494v45z" />
    <glyph glyph-name="uni3132" unicode="&#x3132;" 
d="M509 609h298v-455h-53v410h-245v45zM158 607h295v-455h-53v410h-242v45z" />
    <glyph glyph-name="uni3133" unicode="&#x3133;" 
d="M666 616v-172q0 -37 10.5 -75.5t31 -73t51 -63.5t70.5 -47l-30 -40q-61 29 -100.5 78.5t-58.5 109.5q-18 -60 -57 -109.5t-102 -78.5l-29 40q40 18 70.5 47t50.5 63.5t30.5 73t10.5 75.5v172h52zM148 560v45h267v-454h-52v409h-215z" />
    <glyph glyph-name="uni3134" unicode="&#x3134;" 
d="M248 200h504v-45h-557v451h53v-406z" />
    <glyph glyph-name="uni3135" unicode="&#x3135;" 
d="M634 563v-108q0 -38 10 -78t29.5 -76.5t49.5 -67t70 -49.5l-31 -40q-60 29 -97.5 81t-55.5 113q-18 -61 -55.5 -113t-97.5 -81l-25 33q-58 -19 -110.5 -23t-103.5 -4h-38v466h53v-422q45 1 95 6t98 23l8 -35q38 20 66 50t46.5 66t27.5 75t9 76v108h-136v45h325v-45h-137z
" />
    <glyph glyph-name="uni3136" unicode="&#x3136;" 
d="M629 528h136v-45h-329v45h141v97h52v-97zM232 593v-396q45 1 95 6t98 23l10 -46q-60 -20 -113.5 -24t-104.5 -4h-38v441h53zM601 442q30 0 56 -11t44.5 -31.5t29.5 -48.5t11 -62t-11 -62.5t-29.5 -48.5t-44.5 -31t-56 -11t-56 11t-45 31t-30 48.5t-11 62.5t11 62t30 48.5
t45 31.5t56 11zM601 179q42 0 68.5 31t26.5 79t-26.5 79t-68.5 31q-43 0 -69.5 -31t-26.5 -79t26.5 -79t69.5 -31z" />
    <glyph glyph-name="uni3137" unicode="&#x3137;" 
d="M249 196h492v-44h-545v457h535v-45h-482v-368z" />
    <glyph glyph-name="uni3138" unicode="&#x3138;" 
d="M226 563v-363q49 0 103.5 4.5t117.5 20.5l8 -46q-70 -17 -128.5 -20.5t-112.5 -3.5h-40v453h274v-45h-222zM534 198h226v-45h-279v455h275v-45h-222v-365z" />
    <glyph glyph-name="uni3139" unicode="&#x3139;" 
d="M238 185h515v-45h-565v263h499v172h-502v45h552v-261h-499v-174z" />
    <glyph glyph-name="uni313A" unicode="&#x313a;" 
d="M221 362v-170q61 0 129 4.5t149 20.5l7 -44q-88 -17 -157 -21t-133 -4h-48v258h232v161h-234v45h286v-250h-231zM485 612h285v-461h-53v416h-232v45z" />
    <glyph glyph-name="uni313B" unicode="&#x313b;" 
d="M220 362v-168q51 0 109 3.5t133 16.5l6 -45q-81 -14 -142 -17t-115 -3h-43v258h225v160h-228v45h281v-250h-226zM487 612h289v-463h-289v463zM728 194v374h-192v-374h192z" />
    <glyph glyph-name="uni313C" unicode="&#x313c;" 
d="M728 613h51v-464h-289v464h51v-176h187v176zM220 362v-169q54 0 115.5 4.5t134.5 18.5l7 -44q-81 -16 -144.5 -20t-120.5 -4h-44v259h225v160h-228v45h281v-250h-226zM728 194v198h-187v-198h187z" />
    <glyph glyph-name="uni313D" unicode="&#x313d;" 
d="M672 615v-172q0 -37 10 -75t30.5 -72.5t50.5 -63.5t70 -47l-30 -39q-60 28 -99 77.5t-58 109.5q-18 -60 -57 -109.5t-99 -77.5l-24 31q-72 -18 -134 -23t-120 -5h-44v258h226v160h-229v45h281v-250h-225v-168q55 0 116 5.5t127 22.5l6 -32q37 19 65 47.5t47 62.5
t28.5 70.5t9.5 72.5v172h52z" />
    <glyph glyph-name="uni313E" unicode="&#x313e;" 
d="M221 361v-167q57 0 117 5.5t126 22.5l8 -45q-73 -18 -136.5 -23t-123.5 -5h-43v257h225v160h-228v45h281v-250h-226zM553 194h240v-45h-293v462h287v-45h-234v-158h224v-45h-224v-169z" />
    <glyph glyph-name="uni313F" unicode="&#x313f;" 
d="M220 362v-168q54 0 113.5 5.5t125.5 22.5l8 -45q-73 -18 -134.5 -23t-121.5 -5h-43v258h214v160h-217v45h270v-250h-215zM731 194h62v-45h-316v45h61v373h-57v44h305v-44h-55v-373zM587 567v-373h94v373h-94z" />
    <glyph glyph-name="uni3140" unicode="&#x3140;" 
d="M644 517h134v-45h-327v45h141v106h52v-106zM222 354v-169q51 0 108 4.5t120 21.5l8 -46q-72 -17 -132 -21t-115 -4h-42v258h200v161h-202v44h254v-249h-199zM615 431q30 0 56 -10.5t45 -30t30 -47t11 -60.5t-11 -60.5t-30 -47t-45 -30.5t-56 -11t-56 11t-45 30.5t-30 47
t-11 60.5t11 60.5t30 47t45 30t56 10.5zM615 177q43 0 69.5 29t26.5 77q0 45 -26.5 75t-69.5 30q-42 0 -69 -30t-27 -75q0 -48 27 -77t69 -29z" />
    <glyph glyph-name="uni3141" unicode="&#x3141;" 
d="M191 610h550v-460h-550v460zM688 566h-444v-371h444v371z" />
    <glyph glyph-name="uni3142" unicode="&#x3142;" 
d="M193 616h53v-178h438v178h53v-471h-544v471zM246 391v-199h438v199h-438z" />
    <glyph glyph-name="uni3143" unicode="&#x3143;" 
d="M177 612h50v-176h172v176h50v-463h-272v463zM491 612h51v-176h172v176h49v-463h-272v463zM227 391v-197h172v197h-172zM542 391v-197h172v197h-172z" />
    <glyph glyph-name="uni3144" unicode="&#x3144;" 
d="M674 616v-172q0 -37 10.5 -75.5t31 -73t51 -63.5t70.5 -47l-30 -40q-61 29 -100.5 78.5t-58.5 109.5q-18 -60 -57 -109.5t-102 -78.5l-29 40q40 18 70.5 47t50.5 63.5t30.5 73t10.5 75.5v172h52zM399 438v176h50v-463h-272v463h50v-176h172zM399 196v197h-172v-197h172z
" />
    <glyph glyph-name="uni3145" unicode="&#x3145;" 
d="M494 621v-151q0 -59 24 -107.5t64 -85.5t90.5 -62.5t103.5 -38.5l-27 -43q-45 13 -88 33t-80 48t-66.5 64.5t-46.5 81.5q-17 -45 -46.5 -81.5t-67 -64.5t-80.5 -48t-88 -33l-27 43q53 13 103.5 38.5t90.5 62.5t64 85.5t24 107.5v151h53z" />
    <glyph glyph-name="uni3146" unicode="&#x3146;" 
d="M653 610v-147q0 -34 10 -71.5t29.5 -72t49 -64t69.5 -48.5l-31 -41q-60 30 -98 81t-56 109q-18 -61 -58 -117t-103 -88q-31 16 -57 39.5t-46.5 51t-35 58t-23.5 60.5q-17 -57 -54 -110t-97 -85l-33 40q40 21 70 52.5t49.5 67.5t29 72t9.5 66v147h53v-152q0 -27 8.5 -61
t25.5 -68t42.5 -65.5t58.5 -54.5q34 22 59 52.5t42 64.5t25.5 68.5t8.5 63.5v152h53z" />
    <glyph glyph-name="uni3147" unicode="&#x3147;" 
d="M460 621q58 0 108 -18t87 -49.5t58 -75.5t21 -97q0 -52 -21 -96.5t-58 -76.5t-87 -50t-108 -18t-108 18t-87 50t-58 76.5t-21 96.5q0 53 21 97t58 75.5t87 49.5t108 18zM460 574q-47 0 -87.5 -15t-70.5 -41t-47 -61t-17 -76t17 -76.5t47 -62t70.5 -41.5t87.5 -15t87.5 15
t70.5 41.5t47 62t17 76.5t-17 76t-47 61t-70.5 41t-87.5 15z" />
    <glyph glyph-name="uni3148" unicode="&#x3148;" 
d="M497 571v-82q0 -59 22 -108t59 -87t85 -65t99 -42l-28 -42q-43 14 -83.5 35.5t-75.5 50.5t-62 65.5t-42 80.5q-16 -44 -43 -80.5t-61.5 -65.5t-75 -50.5t-84.5 -35.5l-27 42q51 15 99 42t85 65t59 87t22 108v82h-244v45h538v-45h-242z" />
    <glyph glyph-name="uni3149" unicode="&#x3149;" 
d="M655 574v-97q0 -39 9 -80.5t27.5 -80t48 -70.5t70.5 -52l-35 -42q-55 29 -90 78t-54 107q-18 -69 -57.5 -119t-108.5 -78q-67 28 -108 79t-59 120q-19 -60 -56 -108.5t-94 -78.5l-33 42q41 20 71.5 51.5t50.5 69.5t29.5 80t9.5 82v97h-127v45h297v-45h-118v-97
q0 -100 32.5 -171t104.5 -108q72 37 104.5 108t32.5 171v97h-119v45h297v-45h-125z" />
    <glyph glyph-name="uni314A" unicode="&#x314a;" 
d="M493 480v-36q0 -56 21.5 -102.5t57.5 -83t83 -62.5t98 -41l-28 -42q-43 13 -83.5 34t-75 50t-61 65.5t-41.5 79.5q-15 -43 -41.5 -79.5t-61 -65t-75.5 -50t-84 -34.5l-28 42q51 15 98 41t83 62.5t57.5 83t21.5 102.5v36h-241v46h245v127h53v-127h242v-46h-240z" />
    <glyph glyph-name="uni314B" unicode="&#x314b;" 
d="M195 620h542v-480h-53v223l-497 -30l-8 51l505 23v169h-489v44z" />
    <glyph glyph-name="uni314C" unicode="&#x314c;" 
d="M249 195h501v-45h-554v461h547v-45h-494v-157h486v-45h-486v-169z" />
    <glyph glyph-name="uni314D" unicode="&#x314d;" 
d="M619 194h146v-44h-597v44h145v371h-132v45h571v-45h-133v-371zM366 565v-371h200v371h-200z" />
    <glyph glyph-name="uni314E" unicode="&#x314e;" 
d="M493 528h268v-45h-590v45h269v126h53v-126zM466 409q46 0 84.5 -11.5t66.5 -31.5t43.5 -48.5t15.5 -63.5q0 -34 -15.5 -62.5t-43.5 -49t-66.5 -32t-84.5 -11.5q-45 0 -83.5 11.5t-66.5 32t-44 49t-16 62.5q0 35 16 63.5t44 48.5t66.5 31.5t83.5 11.5zM466 144
q33 0 61.5 8.5t49.5 23.5t33 35t12 43q0 24 -12 44t-33 34.5t-49.5 23t-61.5 8.5t-61.5 -8.5t-49.5 -23t-33 -34.5t-12 -44q0 -23 12 -43t33 -35t49.5 -23.5t61.5 -8.5z" />
    <glyph glyph-name="uni314F" unicode="&#x314f;" 
d="M682 448v-46h-221v-456h-53v868h53v-366h221z" />
    <glyph glyph-name="uni3150" unicode="&#x3150;" 
d="M555 814h52v-868h-52v461h-178v-429h-51v822h51v-347h178v361z" />
    <glyph glyph-name="uni3151" unicode="&#x3151;" 
d="M644 491h-214v-192h214v-45h-214v-308h-53v869h53v-279h214v-45z" />
    <glyph glyph-name="uni3152" unicode="&#x3152;" 
d="M553 814h52v-868h-52v325h-175v-293h-51v823h51v-253h175v266zM378 316h175v186h-175v-186z" />
    <glyph glyph-name="uni3153" unicode="&#x3153;" 
d="M522 814h53v-868h-53v458h-222v46h222v364z" />
    <glyph glyph-name="uni3154" unicode="&#x3154;" 
d="M588 814h51v-868h-51v868zM420 456v347h51v-824h-51v431h-183v46h183z" />
    <glyph glyph-name="uni3155" unicode="&#x3155;" 
d="M524 814h53v-868h-53v339h-220v45h220v178h-220v46h220v260z" />
    <glyph glyph-name="uni3156" unicode="&#x3156;" 
d="M587 815h51v-869h-51v869zM420 566v237h51v-823h-51v313h-183v45h183v183h-182v45h182z" />
    <glyph glyph-name="uni3157" unicode="&#x3157;" 
d="M484 208h374v-46h-799v46h372v387h53v-387z" />
    <glyph glyph-name="uni3158" unicode="&#x3158;" 
d="M864 448v-46h-146v-456h-53v868h53v-366h146zM377 540v-308q63 4 124.5 8t119.5 12l4 -39q-67 -11 -139 -17.5t-142.5 -10t-137.5 -4.5t-124 -1l-10 46q57 0 120 1t132 3v310h53z" />
    <glyph glyph-name="uni3159" unicode="&#x3159;" 
d="M742 814h51v-868h-51v467h-123v-433h-51v823h51v-345h123v356zM329 549v-300q54 3 105 6.5t96 9.5l4 -40q-53 -9 -113.5 -14.5t-121 -8.5t-117 -4t-101.5 -1l-8 47q43 0 95.5 0.5t109.5 2.5v302h51z" />
    <glyph glyph-name="uni315A" unicode="&#x315a;" 
d="M714 814h53v-868h-53v868zM413 537v-294q63 3 124 8t118 13l3 -41q-67 -11 -138.5 -17.5t-141.5 -9.5t-136 -4t-122 -1l-10 46q57 0 119.5 1t131.5 3v296h52z" />
    <glyph glyph-name="uni315B" unicode="&#x315b;" 
d="M646 198h220v-45h-798v45h222v410h53v-410h250v410h53v-410z" />
    <glyph glyph-name="uni315C" unicode="&#x315c;" 
d="M866 599v-46h-374v-392h-53v392h-372v46h799z" />
    <glyph glyph-name="uni315D" unicode="&#x315d;" 
d="M752 814h53v-868h-53v273h-229v44h229v551zM678 445l4 -40q-75 -11 -151 -16.5t-152 -8.5v-364h-53v362q-61 -2 -118 -3t-111 -1l-8 47q66 0 139 1t149 3.5t152.5 7t148.5 12.5z" />
    <glyph glyph-name="uni315E" unicode="&#x315e;" 
d="M767 814h51v-868h-51v868zM605 263v527h51v-823h-51v252h-178v44h178zM551 447l4 -39q-49 -8 -104 -13.5t-112 -8.5v-371h-52v368q-54 -3 -104 -4.5t-92 -1.5l-9 45q49 0 108.5 1.5t122.5 5t124.5 8t113.5 10.5z" />
    <glyph glyph-name="uni315F" unicode="&#x315f;" 
d="M750 815h53v-869h-53v869zM702 447l4 -40q-69 -9 -137 -14.5t-137 -9.5v-367h-53v365q-70 -3 -136.5 -4t-127.5 -1l-9 47q67 0 141 1t151 3.5t154 7t150 12.5z" />
    <glyph glyph-name="uni3160" unicode="&#x3160;" 
d="M857 600v-45h-231v-394h-52v394h-234v-394h-52v394h-229v45h798z" />
    <glyph glyph-name="uni3161" unicode="&#x3161;" 
d="M60 403h798v-45h-798v45z" />
    <glyph glyph-name="uni3162" unicode="&#x3162;" 
d="M727 814h53v-868h-53v868zM94 254l-10 46q65 0 138 1t148.5 4.5t151.5 9t148 14.5l4 -41q-74 -11 -150.5 -17.5t-151 -10.5t-145 -5t-133.5 -1z" />
    <glyph glyph-name="uni3163" unicode="&#x3163;" 
d="M440 814h53v-868h-53v868z" />
    <glyph glyph-name="uni318D" unicode="&#x318d;" 
d="M491 381q0 19 13 34.5t36 15.5t36 -15.5t13 -34.5q0 -20 -13 -35.5t-36 -15.5t-35.5 15.5t-13.5 35.5z" />
    <glyph glyph-name="uni318E" unicode="&#x318e;" 
d="M541 817h53v-873h-53v873zM350 388q0 19 13 34.5t36 15.5t36.5 -15.5t13.5 -34.5t-13.5 -35t-36.5 -16t-35.5 16t-13.5 35z" />
    <glyph glyph-name="uni3200" unicode="&#x3200;" horiz-adv-x="1000" 
d="M194 -54l-33 -12q-66 99 -96 206.5t-30 239.5q0 131 30 239t96 207l33 -12q-63 -94 -89 -205t-26 -229t26 -229t89 -205zM839 -66l-33 12q63 94 89 206.5t26 227.5q0 118 -26 229t-89 205l33 12q66 -99 96 -207t30 -239q0 -132 -30 -239.5t-96 -206.5zM241 592h487v-467
h-52v422h-435v45z" />
    <glyph glyph-name="uni3201" unicode="&#x3201;" horiz-adv-x="1000" 
d="M161 826l33 -12q-63 -94 -89 -205t-26 -229t26 -229t89 -205l-33 -12q-66 99 -96 206.5t-30 239.5q0 131 30 239t96 207zM806 814l33 12q66 -99 96 -207t30 -239q0 -132 -30 -239.5t-96 -206.5l-33 12q63 94 89 206.5t26 227.5q0 118 -26 229t-89 205zM341 626v-414h419
v-45h-471v459h52z" />
    <glyph glyph-name="uni3202" unicode="&#x3202;" horiz-adv-x="1000" 
d="M161 826l33 -12q-63 -94 -89 -205t-26 -229t26 -229t89 -205l-33 -12q-66 99 -96 206.5t-30 239.5q0 131 30 239t96 207zM806 814l33 12q66 -99 96 -207t30 -239q0 -132 -30 -239.5t-96 -206.5l-33 12q63 94 89 206.5t26 227.5q0 118 -26 229t-89 205zM326 574v-369h425
v-45h-477v459h465v-45h-413z" />
    <glyph glyph-name="uni3203" unicode="&#x3203;" horiz-adv-x="1000" 
d="M161 826l33 -12q-63 -94 -89 -205t-26 -229t26 -229t89 -205l-33 -12q-66 99 -96 206.5t-30 239.5q0 131 30 239t96 207zM806 814l33 12q66 -99 96 -207t30 -239q0 -132 -30 -239.5t-96 -206.5l-33 12q63 94 89 206.5t26 227.5q0 118 -26 229t-89 205zM316 361v-185h432
v-45h-482v273h415v181h-418v44h468v-268h-415z" />
    <glyph glyph-name="uni3204" unicode="&#x3204;" horiz-adv-x="1000" 
d="M194 -54l-33 -12q-66 99 -96 206.5t-30 239.5q0 131 30 239t96 207l33 -12q-63 -94 -89 -205t-26 -229t26 -229t89 -205zM839 -66l-33 12q63 94 89 206.5t26 227.5q0 118 -26 229t-89 205l33 12q66 -99 96 -207t30 -239q0 -132 -30 -239.5t-96 -206.5zM273 599h465v-440
h-465v440zM686 554h-361v-351h361v351z" />
    <glyph glyph-name="uni3205" unicode="&#x3205;" horiz-adv-x="1000" 
d="M194 -54l-33 -12q-66 99 -96 206.5t-30 239.5q0 131 30 239t96 207l33 -12q-63 -94 -89 -205t-26 -229t26 -229t89 -205zM839 -66l-33 12q63 94 89 206.5t26 227.5q0 118 -26 229t-89 205l33 12q66 -99 96 -207t30 -239q0 -132 -30 -239.5t-96 -206.5zM270 629h52v-187
h365v187h53v-492h-470v492zM322 395v-210h365v210h-365z" />
    <glyph glyph-name="uni3206" unicode="&#x3206;" horiz-adv-x="1000" 
d="M161 826l33 -12q-63 -94 -89 -205t-26 -229t26 -229t89 -205l-33 -12q-66 99 -96 206.5t-30 239.5q0 131 30 239t96 207zM806 814l33 12q66 -99 96 -207t30 -239q0 -132 -30 -239.5t-96 -206.5l-33 12q63 94 89 206.5t26 227.5q0 118 -26 229t-89 205zM535 641v-141
q0 -53 18.5 -101t51 -87.5t76.5 -69.5t95 -47l-29 -44q-81 30 -144.5 89.5t-92.5 140.5q-29 -81 -93 -140.5t-145 -89.5l-29 43q51 17 95 47t76.5 70t51.5 88t19 101v141h50z" />
    <glyph glyph-name="uni3207" unicode="&#x3207;" horiz-adv-x="1000" 
d="M194 -54l-33 -12q-66 99 -96 206.5t-30 239.5q0 131 30 239t96 207l33 -12q-63 -94 -89 -205t-26 -229t26 -229t89 -205zM839 -66l-33 12q63 94 89 206.5t26 227.5q0 118 -26 229t-89 205l33 12q66 -99 96 -207t30 -239q0 -132 -30 -239.5t-96 -206.5zM504 607
q54 0 99 -16.5t78 -46t51.5 -70.5t18.5 -91q0 -49 -18.5 -90.5t-51.5 -70.5t-78 -45.5t-99 -16.5q-53 0 -98 16.5t-78 45.5t-51.5 70.5t-18.5 90.5q0 50 18.5 91t51.5 70.5t78 46t98 16.5zM504 562q-43 0 -79 -13.5t-62.5 -37.5t-41.5 -57t-15 -71t15 -70.5t41.5 -56.5
t62.5 -37.5t79 -13.5t79.5 13.5t63 37.5t41.5 56.5t15 70.5t-15 71t-41.5 57t-63 37.5t-79.5 13.5z" />
    <glyph glyph-name="uni3208" unicode="&#x3208;" horiz-adv-x="1000" 
d="M161 826l33 -12q-63 -94 -89 -205t-26 -229t26 -229t89 -205l-33 -12q-66 99 -96 206.5t-30 239.5q0 131 30 239t96 207zM806 814l33 12q66 -99 96 -207t30 -239q0 -132 -30 -239.5t-96 -206.5l-33 12q63 94 89 206.5t26 227.5q0 118 -26 229t-89 205zM528 554v-66
q0 -51 20.5 -95.5t55 -80.5t80 -63t96.5 -42l-27 -43q-85 27 -151.5 82t-97.5 133q-31 -78 -96 -133t-150 -82l-26 43q50 15 95 42t79 63.5t53.5 81t19.5 94.5v66h-221v45h492v-45h-222z" />
    <glyph glyph-name="uni3209" unicode="&#x3209;" horiz-adv-x="1000" 
d="M161 826l33 -12q-63 -94 -89 -205t-26 -229t26 -229t89 -205l-33 -12q-66 99 -96 206.5t-30 239.5q0 131 30 239t96 207zM806 814l33 12q66 -99 96 -207t30 -239q0 -132 -30 -239.5t-96 -206.5l-33 12q63 94 89 206.5t26 227.5q0 118 -26 229t-89 205zM529 484v-53
q0 -43 18.5 -81.5t50 -70t74.5 -55t91 -36.5l-25 -42q-81 24 -144 73.5t-91 118.5q-28 -69 -91.5 -118.5t-144.5 -73.5l-26 42q49 13 92 36.5t75 55t50.5 70t18.5 81.5v53h-220v45h220v132h52v-132h220v-45h-220z" />
    <glyph glyph-name="uni320A" unicode="&#x320a;" horiz-adv-x="1000" 
d="M161 826l33 -12q-63 -94 -89 -205t-26 -229t26 -229t89 -205l-33 -12q-66 99 -96 206.5t-30 239.5q0 131 30 239t96 207zM806 814l33 12q66 -99 96 -207t30 -239q0 -132 -30 -239.5t-96 -206.5l-33 12q63 94 89 206.5t26 227.5q0 118 -26 229t-89 205zM265 564v44h471
v-471h-53v227l-434 -28l-9 50l443 21v157h-418z" />
    <glyph glyph-name="uni320B" unicode="&#x320b;" horiz-adv-x="1000" 
d="M161 826l33 -12q-63 -94 -89 -205t-26 -229t26 -229t89 -205l-33 -12q-66 99 -96 206.5t-30 239.5q0 131 30 239t96 207zM806 814l33 12q66 -99 96 -207t30 -239q0 -132 -30 -239.5t-96 -206.5l-33 12q63 94 89 206.5t26 227.5q0 118 -26 229t-89 205zM323 361v-162h427
v-44h-477v454h461v-45h-411v-158h413v-45h-413z" />
    <glyph glyph-name="uni320C" unicode="&#x320c;" horiz-adv-x="1000" 
d="M161 826l33 -12q-63 -94 -89 -205t-26 -229t26 -229t89 -205l-33 -12q-66 99 -96 206.5t-30 239.5q0 131 30 239t96 207zM806 814l33 12q66 -99 96 -207t30 -239q0 -132 -30 -239.5t-96 -206.5l-33 12q63 94 89 206.5t26 227.5q0 118 -26 229t-89 205zM659 543v-314h127
v-45h-562v45h143v314h-119v45h515v-45h-104zM420 543v-314h187v314h-187z" />
    <glyph glyph-name="uni320D" unicode="&#x320d;" horiz-adv-x="1000" 
d="M161 826l33 -12q-63 -94 -89 -205t-26 -229t26 -229t89 -205l-33 -12q-66 99 -96 206.5t-30 239.5q0 131 30 239t96 207zM806 814l33 12q66 -99 96 -207t30 -239q0 -132 -30 -239.5t-96 -206.5l-33 12q63 94 89 206.5t26 227.5q0 118 -26 229t-89 205zM524 669v-127h258
v-46h-565v46h255v127h52zM499 426q45 0 83 -13t65.5 -36.5t43.5 -56t16 -71.5t-16 -71.5t-43.5 -56.5t-65.5 -37t-83 -13q-44 0 -82 13t-65.5 37t-43.5 56.5t-16 71.5t16 71.5t43.5 56t65.5 36.5t82 13zM499 116q33 0 61.5 10.5t49.5 28.5t33 42t12 52t-12 52t-33 42
t-49.5 28.5t-61.5 10.5t-61.5 -10.5t-49 -28.5t-32.5 -42t-12 -52t12 -52t32.5 -42t49 -28.5t61.5 -10.5z" />
    <glyph glyph-name="uni320E" unicode="&#x320e;" horiz-adv-x="1000" 
d="M161 826l32 -12q-63 -94 -89 -205t-26 -229t26 -229t89 -205l-32 -12q-66 99 -96 206.5t-30 239.5q0 131 30 239t96 207zM807 814l32 12q66 -99 96 -207t30 -239q0 -132 -30 -239.5t-96 -206.5l-32 12q63 94 89 206.5t26 227.5q0 118 -26 229t-89 205zM881 394h-146v-422
h-54v813h54v-345h146v-46zM201 681h331q0 -81 -20 -159.5t-60.5 -151t-101.5 -136.5t-142 -116l-34 39q142 88 218.5 211t86.5 267h-278v46z" />
    <glyph glyph-name="uni320F" unicode="&#x320f;" horiz-adv-x="1000" 
d="M161 826l32 -12q-63 -94 -89 -205t-26 -229t26 -229t89 -205l-32 -12q-66 99 -96 206.5t-30 239.5q0 131 30 239t96 207zM807 814l32 12q66 -99 96 -207t30 -239q0 -132 -30 -239.5t-96 -206.5l-32 12q63 94 89 206.5t26 227.5q0 118 -26 229t-89 205zM884 403h-147v-431
h-54v813h54v-336h147v-46zM248 231h7q88 0 177 7t189 29l8 -48q-105 -21 -194 -29t-180 -8h-60v521h53v-472z" />
    <glyph glyph-name="uni3210" unicode="&#x3210;" horiz-adv-x="1000" 
d="M161 826l32 -12q-63 -94 -89 -205t-26 -229t26 -229t89 -205l-32 -12q-66 99 -96 206.5t-30 239.5q0 131 30 239t96 207zM807 814l32 12q66 -99 96 -207t30 -239q0 -132 -30 -239.5t-96 -206.5l-32 12q63 94 89 206.5t26 227.5q0 118 -26 229t-89 205zM883 403h-136v-430
h-54v813h54v-337h136v-46zM255 208h6q53 0 98.5 1.5t87.5 4.5t83 8t84 13l7 -47q-45 -9 -87 -14.5t-84.5 -8.5t-88.5 -4t-100 -1h-59v535h358v-46h-305v-441z" />
    <glyph glyph-name="uni3211" unicode="&#x3211;" horiz-adv-x="1000" 
d="M161 826l32 -12q-63 -94 -89 -205t-26 -229t26 -229t89 -205l-32 -12q-66 99 -96 206.5t-30 239.5q0 131 30 239t96 207zM807 814l32 12q66 -99 96 -207t30 -239q0 -132 -30 -239.5t-96 -206.5l-32 12q63 94 89 206.5t26 227.5q0 118 -26 229t-89 205zM872 402h-125v-430
h-54v813h54v-337h125v-46zM259 211h5q52 0 96.5 1t86 4t82 8.5t84.5 14.5l5 -49q-45 -8 -86 -13t-83 -8t-87 -4.5t-98 -1.5h-57v299h269v188h-272v45h325v-279h-270v-205z" />
    <glyph glyph-name="uni3212" unicode="&#x3212;" horiz-adv-x="1000" 
d="M161 826l32 -12q-63 -94 -89 -205t-26 -229t26 -229t89 -205l-32 -12q-66 99 -96 206.5t-30 239.5q0 131 30 239t96 207zM807 814l32 12q66 -99 96 -207t30 -239q0 -132 -30 -239.5t-96 -206.5l-32 12q63 94 89 206.5t26 227.5q0 118 -26 229t-89 205zM881 398h-146v-426
h-54v813h54v-341h146v-46zM194 178v510h329v-510h-329zM248 641v-416h221v416h-221z" />
    <glyph glyph-name="uni3213" unicode="&#x3213;" horiz-adv-x="1000" 
d="M161 826l32 -12q-63 -94 -89 -205t-26 -229t26 -229t89 -205l-32 -12q-66 99 -96 206.5t-30 239.5q0 131 30 239t96 207zM807 814l32 12q66 -99 96 -207t30 -239q0 -132 -30 -239.5t-96 -206.5l-32 12q63 94 89 206.5t26 227.5q0 118 -26 229t-89 205zM882 395h-137v-423
h-54v813h54v-343h137v-47zM506 493v212h51v-553h-340v553h52v-212h237zM506 200v245h-237v-245h237z" />
    <glyph glyph-name="uni3214" unicode="&#x3214;" horiz-adv-x="1000" 
d="M161 826l32 -12q-63 -94 -89 -205t-26 -229t26 -229t89 -205l-32 -12q-66 99 -96 206.5t-30 239.5q0 131 30 239t96 207zM807 814l32 12q66 -99 96 -207t30 -239q0 -132 -30 -239.5t-96 -206.5l-32 12q63 94 89 206.5t26 227.5q0 118 -26 229t-89 205zM875 402h-138v-430
h-53v813h53v-337h138v-46zM405 705v-168q0 -59 14.5 -114t40.5 -102t63.5 -84t83.5 -60l-36 -41q-70 38 -120 105.5t-73 155.5q-23 -88 -73 -155.5t-120 -105.5l-36 41q46 23 83.5 60t63.5 84t40.5 102t14.5 114v168h54z" />
    <glyph glyph-name="uni3215" unicode="&#x3215;" horiz-adv-x="1000" 
d="M161 826l32 -12q-63 -94 -89 -205t-26 -229t26 -229t89 -205l-32 -12q-66 99 -96 206.5t-30 239.5q0 131 30 239t96 207zM807 814l32 12q66 -99 96 -207t30 -239q0 -132 -30 -239.5t-96 -206.5l-32 12q63 94 89 206.5t26 227.5q0 118 -26 229t-89 205zM878 394h-130v-422
h-53v813h53v-345h130v-46zM361 700q42 0 76 -19t58 -54t37 -85t13 -112t-13 -112t-37 -85t-58 -54t-76 -19t-76 19t-57.5 54t-36.5 85t-13 112t13 112t36.5 85t57.5 54t76 19zM361 208q30 0 54.5 16.5t41.5 45.5t26.5 70t9.5 90t-9.5 90t-26.5 70.5t-41.5 46t-54.5 16.5
t-54 -16.5t-41 -46t-26.5 -70.5t-9.5 -90t9.5 -90t26.5 -70t41 -45.5t54 -16.5z" />
    <glyph glyph-name="uni3216" unicode="&#x3216;" horiz-adv-x="1000" 
d="M161 826l32 -12q-63 -94 -89 -205t-26 -229t26 -229t89 -205l-32 -12q-66 99 -96 206.5t-30 239.5q0 131 30 239t96 207zM807 814l32 12q66 -99 96 -207t30 -239q0 -132 -30 -239.5t-96 -206.5l-32 12q63 94 89 206.5t26 227.5q0 118 -26 229t-89 205zM882 398h-137v-426
h-54v813h54v-341h137v-46zM415 641v-110q0 -59 12.5 -115.5t36.5 -106t58.5 -89t79.5 -64.5l-35 -40q-69 42 -114 111t-65 160q-20 -91 -65 -160t-114 -111l-35 40q45 25 79.5 64.5t58.5 89t36.5 106t12.5 115.5v110h-160v47h375v-47h-161z" />
    <glyph glyph-name="uni3217" unicode="&#x3217;" horiz-adv-x="1000" 
d="M161 826l32 -12q-63 -94 -89 -205t-26 -229t26 -229t89 -205l-32 -12q-66 99 -96 206.5t-30 239.5q0 131 30 239t96 207zM807 814l32 12q66 -99 96 -207t30 -239q0 -132 -30 -239.5t-96 -206.5l-32 12q63 94 89 206.5t26 227.5q0 118 -26 229t-89 205zM882 385h-137v-413
h-54v813h54v-353h137v-47zM409 548v-52q0 -53 15 -102t41.5 -91t63.5 -74.5t82 -52.5l-32 -42q-72 34 -122.5 95t-73.5 142q-24 -81 -75 -142t-121 -95l-33 42q45 20 82.5 52.5t64 74.5t41.5 91t15 102v52h-180v46h179v144h53v-144h179v-46h-179z" />
    <glyph glyph-name="uni3218" unicode="&#x3218;" horiz-adv-x="1000" 
d="M161 826l32 -12q-63 -94 -89 -205t-26 -229t26 -229t89 -205l-32 -12q-66 99 -96 206.5t-30 239.5q0 131 30 239t96 207zM807 814l32 12q66 -99 96 -207t30 -239q0 -132 -30 -239.5t-96 -206.5l-32 12q63 94 89 206.5t26 227.5q0 118 -26 229t-89 205zM873 392h-138v-420
h-54v813h54v-347h138v-46zM215 683h328q0 -80 -16.5 -159t-53.5 -153t-95 -140.5t-141 -121.5l-39 37q97 63 158.5 139.5t94.5 164.5l-249 -25l-12 48l276 21q11 35 17 71t8 72h-276v46z" />
    <glyph glyph-name="uni3219" unicode="&#x3219;" horiz-adv-x="1000" 
d="M161 826l32 -12q-63 -94 -89 -205t-26 -229t26 -229t89 -205l-32 -12q-66 99 -96 206.5t-30 239.5q0 131 30 239t96 207zM807 814l32 12q66 -99 96 -207t30 -239q0 -132 -30 -239.5t-96 -206.5l-32 12q63 94 89 206.5t26 227.5q0 118 -26 229t-89 205zM886 393h-138v-421
h-54v813h54v-346h138v-46zM256 210h5q52 0 97.5 1t87.5 3.5t83 8t84 14.5l7 -48q-45 -9 -87 -14.5t-84.5 -8.5t-88 -4t-99.5 -1h-58v528h354v-48h-301v-182h281v-47h-281v-202z" />
    <glyph glyph-name="uni321A" unicode="&#x321a;" horiz-adv-x="1000" 
d="M161 826l32 -12q-63 -94 -89 -205t-26 -229t26 -229t89 -205l-32 -12q-66 99 -96 206.5t-30 239.5q0 131 30 239t96 207zM807 814l32 12q66 -99 96 -207t30 -239q0 -132 -30 -239.5t-96 -206.5l-32 12q63 94 89 206.5t26 227.5q0 118 -26 229t-89 205zM888 394h-129v-422
h-54v813h54v-345h129v-46zM516 633v-411q34 2 66.5 4.5t62.5 6.5l3 -41q-59 -9 -124.5 -14.5t-130.5 -8.5t-126.5 -4t-112.5 -1l-7 47h57q30 0 62 1v421h-91v46h427v-46h-86zM318 633v-420q73 2 146 6v414h-146z" />
    <glyph glyph-name="uni321B" unicode="&#x321b;" horiz-adv-x="1000" 
d="M161 826l32 -12q-63 -94 -89 -205t-26 -229t26 -229t89 -205l-32 -12q-66 99 -96 206.5t-30 239.5q0 131 30 239t96 207zM807 814l32 12q66 -99 96 -207t30 -239q0 -132 -30 -239.5t-96 -206.5l-32 12q63 94 89 206.5t26 227.5q0 118 -26 229t-89 205zM879 395h-124v-423
h-54v813h54v-345h124v-45zM410 759v-140h204v-46h-466v46h208v140h54zM380 497q41 0 76 -13t60.5 -36t40 -56t14.5 -72t-14.5 -72t-40 -56.5t-60.5 -36.5t-76 -13t-76 13t-60.5 36.5t-39.5 56.5t-14 72t14 72t39.5 56t60.5 36t76 13zM380 184q30 0 56 10.5t45 29t29.5 43.5
t10.5 53q0 29 -10.5 53.5t-29.5 42.5t-45 28.5t-56 10.5t-56 -10.5t-45 -28.5t-29.5 -42.5t-10.5 -53.5q0 -28 10.5 -53t29.5 -43.5t45 -29t56 -10.5z" />
    <glyph glyph-name="uni321C" unicode="&#x321c;" horiz-adv-x="1000" 
d="M161 826l32 -12q-63 -94 -89 -205t-26 -229t26 -229t89 -205l-32 -12q-66 99 -96 206.5t-30 239.5q0 131 30 239t96 207zM807 814l32 12q66 -99 96 -207t30 -239q0 -132 -30 -239.5t-96 -206.5l-32 12q63 94 89 206.5t26 227.5q0 118 -26 229t-89 205zM481 676v7h-252v47
h559v-47h-251v-7q0 -41 29.5 -77.5t74 -65.5t98 -49t101.5 -28l-21 -43q-46 9 -93 26t-89 41t-75.5 54.5t-52.5 66.5q-19 -36 -52.5 -66.5t-75.5 -54.5t-89 -41t-93 -26l-21 43q48 8 101.5 28t98 49t74 65.5t29.5 77.5zM861 296h-325v-325h-54v325h-326v47h705v-47z" />
    <glyph glyph-name="uni3260" unicode="&#x3260;" horiz-adv-x="1000" 
d="M962 380q0 -96 -36.5 -180t-99 -146.5t-146.5 -99t-180 -36.5t-180 36.5t-146.5 99t-99 146.5t-36.5 180t36.5 180t99 146.5t146.5 99t180 36.5t180 -36.5t146.5 -99t99 -146.5t36.5 -180zM500 814q-90 0 -169 -34t-138 -93t-93 -138t-34 -169t34 -169t93 -138t138 -93
t169 -34t169 34t138 93t93 138t34 169t-34 169t-93 138t-138 93t-169 34zM264 560h439v-423h-52v378h-387v45z" />
    <glyph glyph-name="uni3261" unicode="&#x3261;" horiz-adv-x="1000" 
d="M500 842q96 0 180 -36.5t146.5 -99t99 -146.5t36.5 -180t-36.5 -180t-99 -146.5t-146.5 -99t-180 -36.5t-180 36.5t-146.5 99t-99 146.5t-36.5 180t36.5 180t99 146.5t146.5 99t180 36.5zM500 -54q90 0 169 34t138 93t93 138t34 169t-34 169t-93 138t-138 93t-169 34
t-169 -34t-138 -93t-93 -138t-34 -169t34 -169t93 -138t138 -93t169 -34zM366 602v-367h374v-44h-427v411h53z" />
    <glyph glyph-name="uni3262" unicode="&#x3262;" horiz-adv-x="1000" 
d="M500 842q96 0 180 -36.5t146.5 -99t99 -146.5t36.5 -180t-36.5 -180t-99 -146.5t-146.5 -99t-180 -36.5t-180 36.5t-146.5 99t-99 146.5t-36.5 180t36.5 180t99 146.5t146.5 99t180 36.5zM500 -54q90 0 169 34t138 93t93 138t34 169t-34 169t-93 138t-138 93t-169 34
t-169 -34t-138 -93t-93 -138t-34 -169t34 -169t93 -138t138 -93t169 -34zM341 532v-325h378v-45h-430v415h421v-45h-369z" />
    <glyph glyph-name="uni3263" unicode="&#x3263;" horiz-adv-x="1000" 
d="M500 842q96 0 180 -36.5t146.5 -99t99 -146.5t36.5 -180t-36.5 -180t-99 -146.5t-146.5 -99t-180 -36.5t-180 36.5t-146.5 99t-99 146.5t-36.5 180t36.5 180t99 146.5t146.5 99t180 36.5zM500 -54q90 0 169 34t138 93t93 138t34 169t-34 169t-93 138t-138 93t-169 34
t-169 -34t-138 -93t-93 -138t-34 -169t34 -169t93 -138t138 -93t169 -34zM339 358v-159h397v-46h-447v249h372v161h-375v42h425v-247h-372z" />
    <glyph glyph-name="uni3264" unicode="&#x3264;" horiz-adv-x="1000" 
d="M962 380q0 -96 -36.5 -180t-99 -146.5t-146.5 -99t-180 -36.5t-180 36.5t-146.5 99t-99 146.5t-36.5 180t36.5 180t99 146.5t146.5 99t180 36.5t180 -36.5t146.5 -99t99 -146.5t36.5 -180zM500 814q-90 0 -169 -34t-138 -93t-93 -138t-34 -169t34 -169t93 -138t138 -93
t169 -34t169 34t138 93t93 138t34 169t-34 169t-93 138t-138 93t-169 34zM287 558h422v-397h-422v397zM657 513h-317v-307h317v307z" />
    <glyph glyph-name="uni3265" unicode="&#x3265;" horiz-adv-x="1000" 
d="M962 380q0 -96 -36.5 -180t-99 -146.5t-146.5 -99t-180 -36.5t-180 36.5t-146.5 99t-99 146.5t-36.5 180t36.5 180t99 146.5t146.5 99t180 36.5t180 -36.5t146.5 -99t99 -146.5t36.5 -180zM500 814q-90 0 -169 -34t-138 -93t-93 -138t-34 -169t34 -169t93 -138t138 -93
t169 -34t169 34t138 93t93 138t34 169t-34 169t-93 138t-138 93t-169 34zM283 586h52v-171h322v171h52v-445h-426v445zM335 371v-186h322v186h-322z" />
    <glyph glyph-name="uni3266" unicode="&#x3266;" horiz-adv-x="1000" 
d="M500 842q96 0 180 -36.5t146.5 -99t99 -146.5t36.5 -180t-36.5 -180t-99 -146.5t-146.5 -99t-180 -36.5t-180 36.5t-146.5 99t-99 146.5t-36.5 180t36.5 180t99 146.5t146.5 99t180 36.5zM500 -54q90 0 169 34t138 93t93 138t34 169t-34 169t-93 138t-138 93t-169 34
t-169 -34t-138 -93t-93 -138t-34 -169t34 -169t93 -138t138 -93t169 -34zM523 596v-135q0 -40 18 -79t49 -73t73 -60.5t89 -41.5l-27 -41q-78 27 -137.5 79.5t-88.5 118.5q-27 -67 -85.5 -120t-134.5 -80l-28 42q47 15 88 42t71 61t47.5 73t17.5 79v135h48z" />
    <glyph glyph-name="uni3267" unicode="&#x3267;" horiz-adv-x="1000" 
d="M962 380q0 -96 -36.5 -180t-99 -146.5t-146.5 -99t-180 -36.5t-180 36.5t-146.5 99t-99 146.5t-36.5 180t36.5 180t99 146.5t146.5 99t180 36.5t180 -36.5t146.5 -99t99 -146.5t36.5 -180zM500 814q-90 0 -169 -34t-138 -93t-93 -138t-34 -169t34 -169t93 -138t138 -93
t169 -34t169 34t138 93t93 138t34 169t-34 169t-93 138t-138 93t-169 34zM498 565q49 0 90 -14.5t70.5 -41t46 -63.5t16.5 -82t-16.5 -82t-46 -63.5t-70.5 -41t-90 -14.5t-90 14.5t-70.5 41t-46 63.5t-16.5 82t16.5 82t46 63.5t70.5 41t90 14.5zM498 526q-38 0 -70.5 -12.5
t-56 -34.5t-37 -51.5t-13.5 -63.5t13.5 -63.5t37 -51t56 -34t70.5 -12.5t70.5 12.5t56 34t37 51t13.5 63.5t-13.5 63.5t-37 51.5t-56 34.5t-70.5 12.5z" />
    <glyph glyph-name="uni3268" unicode="&#x3268;" horiz-adv-x="1000" 
d="M500 842q96 0 180 -36.5t146.5 -99t99 -146.5t36.5 -180t-36.5 -180t-99 -146.5t-146.5 -99t-180 -36.5t-180 36.5t-146.5 99t-99 146.5t-36.5 180t36.5 180t99 146.5t146.5 99t180 36.5zM500 -54q90 0 169 34t138 93t93 138t34 169t-34 169t-93 138t-138 93t-169 34
t-169 -34t-138 -93t-93 -138t-34 -169t34 -169t93 -138t138 -93t169 -34zM523 514v-52q0 -40 17.5 -77t47.5 -68.5t71 -55t89 -36.5l-27 -41q-78 24 -136 71t-86 111q-28 -64 -86.5 -111t-136.5 -71l-26 41q48 13 89 36.5t71 55t47.5 68.5t17.5 77v52h-197v45h444v-45h-199z
" />
    <glyph glyph-name="uni3269" unicode="&#x3269;" horiz-adv-x="1000" 
d="M500 842q96 0 180 -36.5t146.5 -99t99 -146.5t36.5 -180t-36.5 -180t-99 -146.5t-146.5 -99t-180 -36.5t-180 36.5t-146.5 99t-99 146.5t-36.5 180t36.5 180t99 146.5t146.5 99t180 36.5zM500 -54q90 0 169 34t138 93t93 138t34 169t-34 169t-93 138t-138 93t-169 34
t-169 -34t-138 -93t-93 -138t-34 -169t34 -169t93 -138t138 -93t169 -34zM527 458v-30q0 -34 16 -68t44 -62.5t66.5 -51t84.5 -34.5l-25 -42q-75 23 -130.5 67.5t-81.5 104.5q-26 -60 -81.5 -104.5t-130.5 -67.5l-25 42q46 12 84.5 34.5t67 51t44.5 62.5t16 68v30h-196v45
h195v124h52v-124h198v-45h-198z" />
    <glyph glyph-name="uni326A" unicode="&#x326a;" horiz-adv-x="1000" 
d="M500 842q96 0 180 -36.5t146.5 -99t99 -146.5t36.5 -180t-36.5 -180t-99 -146.5t-146.5 -99t-180 -36.5t-180 36.5t-146.5 99t-99 146.5t-36.5 180t36.5 180t99 146.5t146.5 99t180 36.5zM500 -54q90 0 169 34t138 93t93 138t34 169t-34 169t-93 138t-138 93t-169 34
t-169 -34t-138 -93t-93 -138t-34 -169t34 -169t93 -138t138 -93t169 -34zM287 522v43h426v-427h-50v203l-390 -25l-9 50l399 19v137h-376z" />
    <glyph glyph-name="uni326B" unicode="&#x326b;" horiz-adv-x="1000" 
d="M500 842q96 0 180 -36.5t146.5 -99t99 -146.5t36.5 -180t-36.5 -180t-99 -146.5t-146.5 -99t-180 -36.5t-180 36.5t-146.5 99t-99 146.5t-36.5 180t36.5 180t99 146.5t146.5 99t180 36.5zM500 -54q90 0 169 34t138 93t93 138t34 169t-34 169t-93 138t-138 93t-169 34
t-169 -34t-138 -93t-93 -138t-34 -169t34 -169t93 -138t138 -93t169 -34zM339 339v-137h380v-45h-432v411h423v-44h-371v-140h369v-45h-369z" />
    <glyph glyph-name="uni326C" unicode="&#x326c;" horiz-adv-x="1000" 
d="M500 842q96 0 180 -36.5t146.5 -99t99 -146.5t36.5 -180t-36.5 -180t-99 -146.5t-146.5 -99t-180 -36.5t-180 36.5t-146.5 99t-99 146.5t-36.5 180t36.5 180t99 146.5t146.5 99t180 36.5zM500 -54q90 0 169 34t138 93t93 138t34 169t-34 169t-93 138t-138 93t-169 34
t-169 -34t-138 -93t-93 -138t-34 -169t34 -169t93 -138t138 -93t169 -34zM636 503v-276h116v-45h-510v45h118v276h-95v45h464v-45h-93zM410 503v-276h176v276h-176z" />
    <glyph glyph-name="uni326D" unicode="&#x326d;" horiz-adv-x="1000" 
d="M500 842q96 0 180 -36.5t146.5 -99t99 -146.5t36.5 -180t-36.5 -180t-99 -146.5t-146.5 -99t-180 -36.5t-180 36.5t-146.5 99t-99 146.5t-36.5 180t36.5 180t99 146.5t146.5 99t180 36.5zM500 -54q90 0 169 34t138 93t93 138t34 169t-34 169t-93 138t-138 93t-169 34
t-169 -34t-138 -93t-93 -138t-34 -169t34 -169t93 -138t138 -93t169 -34zM525 631v-110h230v-44h-514v44h232v110h52zM500 417q39 0 72 -12t58 -33t39 -50.5t14 -64.5t-14 -64.5t-39 -50.5t-58 -33t-72 -12t-72.5 12t-58 33t-38.5 50.5t-14 64.5t14 64.5t38.5 50.5t58 33
t72.5 12zM500 139q28 0 52.5 9t42.5 25t28.5 37.5t10.5 46.5t-10.5 46.5t-28.5 37.5t-42.5 25.5t-52.5 9.5q-29 0 -53.5 -9.5t-42.5 -25.5t-28 -37.5t-10 -46.5t10 -46.5t28 -37.5t42.5 -25t53.5 -9z" />
    <glyph glyph-name="uni326E" unicode="&#x326e;" horiz-adv-x="1000" 
d="M500 842q96 0 180 -36.5t146.5 -99t99 -146.5t36.5 -180t-36.5 -180t-99 -146.5t-146.5 -99t-180 -36.5t-180 36.5t-146.5 99t-99 146.5t-36.5 180t36.5 180t99 146.5t146.5 99t180 36.5zM500 -54q90 0 169 34t138 93t93 138t34 169t-34 169t-93 138t-138 93t-169 34
t-169 -34t-138 -93t-93 -138t-34 -169t34 -169t93 -138t138 -93t169 -34zM707 440h134v-46h-134v-367h-54v715h54v-302zM209 640h294q0 -154 -76.5 -279.5t-221.5 -216.5l-34 39q124 75 196.5 179t82.5 231h-241v47z" />
    <glyph glyph-name="uni326F" unicode="&#x326f;" horiz-adv-x="1000" 
d="M500 842q96 0 180 -36.5t146.5 -99t99 -146.5t36.5 -180t-36.5 -180t-99 -146.5t-146.5 -99t-180 -36.5t-180 36.5t-146.5 99t-99 146.5t-36.5 180t36.5 180t99 146.5t146.5 99t180 36.5zM500 -54q90 0 169 34t138 93t93 138t34 169t-34 169t-93 138t-138 93t-169 34
t-169 -34t-138 -93t-93 -138t-34 -169t34 -169t93 -138t138 -93t169 -34zM717 440h127v-46h-127v-367h-54v715h54v-302zM246 231h3q78 0 159 7t175 27l8 -48q-97 -20 -179 -27t-163 -7h-56v452h53v-404z" />
    <glyph glyph-name="uni3270" unicode="&#x3270;" horiz-adv-x="1000" 
d="M500 842q96 0 180 -36.5t146.5 -99t99 -146.5t36.5 -180t-36.5 -180t-99 -146.5t-146.5 -99t-180 -36.5t-180 36.5t-146.5 99t-99 146.5t-36.5 180t36.5 180t99 146.5t146.5 99t180 36.5zM500 -54q90 0 169 34t138 93t93 138t34 169t-34 169t-93 138t-138 93t-169 34
t-169 -34t-138 -93t-93 -138t-34 -169t34 -169t93 -138t138 -93t169 -34zM713 415h128v-46h-128v-342h-53v715h53v-327zM246 237h3q50 0 93 0.5t83 3.5t78.5 8t80.5 14l7 -48q-43 -8 -83 -13.5t-80.5 -8.5t-84 -4t-94.5 -1h-56v449h338v-46h-285v-354z" />
    <glyph glyph-name="uni3271" unicode="&#x3271;" horiz-adv-x="1000" 
d="M500 842q96 0 180 -36.5t146.5 -99t99 -146.5t36.5 -180t-36.5 -180t-99 -146.5t-146.5 -99t-180 -36.5t-180 36.5t-146.5 99t-99 146.5t-36.5 180t36.5 180t99 146.5t146.5 99t180 36.5zM500 -54q90 0 169 34t138 93t93 138t34 169t-34 169t-93 138t-138 93t-169 34
t-169 -34t-138 -93t-93 -138t-34 -169t34 -169t93 -138t138 -93t169 -34zM708 440h133v-46h-133v-367h-53v715h53v-302zM239 226h1q48 0 90 1t81 4t77.5 8t79.5 13l5 -47q-42 -8 -81 -13t-78.5 -8t-82 -4t-91.5 -1h-53v271h261v155h-264v44h317v-244h-262v-179z" />
    <glyph glyph-name="uni3272" unicode="&#x3272;" horiz-adv-x="1000" 
d="M500 842q96 0 180 -36.5t146.5 -99t99 -146.5t36.5 -180t-36.5 -180t-99 -146.5t-146.5 -99t-180 -36.5t-180 36.5t-146.5 99t-99 146.5t-36.5 180t36.5 180t99 146.5t146.5 99t180 36.5zM500 -54q90 0 169 34t138 93t93 138t34 169t-34 169t-93 138t-138 93t-169 34
t-169 -34t-138 -93t-93 -138t-34 -169t34 -169t93 -138t138 -93t169 -34zM708 440h134v-46h-134v-367h-53v715h53v-302zM194 195v455h314v-455h-314zM247 604v-363h208v363h-208z" />
    <glyph glyph-name="uni3273" unicode="&#x3273;" horiz-adv-x="1000" 
d="M500 842q96 0 180 -36.5t146.5 -99t99 -146.5t36.5 -180t-36.5 -180t-99 -146.5t-146.5 -99t-180 -36.5t-180 36.5t-146.5 99t-99 146.5t-36.5 180t36.5 180t99 146.5t146.5 99t180 36.5zM500 -54q90 0 169 34t138 93t93 138t34 169t-34 169t-93 138t-138 93t-169 34
t-169 -34t-138 -93t-93 -138t-34 -169t34 -169t93 -138t138 -93t169 -34zM712 440h129v-46h-129v-367h-54v715h54v-302zM463 480v186h52v-496h-321v496h52v-186h217zM463 218v214h-217v-214h217z" />
    <glyph glyph-name="uni3274" unicode="&#x3274;" horiz-adv-x="1000" 
d="M500 842q96 0 180 -36.5t146.5 -99t99 -146.5t36.5 -180t-36.5 -180t-99 -146.5t-146.5 -99t-180 -36.5t-180 36.5t-146.5 99t-99 146.5t-36.5 180t36.5 180t99 146.5t146.5 99t180 36.5zM500 -54q90 0 169 34t138 93t93 138t34 169t-34 169t-93 138t-138 93t-169 34
t-169 -34t-138 -93t-93 -138t-34 -169t34 -169t93 -138t138 -93t169 -34zM707 440h134v-46h-134v-367h-54v715h54v-302zM382 682v-100q0 -57 13 -111.5t38 -102t60.5 -85.5t80.5 -62l-35 -40q-69 38 -115 105t-68 152q-22 -85 -68 -152t-115 -105l-36 40q45 24 81 62
t60.5 85.5t38 102t13.5 111.5v100h52z" />
    <glyph glyph-name="uni3275" unicode="&#x3275;" horiz-adv-x="1000" 
d="M500 842q96 0 180 -36.5t146.5 -99t99 -146.5t36.5 -180t-36.5 -180t-99 -146.5t-146.5 -99t-180 -36.5t-180 36.5t-146.5 99t-99 146.5t-36.5 180t36.5 180t99 146.5t146.5 99t180 36.5zM500 -54q90 0 169 34t138 93t93 138t34 169t-34 169t-93 138t-138 93t-169 34
t-169 -34t-138 -93t-93 -138t-34 -169t34 -169t93 -138t138 -93t169 -34zM699 442h133v-47h-133v-368h-54v715h54v-300zM349 668q39 0 70.5 -17.5t53.5 -49.5t34 -77.5t12 -102.5t-12 -102.5t-34 -78t-53.5 -49.5t-70.5 -17t-70 17t-53 49.5t-34 78t-12 102.5t12 102.5
t34 77.5t53 49.5t70 17.5zM349 220q28 0 50 15t37.5 41.5t23.5 63.5t8 81t-8 81t-23.5 63.5t-37.5 41.5t-50 15q-27 0 -49 -15t-37.5 -41.5t-23.5 -63.5t-8 -81t8 -81t23.5 -63.5t37.5 -41.5t49 -15z" />
    <glyph glyph-name="uni3276" unicode="&#x3276;" horiz-adv-x="1000" 
d="M500 842q96 0 180 -36.5t146.5 -99t99 -146.5t36.5 -180t-36.5 -180t-99 -146.5t-146.5 -99t-180 -36.5t-180 36.5t-146.5 99t-99 146.5t-36.5 180t36.5 180t99 146.5t146.5 99t180 36.5zM500 -54q90 0 169 34t138 93t93 138t34 169t-34 169t-93 138t-138 93t-169 34
t-169 -34t-138 -93t-93 -138t-34 -169t34 -169t93 -138t138 -93t169 -34zM709 440h132v-46h-132v-367h-53v715h53v-302zM401 602v-87q0 -42 12.5 -84.5t36 -80t57.5 -68t77 -48.5l-31 -39q-66 30 -111.5 85.5t-65.5 124.5q-21 -69 -66.5 -124.5t-111.5 -85.5l-31 40
q43 18 77 48t57.5 67.5t36 79.5t12.5 85v87h-159v47h370v-47h-160z" />
    <glyph glyph-name="uni3277" unicode="&#x3277;" horiz-adv-x="1000" 
d="M500 842q96 0 180 -36.5t146.5 -99t99 -146.5t36.5 -180t-36.5 -180t-99 -146.5t-146.5 -99t-180 -36.5t-180 36.5t-146.5 99t-99 146.5t-36.5 180t36.5 180t99 146.5t146.5 99t180 36.5zM500 -54q90 0 169 34t138 93t93 138t34 169t-34 169t-93 138t-138 93t-169 34
t-169 -34t-138 -93t-93 -138t-34 -169t34 -169t93 -138t138 -93t169 -34zM709 440h132v-46h-132v-367h-54v715h54v-302zM396 523v-54q0 -38 12.5 -75.5t36 -70.5t57 -59.5t75.5 -42.5l-30 -42q-66 27 -111 76t-67 112q-21 -63 -66.5 -112t-111.5 -76l-29 42q42 16 75.5 42.5
t57.5 59.5t36.5 70.5t12.5 75.5v54h-158v46h157v118h53v-118h149v-46h-149z" />
    <glyph glyph-name="uni3278" unicode="&#x3278;" horiz-adv-x="1000" 
d="M500 842q96 0 180 -36.5t146.5 -99t99 -146.5t36.5 -180t-36.5 -180t-99 -146.5t-146.5 -99t-180 -36.5t-180 36.5t-146.5 99t-99 146.5t-36.5 180t36.5 180t99 146.5t146.5 99t180 36.5zM500 -54q90 0 169 34t138 93t93 138t34 169t-34 169t-93 138t-138 93t-169 34
t-169 -34t-138 -93t-93 -138t-34 -169t34 -169t93 -138t138 -93t169 -34zM708 422h133v-47h-133v-348h-53v715h53v-320zM217 642h308q0 -76 -17 -147.5t-54 -136t-95 -120.5t-141 -101l-37 36q94 49 154 111.5t94 135.5l-247 -25l-12 48l276 21q11 32 17.5 64.5t8.5 66.5
h-255v47z" />
    <glyph glyph-name="uni3279" unicode="&#x3279;" horiz-adv-x="1000" 
d="M500 842q96 0 180 -36.5t146.5 -99t99 -146.5t36.5 -180t-36.5 -180t-99 -146.5t-146.5 -99t-180 -36.5t-180 36.5t-146.5 99t-99 146.5t-36.5 180t36.5 180t99 146.5t146.5 99t180 36.5zM500 -54q90 0 169 34t138 93t93 138t34 169t-34 169t-93 138t-138 93t-169 34
t-169 -34t-138 -93t-93 -138t-34 -169t34 -169t93 -138t138 -93t169 -34zM708 440h133v-46h-133v-367h-53v715h53v-302zM238 239h2q51 0 94.5 1t84 3.5t80 8t82.5 14.5l6 -48q-43 -8 -83.5 -13t-81.5 -8t-85.5 -4.5t-96.5 -1.5h-56v474h336v-48h-282v-159h258v-46h-258v-173
z" />
    <glyph glyph-name="uni327A" unicode="&#x327a;" horiz-adv-x="1000" 
d="M500 842q96 0 180 -36.5t146.5 -99t99 -146.5t36.5 -180t-36.5 -180t-99 -146.5t-146.5 -99t-180 -36.5t-180 36.5t-146.5 99t-99 146.5t-36.5 180t36.5 180t99 146.5t146.5 99t180 36.5zM500 -54q90 0 169 34t138 93t93 138t34 169t-34 169t-93 138t-138 93t-169 34
t-169 -34t-138 -93t-93 -138t-34 -169t34 -169t93 -138t138 -93t169 -34zM718 440h127v-46h-127v-367h-54v715h54v-302zM484 592v-350q32 2 62 5t58 6l2 -40q-54 -9 -115.5 -14.5t-123 -8t-119 -3.5t-103.5 -1l-7 47h56q29 0 61 1v358h-87v46h401v-46h-85zM305 592v-357
q32 1 64.5 2t64.5 3v352h-129z" />
    <glyph glyph-name="uni327B" unicode="&#x327b;" horiz-adv-x="1000" 
d="M500 842q96 0 180 -36.5t146.5 -99t99 -146.5t36.5 -180t-36.5 -180t-99 -146.5t-146.5 -99t-180 -36.5t-180 36.5t-146.5 99t-99 146.5t-36.5 180t36.5 180t99 146.5t146.5 99t180 36.5zM500 -54q90 0 169 34t138 93t93 138t34 169t-34 169t-93 138t-138 93t-169 34
t-169 -34t-138 -93t-93 -138t-34 -169t34 -169t93 -138t138 -93t169 -34zM717 440h127v-46h-127v-367h-54v715h54v-302zM405 693v-110h184v-46h-427v46h189v110h54zM375 474q36 0 66.5 -11t53 -31t35 -48t12.5 -62t-12.5 -62t-35 -48t-53 -31t-66.5 -11t-66.5 11t-53 31
t-35.5 48t-13 62t13 62t35.5 48t53 31t66.5 11zM375 211q26 0 47.5 8.5t38 23.5t25.5 35t9 44t-9 44t-25.5 35t-38 23.5t-47.5 8.5q-52 0 -86 -31.5t-34 -79.5t34 -79.5t86 -31.5z" />
    <glyph glyph-name="uni327F" unicode="&#x327f;" horiz-adv-x="1000" 
d="M38 365v15q0 96 36.5 180t99 146.5t146.5 99t180 36.5q87 0 165 -30.5t139 -83.5t101 -125.5t52 -156.5h-28q-12 78 -49.5 145t-94.5 116.5t-130 78t-155 28.5q-88 0 -166 -33t-136.5 -90t-93.5 -133t-38 -163h173v-30h-201zM326 129v514h57v-267h2l249 267h65l-176 -194
l198 -320h-63l-171 281l-104 -108v-173h-57zM500 -82q-87 0 -165 30t-139 83.5t-101.5 126t-52.5 156.5h28q12 -78 50 -145.5t95 -117t130 -77.5t155 -28q88 0 165.5 32.5t136 89.5t93.5 133.5t38 163.5h-251v30h280v-15q0 -96 -36.5 -180.5t-99.5 -147t-147 -98.5t-179 -36
z" />
    <glyph glyph-name="uni33C2" unicode="&#x33c2;" horiz-adv-x="1000" 
d="M209 -13q-60 0 -101 36t-41 109q0 90 74 136t225 66q0 30 -5 59.5t-17.5 52.5t-34.5 37t-55 14q-43 0 -78 -20t-59 -41l-27 43q14 10 32.5 22t40.5 22t47 16.5t53 6.5q42 0 72.5 -15.5t50 -43t29 -65t9.5 -81.5v-341h-49l-6 69h-2q-35 -37 -74 -59.5t-84 -22.5zM553 0
v533h43l4 -65h4q17 36 39.5 56.5t58.5 20.5q34 0 51.5 -22.5t24.5 -60.5q16 38 39.5 60.5t57.5 22.5q42 0 65.5 -35t23.5 -107v-403h-54v395q0 51 -13.5 75t-37.5 24q-25 0 -42 -22t-34 -65v-407h-49v395q0 48 -11.5 73.5t-37.5 25.5q-23 0 -42 -22t-37 -65v-407h-53z
M222 37q37 0 71.5 20.5t72.5 60.5v174q-67 -9 -113 -23t-74 -33t-40.5 -43.5t-12.5 -55.5q0 -55 28 -77.5t68 -22.5z" />
    <glyph glyph-name="uni33C7" unicode="&#x33c7;" horiz-adv-x="1000" 
d="M281 -12q-47 0 -88 23.5t-71.5 70.5t-48 118t-17.5 165q0 95 18 166t49 118t73 70t89 23q48 0 81.5 -24t56.5 -54l-38 -39q-20 29 -43.5 46t-55.5 17q-35 0 -66 -19.5t-54 -59.5t-36.5 -100.5t-13.5 -142.5t13 -143.5t35.5 -101.5t53.5 -60t68 -20q35 0 61 18.5t52 55.5
l38 -36q-32 -45 -68.5 -68t-87.5 -23zM656 -12q-36 0 -68 17t-56 51.5t-38 87t-14 122.5q0 71 14 123t38 87t56 52t68 17t68 -17t56 -52t38 -87t14 -123q0 -70 -14 -122.5t-38 -87t-56 -51.5t-68 -17zM656 38q49 0 83.5 57.5t34.5 170.5q0 112 -33.5 171t-84.5 59t-84.5 -59
t-33.5 -171q0 -115 33.5 -171.5t84.5 -56.5zM915 -12q-19 0 -33.5 13.5t-14.5 39.5q0 25 14.5 40.5t33.5 15.5t33.5 -15.5t14.5 -40.5q0 -26 -14.5 -39.5t-33.5 -13.5z" />
    <glyph glyph-name="uni33D8" unicode="&#x33d8;" horiz-adv-x="1000" 
d="M80 -219v752h49l7 -66h2q29 35 64 56.5t72 21.5q86 0 129 -73t43 -198q0 -69 -15.5 -122.5t-41.5 -90.5t-60.5 -56t-73.5 -19q-28 0 -58 14.5t-59 48.5l1 -96v-172h-59zM553 0v533h43l4 -65h4q17 36 39.5 56.5t58.5 20.5q34 0 51.5 -22.5t24.5 -60.5q16 38 39.5 60.5
t57.5 22.5q42 0 65.5 -35t23.5 -107v-403h-54v395q0 51 -13.5 75t-37.5 24q-25 0 -42 -22t-34 -65v-407h-49v395q0 48 -11.5 73.5t-37.5 25.5q-23 0 -42 -22t-37 -65v-407h-53zM248 38q29 0 54 17t43 47.5t28.5 74t10.5 97.5q0 49 -6.5 89.5t-21 70t-38 45.5t-56.5 16
q-28 0 -58.5 -19.5t-64.5 -65.5v-309q32 -39 60 -51t49 -12z" />
    <glyph glyph-name="uniAC00" unicode="&#xac00;" 
d="M886 446v-46h-154v-470h-53v888h53v-372h154zM107 720h400q0 -91 -24 -178t-74 -166t-126.5 -147t-182.5 -121l-30 42q183 91 278.5 225.5t106.5 299.5h-348v45z" />
    <glyph glyph-name="uniAC01" unicode="&#xac01;" 
d="M880 582v-45h-139v-242h-53v524h53v-237h139zM97 758h404q0 -81 -29 -151.5t-83.5 -127.5t-132 -100t-174.5 -70l-21 43q86 24 154.5 59.5t118 81.5t78 101.5t33.5 118.5h-348v45zM172 207v44h569v-321h-53v277h-516z" />
    <glyph glyph-name="uniAC04" unicode="&#xac04;" 
d="M740 536h140v-46h-140v-330h-53v658h53v-282zM97 748h406q0 -84 -30.5 -157t-85 -133.5t-131.5 -107.5t-170 -78l-23 44q81 27 149 66t118.5 88t80.5 108t35 125h-349v45zM252 228v-231h533v-45h-586v276h53z" />
    <glyph glyph-name="uniAC07" unicode="&#xac07;" 
d="M741 588h139v-45h-139v-233h-53v509h53v-231zM98 758h404q0 -81 -29 -151.5t-83.5 -128t-132 -101t-174.5 -70.5l-22 44q173 48 273 140.5t111 221.5h-347v45zM246 212v-223h514v-45h-567v312h551v-44h-498z" />
    <glyph glyph-name="uniAC08" unicode="&#xac08;" 
d="M741 606h139v-46h-139v-199h-53v457h53v-212zM97 768h404q0 -81 -30 -148.5t-84.5 -121.5t-131.5 -93.5t-172 -63.5l-21 44q84 21 152.5 54t118 76t78 95.5t32.5 113.5h-346v44zM244 113v-130h533v-44h-585v218h497v116h-499v45h551v-205h-497z" />
    <glyph glyph-name="uniAC09" unicode="&#xac09;" 
d="M880 601v-46h-139v-218h-53v481h53v-217h139zM101 766h400q0 -81 -29.5 -149.5t-84 -123t-131.5 -95t-172 -65.5l-21 45q84 21 152.5 54t117 77t77 97.5t33.5 114.5h-342v45zM206 103v-118q46 0 83.5 0.5t72 2.5t67 6t68.5 11l5 -43q-37 -7 -70.5 -11.5t-68.5 -6.5
t-73.5 -3t-85.5 -1h-49v204h230v108h-233v43h284v-192h-230zM475 250v45h266v-361h-53v316h-213z" />
    <glyph glyph-name="uniAC0A" unicode="&#xac0a;" 
d="M880 599v-45h-139v-216h-53v480h53v-219h139zM100 766h401q0 -81 -30 -149t-84.5 -122t-132 -93.5t-172.5 -63.5l-20 44q84 21 152.5 54t118 76t78 95.5t32.5 113.5h-343v45zM191 107v-121h71q31 0 59.5 1.5t55.5 5t56 9.5l6 -43q-32 -6 -60.5 -9.5t-58.5 -5.5
t-63.5 -2.5t-74.5 -0.5h-42v208h220v103h-223v43h275v-188h-221zM471 -63v358h270v-358h-270zM519 253v-274h173v274h-173z" />
    <glyph glyph-name="uniAC0B" unicode="&#xac0b;" 
d="M880 606v-45h-139v-220h-53v477h53v-212h139zM100 770h401q0 -81 -30 -149t-84.5 -122t-132 -93t-172.5 -63l-20 44q84 21 152.5 53.5t118 75.5t78 95.5t32.5 113.5h-343v45zM691 177v127h50v-360h-275v360h50v-127h175zM190 107v-119q39 0 71 0.5t60.5 2.5t55.5 5.5
t56 9.5l4 -43q-31 -6 -59 -9.5t-57.5 -5.5t-63 -2.5t-75.5 -0.5h-43v202h220v103h-222v44h274v-187h-221zM691 -12v146h-175v-146h175z" />
    <glyph glyph-name="uniAC10" unicode="&#xac10;" 
d="M880 589v-46h-139v-234h-53v510h53v-230h139zM98 758h404q0 -81 -29 -151.5t-83.5 -128.5t-132 -101.5t-175.5 -70.5l-21 45q173 48 273 140.5t111 221.5h-347v45zM191 -55v319h550v-319h-550zM244 219v-230h444v230h-444z" />
    <glyph glyph-name="uniAC11" unicode="&#xac11;" 
d="M880 598v-46h-140v-214h-53v481h53v-221h140zM98 762h404q0 -81 -29.5 -150t-84.5 -124t-132 -95.5t-173 -64.5l-21 44q84 22 152.5 55.5t118 77.5t78 97.5t33.5 114.5h-346v45zM688 166v129h52v-351h-550v351h52v-129h446zM688 -12v135h-446v-135h446z" />
    <glyph glyph-name="uniAC12" unicode="&#xac12;" 
d="M741 601h139v-45h-139v-222h-53v485h53v-218zM99 762h403q0 -81 -29.5 -150t-84 -124t-132 -96t-173.5 -66l-21 46q84 21 152.5 54.5t118 77.5t78 98t33.5 115h-345v45zM685 297v-76q0 -33 10.5 -69t30.5 -69.5t49.5 -61.5t68.5 -46l-29 -41q-60 29 -98.5 78t-56.5 106
q-20 -57 -59.5 -106t-99.5 -78l-30 41q39 18 69.5 45.5t51 60.5t31.5 68.5t11 68.5v79h51zM403 167v121h51v-345h-294v345h50v-121h193zM403 -13v137h-193v-137h193z" />
    <glyph glyph-name="uniAC13" unicode="&#xac13;" 
d="M772 559h108v-45h-108v-286h-53v592h53v-261zM100 748h403q0 -82 -29.5 -154.5t-83.5 -132t-131 -105.5t-172 -76l-24 43q84 26 152.5 64t118 86.5t78.5 106.5t34 123h-346v45zM507 296v-47q0 -54 28 -99t72.5 -79t98.5 -57t106 -34l-22 -42q-46 10 -93 29t-89 46t-75 62
t-52 78q-19 -43 -53 -79t-76 -63.5t-89 -46.5t-94 -29l-23 43q52 10 106.5 33t99.5 57.5t73.5 80t28.5 100.5v47h53z" />
    <glyph glyph-name="uniAC14" unicode="&#xac14;" 
d="M741 583h139v-45h-139v-219h-53v501h53v-237zM99 758h404q0 -81 -29.5 -151.5t-84 -128t-132.5 -101t-175 -70.5l-20 44q173 49 272.5 141t110.5 221h-346v45zM667 284v-76q0 -35 13.5 -69.5t38.5 -65t59 -54.5t75 -38l-27 -41q-67 25 -114.5 72.5t-70.5 105.5
q-19 -55 -60.5 -106t-104.5 -79q-66 26 -107.5 75.5t-59.5 107.5q-23 -57 -70 -103.5t-111 -72.5l-28 41q41 15 75 40.5t59 56t39 64.5t14 66v76h50v-76q0 -31 9 -63t26.5 -61.5t43 -54.5t59.5 -43q35 20 61 47.5t44 57.5t27 60.5t9 56.5v76h51z" />
    <glyph glyph-name="uniAC15" unicode="&#xac15;" 
d="M741 575h139v-45h-139v-253h-53v541h53v-243zM98 748h405q0 -82 -29.5 -154t-84.5 -131t-132 -104.5t-173 -74.5l-22 44q84 26 152.5 63.5t118 85t78.5 104.5t34 122h-347v45zM466 266q66 0 118.5 -11.5t89.5 -33t57 -52.5t20 -70t-20 -69.5t-57 -52t-89.5 -32.5
t-118.5 -11q-65 0 -117.5 11t-89 32.5t-56.5 52t-20 69.5t20 70t56.5 52.5t89 33t117.5 11.5zM466 -23q53 0 96 8.5t73.5 24t47 38.5t16.5 51q0 29 -16.5 51.5t-47 38.5t-73.5 24.5t-96 8.5q-52 0 -94.5 -8.5t-73 -24.5t-47 -38.5t-16.5 -51.5q0 -28 16.5 -50.5t47 -38.5
t73 -24.5t94.5 -8.5z" />
    <glyph glyph-name="uniAC16" unicode="&#xac16;" 
d="M741 577h139v-45h-139v-230h-53v518h53v-243zM98 758h404q0 -82 -29 -152t-83.5 -127t-132 -99.5t-175.5 -69.5l-20 44q173 49 272.5 139.5t110.5 219.5h-347v45zM499 210v-4q0 -43 27 -81t69.5 -68t94 -51.5t100.5 -31.5l-22 -42q-45 9 -90 26.5t-84.5 42.5t-71.5 56.5
t-50 68.5q-18 -37 -50 -68.5t-71.5 -56.5t-84.5 -42.5t-90 -26.5l-22 42q49 10 100.5 31t93.5 51t69 68t27 82v4h-259v44h573v-44h-259z" />
    <glyph glyph-name="uniAC17" unicode="&#xac17;" 
d="M741 599h139v-45h-139v-227h-53v491h53v-219zM100 757h403q0 -81 -29 -150t-83 -125.5t-131.5 -98t-174.5 -66.5l-21 45q173 45 271.5 134.5t108.5 215.5h-344v45zM763 199h-266q1 -42 28.5 -79.5t70 -67.5t94 -51t100.5 -30l-22 -41q-44 9 -89.5 26t-86 41.5t-72.5 55.5
t-50 68q-18 -37 -50 -68t-72.5 -55.5t-86 -41.5t-89.5 -26l-23 41q50 9 101.5 30t94 51t70 67.5t28.5 79.5h-266v44h266v116h53v-116h267v-44z" />
    <glyph glyph-name="uniAC19" unicode="&#xac19;" 
d="M741 599h139v-45h-139v-216h-53v480h53v-219zM97 755h407q0 -81 -29.5 -150t-84 -124t-131.5 -95.5t-173 -65.5l-22 45q85 22 153.5 55.5t117.5 78t77.5 97.5t32.5 114h-348v45zM248 101v-114h519v-43h-572v351h551v-43h-498v-109h487v-42h-487z" />
    <glyph glyph-name="uniAC1A" unicode="&#xac1a;" 
d="M741 593h139v-45h-139v-232h-53v502h53v-225zM101 757h403q0 -81 -31.5 -151t-87.5 -126t-133 -98t-168 -67l-22 45q81 22 149 56.5t118.5 79.5t80.5 99.5t35 116.5h-344v45zM635 224v-231h143v-45h-603v45h141v231h-133v44h585v-44h-133zM368 224v-231h215v231h-215z
" />
    <glyph glyph-name="uniAC1B" unicode="&#xac1b;" 
d="M741 609h139v-45h-139v-218h-53v473h53v-210zM98 762h405q0 -81 -29.5 -150t-84 -124.5t-132.5 -97t-175 -66.5l-19 45q85 22 153.5 56t117.5 78.5t77.5 98.5t32.5 115h-346v45zM505 390v-114h281v-44h-615v44h281v114h53zM478 182q115 0 179.5 -32.5t64.5 -92.5
t-64.5 -92.5t-179.5 -32.5t-179.5 32.5t-64.5 92.5t64.5 92.5t179.5 32.5zM478 -27q91 0 142 22t51 62q0 39 -51 62t-142 23t-142.5 -23t-51.5 -62q0 -40 51.5 -62t142.5 -22z" />
    <glyph glyph-name="uniAC1C" unicode="&#xac1c;" 
d="M754 818h51v-888h-51v473h-147v-425h-51v816h51v-346h147v370zM91 700h343q0 -80 -17 -160t-56.5 -154.5t-104.5 -140.5t-161 -119l-32 39q83 45 142 101t97 119t57 131.5t23 138.5h-291v45z" />
    <glyph glyph-name="uniAC1D" unicode="&#xac1d;" 
d="M749 817h51v-524h-51v246h-143v-240h-51v502h51v-217h143v233zM101 749h343q0 -156 -89 -275t-257 -192l-29 39q147 63 229.5 160.5t91.5 223.5h-289v44zM216 202v45h584v-317h-53v272h-531z" />
    <glyph glyph-name="uniAC20" unicode="&#xac20;" 
d="M606 490v-303h-51v614h51v-266h143v282h51v-662h-51v335h-143zM100 730h343q0 -157 -88 -277t-258 -195l-28 39q147 63 228.5 162.5t91.5 226.5h-289v44zM284 5h546v-44h-599v276h53v-232z" />
    <glyph glyph-name="uniAC23" unicode="&#xac23;" 
d="M606 543v-232h-51v491h51v-214h143v229h51v-512h-51v238h-143zM100 749h345q0 -156 -89.5 -273t-256.5 -189l-28 41q145 60 226.5 155.5t92.5 221.5h-290v44zM281 -11h536v-45h-588v301h577v-45h-525v-211z" />
    <glyph glyph-name="uniAC24" unicode="&#xac24;" 
d="M606 559v-196h-51v438h51v-197h143v214h51v-462h-51v203h-143zM103 764h341q0 -74 -23.5 -139.5t-68 -120.5t-108.5 -98.5t-146 -74.5l-27 41q147 54 227.5 141.5t90.5 205.5h-286v45zM280 -12h557v-44h-609v214h521v110h-523v44h574v-197h-520v-127z" />
    <glyph glyph-name="uniAC2C" unicode="&#xac2c;" 
d="M749 817h51v-510h-51v237h-143v-230h-51v487h51v-212h143v228zM100 749h345q0 -156 -89.5 -272.5t-256.5 -188.5l-29 40q145 61 227 156t93 221h-290v44zM228 -55v312h572v-312h-572zM281 213v-224h467v224h-467z" />
    <glyph glyph-name="uniAC2D" unicode="&#xac2d;" 
d="M749 817h51v-483h-51v214h-143v-207h-51v460h51v-208h143v224zM102 755h342q0 -154 -88 -267t-258 -182l-27 40q147 58 227.5 150.5t90.5 213.5h-287v45zM749 171v121h51v-347h-569v347h52v-121h466zM749 -11v138h-466v-138h466z" />
    <glyph glyph-name="uniAC2F" unicode="&#xac2f;" 
d="M606 529v-210h-51v482h51v-227h143v244h51v-580h-51v291h-143zM106 733h339q0 -155 -85.5 -277.5t-260.5 -198.5l-29 42q155 63 233 162.5t87 226.5h-284v45zM539 275v-46q0 -49 30 -91t75.5 -75t100.5 -55t106 -31l-22 -42q-46 9 -94 27t-91 44.5t-77.5 61t-53.5 76.5
q-19 -42 -54 -76.5t-78 -61t-91 -44.5t-94 -27l-22 42q50 9 105 31t101 55t76 75t30 91v46h53z" />
    <glyph glyph-name="uniAC30" unicode="&#xac30;" 
d="M606 538v-230h-51v493h51v-218h143v234h51v-515h-51v236h-143zM101 749h343q0 -76 -23.5 -144.5t-68 -127t-109 -106.5t-145.5 -83l-28 42q144 60 226.5 155t92.5 220h-288v44zM683 268v-70q0 -34 14 -68.5t38.5 -64.5t59 -54.5t75.5 -39.5l-27 -40q-67 26 -115 72.5
t-71 106.5q-19 -57 -60 -107.5t-104 -79.5q-66 27 -107.5 76t-59.5 107q-24 -57 -70.5 -103t-112.5 -72l-27 40q41 15 75 40.5t59 56t39 64.5t14 66v70h50v-70q0 -31 9 -63t26.5 -61.5t43.5 -54.5t60 -43q34 20 60 47.5t44 57.5t27 60.5t9 56.5v70h51z" />
    <glyph glyph-name="uniAC31" unicode="&#xac31;" 
d="M606 527v-229h-51v504h51v-230h143v246h51v-552h-51v261h-143zM102 741h343q0 -76 -23.5 -145t-68 -128t-108.5 -107.5t-146 -84.5l-29 40q145 61 227.5 157t92.5 223h-288v45zM514 254q139 0 218.5 -41.5t79.5 -118.5t-79.5 -118.5t-218.5 -41.5t-218 41.5t-79 118.5
t79 118.5t218 41.5zM514 -23q56 0 101 8t77 23t49.5 37t17.5 49t-17.5 48.5t-49.5 37t-77 23.5t-101 8q-55 0 -100.5 -8t-77.5 -23.5t-49.5 -37t-17.5 -48.5t17.5 -49t49.5 -37t77.5 -23t100.5 -8z" />
    <glyph glyph-name="uniAC38" unicode="&#xac38;" 
d="M884 524h-152v-222h152v-45h-152v-327h-53v888h53v-249h152v-45zM107 720h400q0 -91 -24 -178t-74 -166t-126.5 -147t-182.5 -121l-30 42q183 91 278.5 226t106.5 299h-348v45z" />
    <glyph glyph-name="uniAC39" unicode="&#xac39;" 
d="M880 627h-139v-147h139v-45h-139v-140h-53v524h53v-148h139v-44zM97 758h404q0 -81 -29 -151.5t-83.5 -127.5t-132 -100t-174.5 -70l-21 43q86 24 154.5 59.5t118 81t78 101t33.5 119.5h-348v45zM172 207v44h569v-321h-53v277h-516z" />
    <glyph glyph-name="uniAC3C" unicode="&#xac3c;" 
d="M880 595h-140v-175h140v-45h-140v-214h-53v657h53v-178h140v-45zM97 748h406q0 -83 -30.5 -156t-85 -133.5t-131.5 -108t-170 -78.5l-23 44q81 27 149 66t118.5 88.5t80.5 108t35 124.5h-349v45zM252 228v-231h533v-45h-586v276h53z" />
    <glyph glyph-name="uniAC40" unicode="&#xac40;" 
d="M879 650h-138v-131h138v-45h-138v-113h-53v457h53v-123h138v-45zM97 768h404q0 -79 -29.5 -147t-84.5 -122t-132 -94t-172 -64l-21 44q84 21 152.5 54t118 76t78 95.5t32.5 113.5h-346v44zM244 113v-130h533v-44h-585v218h497v116h-499v45h551v-205h-497z" />
    <glyph glyph-name="uniAC4B" unicode="&#xac4b;" 
d="M880 609h-139v-170h139v-46h-139v-167h-53v592h53v-164h139v-45zM100 748h403q0 -82 -29.5 -154.5t-83.5 -132t-131 -105.5t-172 -76l-24 43q84 26 152.5 64t118 86.5t78.5 106.5t34 123h-346v45zM507 294v-46q0 -54 28.5 -99t73 -79.5t98.5 -57.5t106 -34l-24 -41
q-45 10 -92 28.5t-88.5 45.5t-75 62.5t-52.5 78.5q-19 -44 -53 -80t-76 -63t-89.5 -46t-93.5 -29l-23 42q52 10 106.5 33t99.5 57.5t73.5 80.5t28.5 101v46h53z" />
    <glyph glyph-name="uniAC4D" unicode="&#xac4d;" 
d="M879 621h-138v-153h138v-45h-138v-146h-53v541h53v-152h138v-45zM98 748h405q0 -82 -29.5 -154t-84.5 -131t-132 -104.5t-173 -74.5l-22 45q84 25 152.5 62.5t118 85.5t78.5 105t34 121h-347v45zM466 266q66 0 118.5 -11.5t89.5 -33t57 -52.5t20 -70t-20 -69.5t-57 -52
t-89.5 -32.5t-118.5 -11q-65 0 -117.5 11t-89 32.5t-56.5 52t-20 69.5t20 70t56.5 52.5t89 33t117.5 11.5zM466 -23q53 0 96 8.5t73.5 24t47 38.5t16.5 51q0 29 -16.5 51.5t-47 38.5t-73.5 24.5t-96 8.5q-52 0 -94.5 -8.5t-73 -24.5t-47 -38.5t-16.5 -51.5q0 -28 16.5 -50.5
t47 -38.5t73 -24.5t94.5 -8.5z" />
    <glyph glyph-name="uniAC54" unicode="&#xac54;" 
d="M754 818h51v-888h-51v350h-147v-303h-51v817h51v-218h147v242zM91 700h343q0 -80 -17 -160t-56.5 -154.5t-104.5 -140.5t-161 -119l-32 39q83 45 142 101t97 119t57 131.5t23 138.5h-291v45zM607 325h147v206h-147v-206z" />
    <glyph glyph-name="uniAC58" unicode="&#xac58;" 
d="M606 376v-189h-51v614h51v-162h143v178h51v-662h-51v221h-143zM100 730h343q0 -157 -88 -277t-258 -195l-28 39q147 64 228.5 163t91.5 226h-289v44zM749 594h-143v-173h143v173zM284 5h546v-44h-599v277h53v-233z" />
    <glyph glyph-name="uniAC5C" unicode="&#xac5c;" 
d="M606 473v-110h-51v438h51v-116h143v133h51v-462h-51v117h-143zM103 765h341q0 -152 -89.5 -262t-256.5 -174l-27 40q147 54 228 142.5t90 209.5h-286v44zM749 641h-143v-124h143v124zM280 -20h557v-44h-609v213h521v115h-523v45h574v-203h-520v-126z" />
    <glyph glyph-name="uniAC65" unicode="&#xac65;" 
d="M749 817h51v-483h-51v125h-143v-118h-51v460h51v-119h143v135zM102 755h342q0 -154 -88 -267.5t-258 -182.5l-27 41q147 58 227.5 150.5t90.5 213.5h-287v45zM606 504h143v133h-143v-133zM749 171v121h51v-347h-569v347h52v-121h466zM749 -11v138h-466v-138h466z" />
    <glyph glyph-name="uniAC70" unicode="&#xac70;" 
d="M726 818h53v-887h-53v477h-228v45h228v365zM99 720h399q0 -90 -22.5 -177t-71.5 -166t-125.5 -147t-184.5 -121l-31 42q94 45 163.5 102.5t116.5 124.5t72 142t30 155h-346v45z" />
    <glyph glyph-name="uniAC71" unicode="&#xac71;" 
d="M727 818h53v-524h-53v236h-216v45h216v243zM114 758h397q0 -82 -30 -152.5t-84.5 -127.5t-131.5 -100t-171 -70l-24 43q83 24 151.5 59t118.5 81t79.5 101.5t34.5 120.5h-340v45zM194 208v44h586v-321h-53v277h-533z" />
    <glyph glyph-name="uniAC74" unicode="&#xac74;" 
d="M511 534h216v283h53v-660h-53v332h-216v45zM115 748h397q0 -84 -30.5 -158t-85 -135t-131 -108t-169.5 -78l-24 43q80 27 148 66.5t118.5 89.5t81 109t35.5 126h-340v45zM284 -3h519v-45h-572v273h53v-228z" />
    <glyph glyph-name="uniAC77" unicode="&#xac77;" 
d="M510 569h217v249h53v-509h-53v215h-217v45zM113 758h397q0 -82 -29.5 -152t-84.5 -127t-132.5 -100.5t-172.5 -71.5l-21 43q83 24 151.5 59.5t118.5 81.5t79.5 102t34.5 120h-341v45zM268 -11h529v-45h-581v311h566v-45h-514v-221z" />
    <glyph glyph-name="uniAC78" unicode="&#xac78;" 
d="M727 357v189h-216v44h216v228h53v-461h-53zM116 768h391q0 -79 -29.5 -147t-84 -122t-131 -94t-170.5 -64l-20 43q83 22 150.5 55t116.5 75.5t77.5 95t33.5 114.5h-334v44zM272 -17h544v-44h-596v218h508v113h-511v45h563v-201h-508v-131z" />
    <glyph glyph-name="uniAC7A" unicode="&#xac7a;" 
d="M727 818h53v-474h-53v205h-217v44h217v225zM115 768h393q0 -79 -29.5 -147t-84 -122.5t-131 -94.5t-171.5 -65l-21 44q83 21 151 54t117.5 76t78 96t33.5 114h-336v45zM220 109v-120h73q32 0 61.5 1.5t57 5t57.5 9.5l6 -43q-31 -6 -60.5 -9.5t-60.5 -5.5t-65.5 -2.5
t-76.5 -0.5h-43v207h226v107h-229v43h280v-192h-226zM507 -56v357h273v-357h-273zM555 259v-273h177v273h-177z" />
    <glyph glyph-name="uniAC80" unicode="&#xac80;" 
d="M727 818h53v-513h-53v228h-217v45h217v240zM113 758h398q0 -82 -30 -152.5t-84.5 -128t-131.5 -100.5t-172 -70l-23 44q83 24 151.5 59.5t118.5 81t79.5 101.5t34.5 120h-341v45zM215 -55v321h565v-321h-565zM266 223v-234h462v234h-462z" />
    <glyph glyph-name="uniAC81" unicode="&#xac81;" 
d="M726 819h53v-477h-53v197h-215v45h215v235zM115 761h395q0 -81 -29.5 -150t-84 -124.5t-131.5 -96t-173 -65.5l-21 43q84 22 152 56t117.5 78t78.5 98t34 116h-338v45zM727 166v128h52v-350h-564v350h53v-128h459zM727 -12v135h-459v-135h459z" />
    <glyph glyph-name="uniAC83" unicode="&#xac83;" 
d="M727 210v303h-214v45h214v259h53v-607h-53zM115 746h396q0 -82 -30 -154.5t-84 -132t-130 -105.5t-169 -76l-23 43q81 26 148.5 64t117.5 86.5t79.5 106t34.5 123.5h-340v45zM527 293v-47q0 -54 28.5 -98.5t72.5 -79t98.5 -57.5t106.5 -34l-23 -42q-46 10 -93 29t-89 46
t-75 62t-52 78q-19 -43 -52.5 -79t-76 -63t-90 -46t-93.5 -29l-23 42q52 10 106.5 33t99.5 57.5t73.5 80t28.5 100.5v47h53z" />
    <glyph glyph-name="uniAC84" unicode="&#xac84;" 
d="M727 305v230h-214v45h214v238h53v-513h-53zM119 758h392q0 -82 -30 -152.5t-84.5 -128t-131.5 -100.5t-172 -70l-23 44q83 24 151.5 59.5t118.5 81t79.5 101.5t34.5 120h-335v45zM674 284v-76q0 -35 14 -69.5t38.5 -64.5t59 -54t76.5 -39l-27 -41q-69 25 -116.5 72
t-70.5 105q-20 -55 -61 -105.5t-104 -78.5q-66 26 -107 75t-60 106q-23 -57 -70.5 -103t-111.5 -71l-27 41q41 15 75 40.5t59 56t38.5 64.5t13.5 66v76h51v-76q0 -65 35.5 -125t102.5 -97q35 19 61 46t44 57.5t27 61.5t9 57v76h51z" />
    <glyph glyph-name="uniAC85" unicode="&#xac85;" 
d="M511 554h216v263h53v-543h-53v235h-216v45zM115 747h397q0 -82 -30.5 -154t-85.5 -130.5t-131.5 -103.5t-169.5 -74l-24 44q81 25 149.5 62.5t119 85t80.5 104.5t35 122h-340v44zM495 265q134 0 211.5 -43.5t77.5 -121.5q0 -79 -77.5 -122.5t-211.5 -43.5q-67 0 -121 11
t-92 32.5t-58 52.5t-20 70t20 69.5t58 52t92 32.5t121 11zM495 -22q54 0 97.5 8.5t75 24.5t48.5 38.5t17 50.5t-17 50.5t-48.5 38t-75 24t-97.5 8.5t-98.5 -8.5t-75.5 -24t-48 -38t-17 -50.5t17 -51t48 -38.5t75.5 -24t98.5 -8.5z" />
    <glyph glyph-name="uniAC86" unicode="&#xac86;" 
d="M512 574h215v244h53v-515h-53v226h-215v45zM115 758h410q0 -82 -30.5 -152.5t-86.5 -127.5t-135 -99.5t-176 -68.5l-21 44q85 22 155 57t121 81t81 101.5t35 119.5h-353v45zM533 208v-5q0 -43 27 -80.5t70 -67.5t95 -51t101 -30l-22 -42q-45 9 -90.5 26.5t-86 42
t-72.5 55.5t-50 68q-18 -37 -50 -68t-72 -55.5t-85.5 -42t-90.5 -26.5l-22 42q50 9 102 29.5t94.5 50.5t69.5 68t27 81v5h-259v45h573v-45h-259z" />
    <glyph glyph-name="uniAC89" unicode="&#xac89;" 
d="M727 330v206h-211v45h211v238h53v-489h-53zM114 759h397q0 -81 -29.5 -150t-84 -125t-132 -97.5t-173.5 -67.5l-21 44q85 22 153.5 56.5t117.5 79.5t77.5 99t33.5 116h-339v45zM276 -13h525v-43h-578v350h560v-43h-507v-109h496v-42h-496v-113z" />
    <glyph glyph-name="uniAC8A" unicode="&#xac8a;" 
d="M510 576h217v242h53v-507h-53v220h-217v45zM114 757h397q0 -81 -30 -150.5t-85 -126t-132 -99t-171 -68.5l-21 44q82 23 150 57.5t118 79.5t79.5 100t34.5 118h-340v45zM651 -11h148v-44h-607v44h144v232h-136v45h588v-45h-137v-232zM389 221v-232h209v232h-209z" />
    <glyph glyph-name="uniAC8B" unicode="&#xac8b;" 
d="M727 345v205h-217v46h217v223h53v-474h-53zM115 762h392q0 -81 -29 -149.5t-83 -123.5t-131 -96.5t-172 -67.5l-22 43q85 22 153.5 56.5t117 79t76.5 99t33 115.5h-335v44zM523 274h280v-44h-615v44h282v112h53v-112zM495 182q115 0 180 -32.5t65 -92.5t-65 -92t-180 -32
t-179.5 32t-64.5 92t64.5 92.5t179.5 32.5zM495 -27q91 0 141.5 22.5t50.5 61.5t-50.5 62t-141.5 23q-88 0 -139 -23t-51 -62t51 -61.5t139 -22.5z" />
    <glyph glyph-name="uniAC8C" unicode="&#xac8c;" 
d="M755 818h51v-888h-51v888zM570 442v351h51v-814h-51v419h-210q-42 -78 -105.5 -146.5t-157.5 -125.5l-34 40q153 91 231.5 217.5t87.5 272.5h-287v45h339q0 -133 -53 -259h189z" />
    <glyph glyph-name="uniAC90" unicode="&#xac90;" 
d="M800 817v-670h-51v670h51zM575 480h-201q-90 -138 -276 -222l-29 40q148 63 231.5 162t93.5 226h-292v45h346q0 -113 -48 -206h175v274h51v-625h-51v306zM286 -3h545v-45h-598v279h53v-234z" />
    <glyph glyph-name="uniAC94" unicode="&#xac94;" 
d="M800 818v-462h-51v462h51zM575 547h-187q-45 -70 -116.5 -125t-171.5 -93l-27 40q148 54 229.5 142.5t91.5 209.5h-289v44h344q0 -93 -37 -173h163v207h51v-437h-51v185zM280 -12h557v-44h-609v211h520v109h-522v45h574v-197h-520v-124z" />
    <glyph glyph-name="uniAC9C" unicode="&#xac9c;" 
d="M749 817h51v-512h-51v512zM575 521h-190q-89 -148 -285 -233l-29 39q146 60 229 155.5t94 222.5h-291v44h345q0 -97 -39 -183h166v232h51v-481h-51v204zM229 -55v315h571v-315h-571zM280 216v-226h469v226h-469z" />
    <glyph glyph-name="uniAC9D" unicode="&#xac9d;" 
d="M749 817h51v-488h-51v488zM575 525h-192q-88 -142 -285 -222l-28 39q151 58 231 152t91 215h-288v45h343q0 -101 -40 -184h168v228h51v-462h-51v189zM749 168v122h51v-347h-569v347h52v-122h466zM749 -12v136h-466v-136h466z" />
    <glyph glyph-name="uniAC9F" unicode="&#xac9f;" 
d="M800 818v-598h-51v598h51zM575 501h-189q-45 -76 -116 -137t-171 -106l-29 40q148 63 230.5 162t92.5 228h-290v45h344q0 -100 -39 -187h167v252h51v-503h-51v206zM538 275v-45q0 -49 30 -91.5t76 -75t101 -54.5t106 -31l-21 -43q-45 9 -93.5 27t-92 44.5t-79 61
t-54.5 76.5q-19 -42 -54 -76.5t-78.5 -61t-92 -44.5t-94.5 -27l-21 43q51 9 106 31t101 54.5t76 75t30 91.5v45h54z" />
    <glyph glyph-name="uniACA0" unicode="&#xaca0;" 
d="M800 817v-517h-51v517h51zM575 508h-199q-90 -137 -278 -221l-27 40q145 60 228.5 155.5t94.5 222.5h-291v45h345q0 -107 -45 -197h172v245h51v-483h-51v193zM683 268v-70q0 -34 14 -68.5t38.5 -64.5t59 -54.5t75.5 -39.5l-27 -40q-67 25 -115 72.5t-71 105.5
q-19 -57 -60 -107t-104 -79q-66 27 -107.5 76t-59.5 107q-24 -57 -70.5 -103t-112.5 -72l-27 40q41 15 75 40.5t59 56t39 64.5t14 66v70h50v-70q0 -31 9 -63t26.5 -61.5t43.5 -54.5t60 -43q34 20 60 47.5t44 57.5t27 60.5t9 56.5v70h51z" />
    <glyph glyph-name="uniACA1" unicode="&#xaca1;" 
d="M800 818v-552h-51v552h51zM575 507h-192q-88 -145 -285 -231l-28 39q145 61 228.5 157t94.5 224h-290v45h345q0 -98 -41 -189h168v247h51v-500h-51v208zM515 254q139 0 218.5 -41.5t79.5 -118.5t-79.5 -118.5t-218.5 -41.5t-218.5 41.5t-79.5 118.5t79.5 118.5
t218.5 41.5zM515 -23q56 0 101 8t77 23t49.5 37t17.5 49t-17.5 48.5t-49.5 37t-77 23.5t-101 8q-55 0 -100.5 -8t-77.5 -23.5t-49.5 -37t-17.5 -48.5t17.5 -49t49.5 -37t77.5 -23t100.5 -8z" />
    <glyph glyph-name="uniACA8" unicode="&#xaca8;" 
d="M726 820h53v-887h-53v353h-267v45h267v190h-255q-38 -124 -130.5 -230.5t-248.5 -182.5l-29 43q187 91 281.5 226.5t104.5 297.5h-351v45h403q0 -38 -4.5 -76t-12.5 -78h242v254z" />
    <glyph glyph-name="uniACA9" unicode="&#xaca9;" 
d="M727 817h53v-530h-53v130h-252v45h252v143h-239q-45 -106 -145.5 -182.5t-247.5 -116.5l-22 43q84 23 153 58.5t119.5 82t80.5 102.5t35 119h-346v45h403q0 -50 -14 -106h223v167zM194 202v44h586v-315h-53v271h-533z" />
    <glyph glyph-name="uniACAA" unicode="&#xacaa;" 
d="M727 818h53v-518h-53v119h-254v45h254v142h-240q-45 -106 -146 -182t-246 -116l-23 43q84 23 153.5 58.5t120 82t80 102t34.5 119.5h-345v45h402q0 -56 -15 -107h225v167zM176 209v44h283v-322h-53v278h-230zM504 209v44h276v-322h-53v278h-223z" />
    <glyph glyph-name="uniACAC" unicode="&#xacac;" 
d="M727 583h-245q-46 -109 -145.5 -188t-238.5 -127l-25 44q81 27 149.5 66.5t119.5 89t81.5 109t35.5 125.5h-343v45h400q0 -58 -17 -120h228v190h54v-664h-54v231h-256v45h256v154zM284 -3h519v-45h-572v266h53v-221z" />
    <glyph glyph-name="uniACAF" unicode="&#xacaf;" 
d="M727 614h-240q-43 -109 -144 -186.5t-249 -119.5l-22 43q83 24 151.5 59.5t119 81.5t80 101.5t34.5 119.5h-344v45h401q0 -56 -13 -99h226v159h53v-509h-53v119h-254v45h254v141zM268 -11h529v-45h-581v311h566v-45h-514v-221z" />
    </font>
</defs>
</svg>
