<?xml version="1.0" standalone="no"?>
<!DOCTYPE svg PUBLIC "-//W3C//DTD SVG 20010904//EN"
 "http://www.w3.org/TR/2001/REC-SVG-20010904/DTD/svg10.dtd">
<svg version="1.0" xmlns="http://www.w3.org/2000/svg"
 width="200.000000pt" height="200.000000pt" viewBox="0 0 200.000000 200.000000"
 preserveAspectRatio="xMidYMid meet">

<g transform="translate(0.000000,200.000000) scale(0.100000,-0.100000)"
fill="#000000" stroke="none">
<path d="M234 1986 c-95 -23 -175 -93 -211 -185 -16 -42 -18 -102 -21 -766 -2
-507 0 -738 8 -780 21 -108 90 -194 186 -231 47 -18 87 -19 804 -19 720 0 757
1 805 19 65 25 137 94 166 159 l24 52 0 765 c0 757 0 765 -21 811 -44 94 -123
157 -222 178 -79 16 -1449 14 -1518 -3z m71 -181 c30 -29 31 -45 7 -75 -20
-25 -63 -30 -87 -10 -23 19 -19 76 7 94 31 22 45 20 73 -9z m170 0 c30 -29 31
-45 7 -75 -20 -25 -63 -30 -87 -10 -23 19 -19 76 7 94 31 22 45 20 73 -9z
m758 -112 c48 -17 113 -46 145 -64 73 -44 207 -178 251 -251 140 -240 133
-554 -19 -780 -136 -202 -334 -314 -575 -325 -170 -8 -294 27 -441 123 -137
90 -231 213 -285 375 -138 412 110 848 536 945 38 9 104 12 180 11 103 -3 132
-8 208 -34z"/>
<path d="M1309 1351 c-40 -41 -41 -97 0 -140 41 -44 91 -43 137 3 38 38 43 70
19 116 -31 59 -107 69 -156 21z"/>
<path d="M1152 1227 c-9 -10 -8 -18 2 -32 18 -25 48 -13 44 17 -4 27 -30 35
-46 15z"/>
<path d="M430 1085 c-9 -11 -11 -42 -7 -113 8 -155 58 -264 170 -376 119 -118
296 -186 450 -173 140 12 262 69 363 171 110 110 174 261 174 411 0 78 -9 95
-51 95 -21 0 -41 -15 -85 -65 -72 -82 -91 -84 -139 -16 -45 62 -74 81 -126 81
-43 0 -40 2 -135 -101 -41 -44 -66 -38 -114 26 -46 62 -65 75 -112 75 -34 0
-98 -32 -98 -50 0 -5 -14 -25 -31 -45 -41 -46 -70 -46 -106 2 -67 89 -121 116
-153 78z"/>
</g>
</svg>
