<svg width="36" height="37" viewBox="0 0 36 37" fill="none" xmlns="http://www.w3.org/2000/svg">
<path d="M4.20218 0.251798C2.48679 0.667102 1.04226 1.93107 0.392216 3.59228C0.103309 4.35067 0.0671954 5.43407 0.0130254 17.4237C-0.023088 26.5784 0.0130254 30.7495 0.157479 31.5079C0.536669 33.458 1.78258 35.0109 3.51602 35.679C4.36469 36.004 5.08695 36.0221 18.0336 36.0221C31.0344 36.0221 31.7025 36.004 32.5692 35.679C33.7429 35.2276 35.043 33.9817 35.5666 32.808L36 31.8691V18.0557C36 4.38678 36 4.24233 35.6208 3.41172C34.8263 1.71439 33.3998 0.576818 31.6122 0.197628C30.1857 -0.0912792 5.44809 -0.0551658 4.20218 0.251798ZM5.4842 3.52006C6.0259 4.0437 6.04396 4.33261 5.6106 4.87431C5.24946 5.32573 4.47303 5.41601 4.03967 5.05488C3.62436 4.7118 3.69659 3.68257 4.16606 3.35755C4.72582 2.9603 4.97861 2.99641 5.4842 3.52006ZM8.55384 3.52006C9.09554 4.0437 9.1136 4.33261 8.68024 4.87431C8.3191 5.32573 7.54266 5.41601 7.1093 5.05488C6.694 4.7118 6.76623 3.68257 7.2357 3.35755C7.79546 2.9603 8.04825 2.99641 8.55384 3.52006ZM22.2408 5.54241C23.1075 5.84937 24.2812 6.37301 24.859 6.69804C26.1772 7.49253 28.5968 9.91213 29.3913 11.2303C31.9192 15.5639 31.7928 21.2337 29.0482 25.3145C26.5925 28.9619 23.0172 30.9843 18.6656 31.1829C15.5959 31.3274 13.3569 30.6954 10.7026 28.9619C8.22882 27.3368 6.53149 25.1159 5.55643 22.1907C3.06461 14.7513 7.54266 6.8786 15.2348 5.1271C15.921 4.96459 17.1127 4.91042 18.485 4.92848C20.3449 4.98265 20.8685 5.07293 22.2408 5.54241Z" fill="#3C2A21"/>
<path d="M23.6132 11.7178C22.8909 12.4581 22.8729 13.4693 23.6132 14.2457C24.3535 15.0402 25.2563 15.0222 26.087 14.1916C26.7731 13.5054 26.8634 12.9276 26.43 12.097C25.8703 11.0317 24.498 10.8511 23.6132 11.7178Z" fill="#3C2A21"/>
<path d="M20.7781 13.9568C20.6156 14.1374 20.6337 14.2818 20.8143 14.5346C21.1393 14.986 21.681 14.7694 21.6088 14.2277C21.5365 13.7401 21.0671 13.5957 20.7781 13.9568Z" fill="#3C2A21"/>
<path d="M7.74121 16.5209C7.5787 16.7195 7.54259 17.2793 7.61482 18.5613C7.75927 21.3601 8.6621 23.3283 10.6845 25.3506C12.8332 27.4813 16.0292 28.7091 18.81 28.4744C21.3379 28.2577 23.5408 27.2285 25.3645 25.3867C27.3508 23.4005 28.5064 20.6739 28.5064 17.9654C28.5064 16.557 28.3439 16.25 27.5855 16.25C27.2063 16.25 26.8452 16.5209 26.0507 17.4237C24.7506 18.9044 24.4075 18.9405 23.5408 17.7126C22.7283 16.5931 22.2046 16.25 21.2657 16.25C20.4892 16.25 20.5434 16.2139 18.828 18.0738C18.0877 18.8683 17.6363 18.7599 16.7696 17.6043C15.9389 16.4848 15.5959 16.25 14.7472 16.25C14.1333 16.25 12.9777 16.8278 12.9777 17.1529C12.9777 17.2432 12.7249 17.6043 12.4179 17.9654C11.6776 18.796 11.1539 18.796 10.5039 17.9293C9.29409 16.3223 8.31903 15.8347 7.74121 16.5209Z" fill="#3C2A21"/>
</svg>
