<svg width="64" height="80" viewBox="0 0 64 80" fill="none" xmlns="http://www.w3.org/2000/svg">
<path d="M20.68 59.32C26.92 65.56 37.08 65.56 43.32 59.32C49.56 53.08 49.56 42.92 43.32 36.68L20.68 59.32ZM56 0.04L8 0C3.56 0 0 3.56 0 8V72C0 76.44 3.56 80 8 80H56C60.44 80 64 76.44 64 72V8C64 3.56 60.44 0.04 56 0.04ZM24 8C26.2 8 28 9.8 28 12C28 14.2 26.2 16 24 16C21.8 16 20 14.2 20 12C20 9.8 21.8 8 24 8ZM12 8C14.2 8 16 9.8 16 12C16 14.2 14.2 16 12 16C9.8 16 8 14.2 8 12C8 9.8 9.8 8 12 8ZM32 72C18.76 72 8 61.24 8 48C8 34.76 18.76 24 32 24C45.24 24 56 34.76 56 48C56 61.24 45.24 72 32 72Z" fill="#3C2A21"/>
</svg>
