<svg width="20" height="21" viewBox="0 0 20 21" fill="none" xmlns="http://www.w3.org/2000/svg">
<path d="M2.33311 0.161905C1.3807 0.392488 0.578676 1.09426 0.217764 2.01659C0.0573585 2.43766 0.0373079 3.03918 0.00723187 9.696C-0.0128188 14.7788 0.00723187 17.0947 0.0874346 17.5158C0.297967 18.5985 0.989715 19.4607 1.95215 19.8316C2.42334 20.0121 2.82435 20.0221 10.0125 20.0221C17.2308 20.0221 17.6017 20.0121 18.0829 19.8316C18.7346 19.581 19.4564 18.8892 19.7471 18.2376L19.9877 17.7163V10.0469C19.9877 2.45771 19.9877 2.3775 19.7772 1.91634C19.3361 0.973957 18.5441 0.342361 17.5516 0.131829C16.7596 -0.0285762 3.02486 -0.00852555 2.33311 0.161905ZM3.04491 1.97649C3.34567 2.26723 3.35569 2.42763 3.11509 2.72839C2.91458 2.97902 2.48349 3.02915 2.24288 2.82864C2.0123 2.63816 2.0524 2.06672 2.31306 1.88626C2.62384 1.66571 2.7642 1.68576 3.04491 1.97649ZM4.74922 1.97649C5.04998 2.26723 5.06 2.42763 4.81939 2.72839C4.61889 2.97902 4.1878 3.02915 3.94719 2.82864C3.71661 2.63816 3.75671 2.06672 4.01737 1.88626C4.32815 1.66571 4.46851 1.68576 4.74922 1.97649ZM12.3484 3.09933C12.8296 3.26976 13.4813 3.56049 13.8021 3.74095C14.5339 4.18206 15.8773 5.52546 16.3185 6.25731C17.722 8.66339 17.6518 11.8113 16.128 14.0771C14.7645 16.1022 12.7795 17.225 10.3634 17.3353C8.6591 17.4155 7.41595 17.0646 5.94223 16.1022C4.56876 15.1999 3.62638 13.9668 3.08501 12.3427C1.70151 8.21225 4.1878 3.8412 8.45859 2.86875C8.83955 2.77852 9.50122 2.74844 10.2632 2.75847C11.2958 2.78854 11.5865 2.83867 12.3484 3.09933Z" fill="#E5E5CB"/>
<path d="M13.1104 6.52797C12.7094 6.93901 12.6994 7.50043 13.1104 7.93152C13.5215 8.37264 14.0227 8.36261 14.4839 7.90144C14.8649 7.52048 14.915 7.19967 14.6744 6.73851C14.3636 6.14701 13.6017 6.04676 13.1104 6.52797Z" fill="#E5E5CB"/>
<path d="M11.5363 7.77087C11.446 7.87118 11.456 7.95143 11.5563 8.09188C11.7369 8.34266 12.0378 8.22228 11.9977 7.92134C11.9576 7.65049 11.6968 7.57024 11.5363 7.77087Z" fill="#E5E5CB"/>
<path d="M4.29788 9.19473C4.20765 9.30501 4.1876 9.61579 4.2277 10.3276C4.3079 11.8815 4.80917 12.9743 5.93201 14.0971C7.12502 15.2801 8.89951 15.9618 10.4434 15.8315C11.847 15.7112 13.07 15.1398 14.0826 14.1172C15.1854 13.0144 15.827 11.5006 15.827 9.99675C15.827 9.21478 15.7368 9.04435 15.3157 9.04435C15.1052 9.04435 14.9047 9.19473 14.4636 9.69599C13.7417 10.5181 13.5513 10.5381 13.07 9.8564C12.6189 9.23483 12.3282 9.04435 11.8069 9.04435C11.3758 9.04435 11.4058 9.0243 10.4534 10.0569C10.0424 10.498 9.79176 10.4379 9.31055 9.79625C8.84938 9.17468 8.6589 9.04435 8.18771 9.04435C7.84685 9.04435 7.20523 9.36516 7.20523 9.54561C7.20523 9.59574 7.06487 9.79625 6.89444 9.99675C6.4834 10.4579 6.19267 10.4579 5.83176 9.9767C5.16006 9.08445 4.61869 8.81376 4.29788 9.19473Z" fill="#E5E5CB"/>
</svg>
